<svg width="328" height="164" viewBox="0 0 328 164" fill="none" xmlns="http://www.w3.org/2000/svg">
<g clip-path="url(#clip0_119_465)">
<rect width="328" height="164" rx="16" fill="#E6DDFF"/>
<path d="M16.6789 25L19.6669 16.24H22.4509L25.5229 25H23.7709L21.1669 17.404L21.7789 17.668H20.2789L20.9029 17.404L18.3829 25H16.6789ZM18.7669 22.672L19.3069 21.232H22.8589L23.3869 22.672H18.7669ZM30.5201 25.216C29.9841 25.216 29.5121 25.104 29.1041 24.88C28.6961 24.648 28.3761 24.312 28.1441 23.872C27.9121 23.432 27.7841 22.9 27.7601 22.276H28.0121V25H26.6921V16.24H28.3601V20.62L27.9161 21.304C27.9481 20.632 28.0801 20.072 28.3121 19.624C28.5521 19.176 28.8721 18.84 29.2721 18.616C29.6721 18.392 30.1241 18.28 30.6281 18.28C31.0761 18.28 31.4841 18.364 31.8521 18.532C32.2201 18.7 32.5361 18.936 32.8001 19.24C33.0641 19.536 33.2641 19.884 33.4001 20.284C33.5441 20.684 33.6161 21.12 33.6161 21.592V21.844C33.6161 22.316 33.5441 22.756 33.4001 23.164C33.2561 23.572 33.0481 23.932 32.7761 24.244C32.5041 24.548 32.1761 24.788 31.7921 24.964C31.4161 25.132 30.9921 25.216 30.5201 25.216ZM30.1481 23.812C30.5081 23.812 30.8201 23.724 31.0841 23.548C31.3561 23.364 31.5681 23.116 31.7201 22.804C31.8721 22.492 31.9481 22.132 31.9481 21.724C31.9481 21.308 31.8721 20.948 31.7201 20.644C31.5681 20.34 31.3561 20.104 31.0841 19.936C30.8201 19.768 30.5081 19.684 30.1481 19.684C29.8201 19.684 29.5161 19.756 29.2361 19.9C28.9641 20.044 28.7401 20.256 28.5641 20.536C28.3961 20.816 28.3121 21.152 28.3121 21.544V22.024C28.3121 22.4 28.4001 22.72 28.5761 22.984C28.7521 23.248 28.9801 23.452 29.2601 23.596C29.5401 23.74 29.8361 23.812 30.1481 23.812ZM37.7828 25.216C37.3268 25.216 36.9068 25.132 36.5228 24.964C36.1388 24.796 35.8068 24.56 35.5268 24.256C35.2468 23.952 35.0308 23.6 34.8788 23.2C34.7268 22.792 34.6508 22.352 34.6508 21.88V21.628C34.6508 21.164 34.7228 20.728 34.8668 20.32C35.0188 19.912 35.2268 19.556 35.4908 19.252C35.7628 18.948 36.0868 18.712 36.4628 18.544C36.8468 18.368 37.2708 18.28 37.7348 18.28C38.2468 18.28 38.6948 18.392 39.0788 18.616C39.4708 18.832 39.7828 19.16 40.0148 19.6C40.2468 20.04 40.3748 20.592 40.3988 21.256L39.9068 20.68V16.24H41.5748V25H40.2548V22.228H40.5428C40.5188 22.892 40.3828 23.448 40.1348 23.896C39.8868 24.336 39.5588 24.668 39.1508 24.892C38.7508 25.108 38.2948 25.216 37.7828 25.216ZM38.1548 23.812C38.4828 23.812 38.7828 23.74 39.0548 23.596C39.3268 23.444 39.5428 23.228 39.7028 22.948C39.8708 22.66 39.9548 22.324 39.9548 21.94V21.46C39.9548 21.076 39.8708 20.756 39.7028 20.5C39.5348 20.236 39.3148 20.036 39.0428 19.9C38.7708 19.756 38.4748 19.684 38.1548 19.684C37.7948 19.684 37.4748 19.772 37.1948 19.948C36.9228 20.116 36.7068 20.356 36.5468 20.668C36.3948 20.98 36.3188 21.344 36.3188 21.76C36.3188 22.176 36.3988 22.54 36.5588 22.852C36.7188 23.156 36.9348 23.392 37.2068 23.56C37.4868 23.728 37.8028 23.812 38.1548 23.812ZM45.6934 25.204C44.9414 25.204 44.3574 24.956 43.9414 24.46C43.5334 23.964 43.3294 23.228 43.3294 22.252V18.472H44.9974V22.396C44.9974 22.796 45.1094 23.116 45.3334 23.356C45.5574 23.588 45.8614 23.704 46.2454 23.704C46.6294 23.704 46.9414 23.58 47.1814 23.332C47.4294 23.084 47.5534 22.748 47.5534 22.324V18.472H49.2214V25H47.9014V22.228H48.0334C48.0334 22.884 47.9494 23.432 47.7814 23.872C47.6134 24.312 47.3614 24.644 47.0254 24.868C46.6894 25.092 46.2694 25.204 45.7654 25.204H45.6934ZM51.2215 25V16.24H52.8895V25H51.2215ZM50.4055 17.488V16.24H52.8895V17.488H50.4055ZM54.8777 25V16.24H56.5457V25H54.8777ZM54.0617 17.488V16.24H56.5457V17.488H54.0617ZM62.398 25V23.068H62.122V20.92C62.122 20.544 62.03 20.264 61.846 20.08C61.662 19.896 61.378 19.804 60.994 19.804C60.794 19.804 60.554 19.808 60.274 19.816C59.994 19.824 59.71 19.836 59.422 19.852C59.142 19.86 58.89 19.872 58.666 19.888V18.472C58.85 18.456 59.058 18.44 59.29 18.424C59.522 18.408 59.758 18.4 59.998 18.4C60.246 18.392 60.478 18.388 60.694 18.388C61.366 18.388 61.922 18.476 62.362 18.652C62.81 18.828 63.146 19.104 63.37 19.48C63.602 19.856 63.718 20.348 63.718 20.956V25H62.398ZM60.298 25.168C59.826 25.168 59.41 25.084 59.05 24.916C58.698 24.748 58.422 24.508 58.222 24.196C58.03 23.884 57.934 23.508 57.934 23.068C57.934 22.588 58.05 22.196 58.282 21.892C58.522 21.588 58.854 21.36 59.278 21.208C59.71 21.056 60.214 20.98 60.79 20.98H62.302V21.976H60.766C60.382 21.976 60.086 22.072 59.878 22.264C59.678 22.448 59.578 22.688 59.578 22.984C59.578 23.28 59.678 23.52 59.878 23.704C60.086 23.888 60.382 23.98 60.766 23.98C60.998 23.98 61.21 23.94 61.402 23.86C61.602 23.772 61.766 23.628 61.894 23.428C62.03 23.22 62.106 22.94 62.122 22.588L62.53 23.056C62.49 23.512 62.378 23.896 62.194 24.208C62.018 24.52 61.77 24.76 61.45 24.928C61.138 25.088 60.754 25.168 60.298 25.168ZM65.5046 25V16.24H67.1726V21.352H66.8846C66.8846 20.696 66.9686 20.14 67.1366 19.684C67.3046 19.228 67.5526 18.88 67.8806 18.64C68.2166 18.4 68.6406 18.28 69.1526 18.28H69.2246C69.9686 18.28 70.5326 18.536 70.9166 19.048C71.3006 19.56 71.4926 20.304 71.4926 21.28V25H69.8246V21.124C69.8246 20.708 69.7046 20.38 69.4646 20.14C69.2326 19.9 68.9246 19.78 68.5406 19.78C68.1326 19.78 67.8006 19.916 67.5446 20.188C67.2966 20.452 67.1726 20.8 67.1726 21.232V25H65.5046ZM80.0877 25.228C79.3357 25.228 78.6717 25.104 78.0957 24.856C77.5277 24.6 77.0477 24.26 76.6557 23.836C76.2717 23.404 75.9797 22.92 75.7797 22.384C75.5877 21.84 75.4917 21.276 75.4917 20.692V20.428C75.4917 19.876 75.5877 19.336 75.7797 18.808C75.9717 18.28 76.2517 17.804 76.6197 17.38C76.9957 16.956 77.4557 16.62 77.9997 16.372C78.5517 16.116 79.1837 15.988 79.8957 15.988C80.6637 15.988 81.3437 16.132 81.9357 16.42C82.5277 16.7 83.0037 17.096 83.3637 17.608C83.7237 18.112 83.9357 18.7 83.9997 19.372H82.2837C82.2277 18.996 82.0877 18.676 81.8637 18.412C81.6397 18.14 81.3557 17.932 81.0117 17.788C80.6757 17.644 80.3037 17.572 79.8957 17.572C79.4877 17.572 79.1157 17.644 78.7797 17.788C78.4517 17.932 78.1717 18.136 77.9397 18.4C77.7077 18.664 77.5277 18.98 77.3997 19.348C77.2797 19.716 77.2197 20.124 77.2197 20.572C77.2197 21.06 77.2877 21.496 77.4237 21.88C77.5597 22.264 77.7517 22.592 77.9997 22.864C78.2477 23.128 78.5477 23.332 78.8997 23.476C79.2517 23.612 79.6477 23.68 80.0877 23.68C80.6717 23.68 81.1837 23.56 81.6237 23.32C82.0637 23.072 82.3837 22.752 82.5837 22.36L82.2837 23.74V21.484H83.8557V23.428C83.4797 23.996 82.9677 24.44 82.3197 24.76C81.6717 25.072 80.9277 25.228 80.0877 25.228ZM79.8117 21.82V20.548H84.5877V21.82H79.8117ZM85.8601 25V16.24H87.5281V21.352H87.2401C87.2401 20.696 87.3241 20.14 87.4921 19.684C87.6601 19.228 87.9081 18.88 88.2361 18.64C88.5721 18.4 88.9961 18.28 89.5081 18.28H89.5801C90.3241 18.28 90.8881 18.536 91.2721 19.048C91.6561 19.56 91.8481 20.304 91.8481 21.28V25H90.1801V21.124C90.1801 20.708 90.0601 20.38 89.8201 20.14C89.5881 19.9 89.2801 19.78 88.8961 19.78C88.4881 19.78 88.1561 19.916 87.9001 20.188C87.6521 20.452 87.5281 20.8 87.5281 21.232V25H85.8601ZM97.5894 25V23.068H97.3134V20.92C97.3134 20.544 97.2214 20.264 97.0374 20.08C96.8534 19.896 96.5694 19.804 96.1854 19.804C95.9854 19.804 95.7454 19.808 95.4654 19.816C95.1854 19.824 94.9014 19.836 94.6134 19.852C94.3334 19.86 94.0814 19.872 93.8574 19.888V18.472C94.0414 18.456 94.2494 18.44 94.4814 18.424C94.7134 18.408 94.9494 18.4 95.1894 18.4C95.4374 18.392 95.6694 18.388 95.8854 18.388C96.5574 18.388 97.1134 18.476 97.5534 18.652C98.0014 18.828 98.3374 19.104 98.5614 19.48C98.7934 19.856 98.9094 20.348 98.9094 20.956V25H97.5894ZM95.4894 25.168C95.0174 25.168 94.6014 25.084 94.2414 24.916C93.8894 24.748 93.6134 24.508 93.4134 24.196C93.2214 23.884 93.1254 23.508 93.1254 23.068C93.1254 22.588 93.2414 22.196 93.4734 21.892C93.7134 21.588 94.0454 21.36 94.4694 21.208C94.9014 21.056 95.4054 20.98 95.9814 20.98H97.4934V21.976H95.9574C95.5734 21.976 95.2774 22.072 95.0694 22.264C94.8694 22.448 94.7694 22.688 94.7694 22.984C94.7694 23.28 94.8694 23.52 95.0694 23.704C95.2774 23.888 95.5734 23.98 95.9574 23.98C96.1894 23.98 96.4014 23.94 96.5934 23.86C96.7934 23.772 96.9574 23.628 97.0854 23.428C97.2214 23.22 97.2974 22.94 97.3134 22.588L97.7214 23.056C97.6814 23.512 97.5694 23.896 97.3854 24.208C97.2094 24.52 96.9614 24.76 96.6414 24.928C96.3294 25.088 95.9454 25.168 95.4894 25.168ZM103.528 25.084C102.928 25.084 102.432 25.008 102.04 24.856C101.656 24.696 101.368 24.432 101.176 24.064C100.984 23.688 100.888 23.184 100.888 22.552L100.9 16.648H102.46L102.448 22.66C102.448 22.98 102.532 23.228 102.7 23.404C102.876 23.572 103.124 23.656 103.444 23.656H104.464V25.084H103.528ZM99.856 19.708V18.484H104.464V19.708H99.856ZM109.789 25V23.068H109.513V20.92C109.513 20.544 109.421 20.264 109.237 20.08C109.053 19.896 108.769 19.804 108.385 19.804C108.185 19.804 107.945 19.808 107.665 19.816C107.385 19.824 107.101 19.836 106.813 19.852C106.533 19.86 106.281 19.872 106.057 19.888V18.472C106.241 18.456 106.449 18.44 106.681 18.424C106.913 18.408 107.149 18.4 107.389 18.4C107.637 18.392 107.869 18.388 108.085 18.388C108.757 18.388 109.313 18.476 109.753 18.652C110.201 18.828 110.537 19.104 110.761 19.48C110.993 19.856 111.109 20.348 111.109 20.956V25H109.789ZM107.689 25.168C107.217 25.168 106.801 25.084 106.441 24.916C106.089 24.748 105.813 24.508 105.613 24.196C105.421 23.884 105.325 23.508 105.325 23.068C105.325 22.588 105.441 22.196 105.673 21.892C105.913 21.588 106.245 21.36 106.669 21.208C107.101 21.056 107.605 20.98 108.181 20.98H109.693V21.976H108.157C107.773 21.976 107.477 22.072 107.269 22.264C107.069 22.448 106.969 22.688 106.969 22.984C106.969 23.28 107.069 23.52 107.269 23.704C107.477 23.888 107.773 23.98 108.157 23.98C108.389 23.98 108.601 23.94 108.793 23.86C108.993 23.772 109.157 23.628 109.285 23.428C109.421 23.22 109.497 22.94 109.513 22.588L109.921 23.056C109.881 23.512 109.769 23.896 109.585 24.208C109.409 24.52 109.161 24.76 108.841 24.928C108.529 25.088 108.145 25.168 107.689 25.168ZM115.259 25.204C114.363 25.204 113.659 25.016 113.147 24.64C112.643 24.256 112.379 23.728 112.355 23.056H113.855C113.879 23.28 114.003 23.484 114.227 23.668C114.451 23.852 114.803 23.944 115.283 23.944C115.683 23.944 115.999 23.872 116.231 23.728C116.471 23.584 116.591 23.388 116.591 23.14C116.591 22.924 116.499 22.752 116.315 22.624C116.139 22.496 115.835 22.412 115.403 22.372L114.827 22.312C114.099 22.232 113.539 22.024 113.147 21.688C112.755 21.352 112.559 20.904 112.559 20.344C112.559 19.896 112.671 19.52 112.895 19.216C113.119 18.912 113.427 18.684 113.819 18.532C114.219 18.372 114.675 18.292 115.187 18.292C115.987 18.292 116.635 18.468 117.131 18.82C117.627 19.172 117.887 19.688 117.911 20.368H116.411C116.395 20.144 116.283 19.952 116.075 19.792C115.867 19.632 115.567 19.552 115.175 19.552C114.823 19.552 114.551 19.62 114.359 19.756C114.167 19.892 114.071 20.068 114.071 20.284C114.071 20.492 114.147 20.652 114.299 20.764C114.459 20.876 114.715 20.952 115.067 20.992L115.643 21.052C116.411 21.132 117.011 21.344 117.443 21.688C117.883 22.032 118.103 22.496 118.103 23.08C118.103 23.512 117.983 23.888 117.743 24.208C117.511 24.52 117.183 24.764 116.759 24.94C116.335 25.116 115.835 25.204 115.259 25.204ZM119.481 25V16.24H121.149V21.352H120.861C120.861 20.696 120.945 20.14 121.113 19.684C121.281 19.228 121.529 18.88 121.857 18.64C122.193 18.4 122.617 18.28 123.129 18.28H123.201C123.945 18.28 124.509 18.536 124.893 19.048C125.277 19.56 125.469 20.304 125.469 21.28V25H123.801V21.124C123.801 20.708 123.681 20.38 123.441 20.14C123.209 19.9 122.901 19.78 122.517 19.78C122.109 19.78 121.777 19.916 121.521 20.188C121.273 20.452 121.149 20.8 121.149 21.232V25H119.481ZM130.178 25.228C129.618 25.228 129.126 25.132 128.702 24.94C128.286 24.748 127.938 24.492 127.658 24.172C127.386 23.844 127.178 23.48 127.034 23.08C126.898 22.68 126.83 22.272 126.83 21.856V21.628C126.83 21.196 126.898 20.78 127.034 20.38C127.178 19.972 127.386 19.612 127.658 19.3C127.938 18.98 128.282 18.728 128.69 18.544C129.098 18.352 129.57 18.256 130.106 18.256C130.81 18.256 131.398 18.412 131.87 18.724C132.35 19.028 132.71 19.432 132.95 19.936C133.19 20.432 133.31 20.968 133.31 21.544V22.144H127.538V21.124H132.266L131.75 21.628C131.75 21.212 131.69 20.856 131.57 20.56C131.45 20.264 131.266 20.036 131.018 19.876C130.778 19.716 130.474 19.636 130.106 19.636C129.738 19.636 129.426 19.72 129.17 19.888C128.914 20.056 128.718 20.3 128.582 20.62C128.454 20.932 128.39 21.308 128.39 21.748C128.39 22.156 128.454 22.52 128.582 22.84C128.71 23.152 128.906 23.4 129.17 23.584C129.434 23.76 129.77 23.848 130.178 23.848C130.586 23.848 130.918 23.768 131.174 23.608C131.43 23.44 131.594 23.236 131.666 22.996H133.202C133.106 23.444 132.922 23.836 132.65 24.172C132.378 24.508 132.03 24.768 131.606 24.952C131.19 25.136 130.714 25.228 130.178 25.228ZM134.704 25V16.24H136.372V21.352H136.084C136.084 20.696 136.168 20.14 136.336 19.684C136.504 19.228 136.752 18.88 137.08 18.64C137.416 18.4 137.84 18.28 138.352 18.28H138.424C139.168 18.28 139.732 18.536 140.116 19.048C140.5 19.56 140.692 20.304 140.692 21.28V25H139.024V21.124C139.024 20.708 138.904 20.38 138.664 20.14C138.432 19.9 138.124 19.78 137.74 19.78C137.332 19.78 137 19.916 136.744 20.188C136.496 20.452 136.372 20.8 136.372 21.232V25H134.704Z" fill="#191919"/>
<path d="M260.102 20.596L258.278 19.276V17.98L260.102 16.66L260.762 17.824L259.262 18.448V18.808L260.762 19.432L260.102 20.596ZM258.338 15.616L258.11 17.86L256.982 18.508L254.93 17.584L255.602 16.432L256.898 17.416L257.21 17.236L256.994 15.628L258.338 15.616ZM254.93 19.672L256.982 18.748L258.11 19.396L258.338 21.64L257.006 21.616L257.21 20.02L256.898 19.84L255.602 20.812L254.93 19.672ZM266.934 20.596L265.11 19.276V17.98L266.934 16.66L267.594 17.824L266.094 18.448V18.808L267.594 19.432L266.934 20.596ZM265.17 15.616L264.942 17.86L263.814 18.508L261.762 17.584L262.434 16.432L263.73 17.416L264.042 17.236L263.826 15.628L265.17 15.616ZM261.762 19.672L263.814 18.748L264.942 19.396L265.17 21.64L263.838 21.616L264.042 20.02L263.73 19.84L262.434 20.812L261.762 19.672ZM273.766 20.596L271.942 19.276V17.98L273.766 16.66L274.426 17.824L272.926 18.448V18.808L274.426 19.432L273.766 20.596ZM272.002 15.616L271.774 17.86L270.646 18.508L268.594 17.584L269.266 16.432L270.562 17.416L270.874 17.236L270.658 15.628L272.002 15.616ZM268.594 19.672L270.646 18.748L271.774 19.396L272.002 21.64L270.67 21.616L270.874 20.02L270.562 19.84L269.266 20.812L268.594 19.672ZM280.598 20.596L278.774 19.276V17.98L280.598 16.66L281.258 17.824L279.758 18.448V18.808L281.258 19.432L280.598 20.596ZM278.834 15.616L278.606 17.86L277.478 18.508L275.426 17.584L276.098 16.432L277.394 17.416L277.706 17.236L277.49 15.628L278.834 15.616ZM275.426 19.672L277.478 18.748L278.606 19.396L278.834 21.64L277.502 21.616L277.706 20.02L277.394 19.84L276.098 20.812L275.426 19.672ZM285.124 25V23.32C285.124 22.952 285.18 22.632 285.292 22.36C285.412 22.088 285.604 21.848 285.868 21.64C286.14 21.424 286.496 21.22 286.936 21.028L288.424 20.368C288.792 20.2 289.072 19.996 289.264 19.756C289.464 19.508 289.564 19.192 289.564 18.808C289.564 18.384 289.436 18.048 289.18 17.8C288.932 17.544 288.576 17.416 288.112 17.416C287.648 17.416 287.288 17.544 287.032 17.8C286.784 18.056 286.66 18.412 286.66 18.868H285.016C285.016 18.324 285.132 17.836 285.364 17.404C285.596 16.964 285.94 16.62 286.396 16.372C286.852 16.116 287.424 15.988 288.112 15.988C288.8 15.988 289.372 16.112 289.828 16.36C290.284 16.608 290.628 16.94 290.86 17.356C291.092 17.764 291.208 18.22 291.208 18.724V18.88C291.208 19.536 291.024 20.084 290.656 20.524C290.288 20.956 289.748 21.332 289.036 21.652L287.548 22.312C287.268 22.432 287.072 22.56 286.96 22.696C286.848 22.824 286.792 23 286.792 23.224V23.992L286.384 23.548H291.244V25H285.124ZM295.539 25.228C294.867 25.228 294.287 25.1 293.799 24.844C293.319 24.588 292.951 24.248 292.695 23.824C292.439 23.392 292.311 22.912 292.311 22.384H293.955C293.955 22.808 294.095 23.152 294.375 23.416C294.663 23.672 295.051 23.8 295.539 23.8C295.867 23.8 296.147 23.74 296.379 23.62C296.619 23.492 296.803 23.32 296.931 23.104C297.059 22.88 297.123 22.624 297.123 22.336C297.123 21.904 296.983 21.552 296.703 21.28C296.423 21 296.039 20.86 295.551 20.86C295.311 20.86 295.099 20.892 294.915 20.956C294.739 21.02 294.583 21.104 294.447 21.208L293.667 19.864L296.547 17.896L296.439 17.692H292.671V16.24H298.395V17.992L295.431 19.96L294.507 19.792C294.659 19.744 294.823 19.708 294.999 19.684C295.175 19.652 295.367 19.636 295.575 19.636C296.239 19.636 296.807 19.752 297.279 19.984C297.759 20.208 298.127 20.52 298.383 20.92C298.639 21.32 298.767 21.78 298.767 22.3V22.456C298.767 22.96 298.639 23.424 298.383 23.848C298.127 24.264 297.759 24.6 297.279 24.856C296.799 25.104 296.219 25.228 295.539 25.228ZM301.599 25V17.296L302.127 17.704H299.811V16.24H303.291V25H301.599ZM305.257 25V23.32C305.257 22.952 305.313 22.632 305.425 22.36C305.545 22.088 305.737 21.848 306.001 21.64C306.273 21.424 306.629 21.22 307.069 21.028L308.557 20.368C308.925 20.2 309.205 19.996 309.397 19.756C309.597 19.508 309.697 19.192 309.697 18.808C309.697 18.384 309.569 18.048 309.313 17.8C309.065 17.544 308.709 17.416 308.245 17.416C307.781 17.416 307.421 17.544 307.165 17.8C306.917 18.056 306.793 18.412 306.793 18.868H305.149C305.149 18.324 305.265 17.836 305.497 17.404C305.729 16.964 306.073 16.62 306.529 16.372C306.985 16.116 307.557 15.988 308.245 15.988C308.933 15.988 309.505 16.112 309.961 16.36C310.417 16.608 310.761 16.94 310.993 17.356C311.225 17.764 311.341 18.22 311.341 18.724V18.88C311.341 19.536 311.157 20.084 310.789 20.524C310.421 20.956 309.881 21.332 309.169 21.652L307.681 22.312C307.401 22.432 307.205 22.56 307.093 22.696C306.981 22.824 306.925 23 306.925 23.224V23.992L306.517 23.548H311.377V25H305.257Z" fill="#191919"/>
<path d="M18.208 115.048V114.016H20.656C21.128 114.016 21.492 113.884 21.748 113.62C22.012 113.348 22.144 112.988 22.144 112.54C22.144 112.084 22.016 111.728 21.76 111.472C21.504 111.208 21.136 111.076 20.656 111.076H18.208V110.308H20.488C21.048 110.308 21.54 110.376 21.964 110.512C22.396 110.648 22.732 110.876 22.972 111.196C23.22 111.508 23.344 111.936 23.344 112.48V112.648C23.344 113.16 23.24 113.596 23.032 113.956C22.824 114.308 22.508 114.58 22.084 114.772C21.66 114.956 21.128 115.048 20.488 115.048H18.208ZM17.272 115.048V106.192H18.448V115.048H17.272ZM18.208 110.86V110.092H20.332C20.828 110.092 21.192 109.96 21.424 109.696C21.664 109.424 21.784 109.08 21.784 108.664C21.784 108.24 21.664 107.896 21.424 107.632C21.192 107.36 20.828 107.224 20.332 107.224H18.208V106.192H20.128C21.088 106.192 21.804 106.396 22.276 106.804C22.748 107.204 22.984 107.784 22.984 108.544V108.712C22.984 109.248 22.864 109.676 22.624 109.996C22.384 110.308 22.048 110.532 21.616 110.668C21.192 110.796 20.696 110.86 20.128 110.86H18.208ZM29.1363 115V113.08H28.9443V110.86C28.9443 110.42 28.8283 110.088 28.5963 109.864C28.3723 109.64 28.0403 109.528 27.6003 109.528C27.3523 109.528 27.0963 109.532 26.8323 109.54C26.5683 109.548 26.3163 109.556 26.0763 109.564C25.8363 109.572 25.6283 109.584 25.4523 109.6V108.592C25.6283 108.576 25.8123 108.564 26.0043 108.556C26.2043 108.54 26.4083 108.532 26.6163 108.532C26.8243 108.524 27.0243 108.52 27.2163 108.52C27.8723 108.52 28.4083 108.6 28.8243 108.76C29.2403 108.912 29.5483 109.164 29.7483 109.516C29.9483 109.868 30.0483 110.344 30.0483 110.944V115H29.1363ZM27.0363 115.168C26.5563 115.168 26.1403 115.088 25.7883 114.928C25.4443 114.76 25.1763 114.52 24.9843 114.208C24.8003 113.896 24.7083 113.52 24.7083 113.08C24.7083 112.624 24.8083 112.244 25.0083 111.94C25.2163 111.636 25.5163 111.408 25.9083 111.256C26.3003 111.096 26.7723 111.016 27.3242 111.016H29.0643V111.88H27.2763C26.8123 111.88 26.4563 111.992 26.2083 112.216C25.9603 112.44 25.8363 112.728 25.8363 113.08C25.8363 113.432 25.9603 113.716 26.2083 113.932C26.4563 114.148 26.8123 114.256 27.2763 114.256C27.5483 114.256 27.8083 114.208 28.0563 114.112C28.3043 114.008 28.5083 113.84 28.6683 113.608C28.8363 113.368 28.9283 113.04 28.9443 112.624L29.2563 113.08C29.2163 113.536 29.1043 113.92 28.9203 114.232C28.7443 114.536 28.4963 114.768 28.1763 114.928C27.8643 115.088 27.4843 115.168 27.0363 115.168ZM32.2346 115V106.24H33.3866V115H32.2346ZM31.3466 107.152V106.24H33.3866V107.152H31.3466ZM39.4722 115V113.08H39.2802V110.86C39.2802 110.42 39.1642 110.088 38.9322 109.864C38.7082 109.64 38.3762 109.528 37.9362 109.528C37.6882 109.528 37.4322 109.532 37.1682 109.54C36.9042 109.548 36.6522 109.556 36.4122 109.564C36.1722 109.572 35.9642 109.584 35.7882 109.6V108.592C35.9642 108.576 36.1482 108.564 36.3402 108.556C36.5402 108.54 36.7442 108.532 36.9522 108.532C37.1602 108.524 37.3602 108.52 37.5522 108.52C38.2082 108.52 38.7442 108.6 39.1602 108.76C39.5762 108.912 39.8842 109.164 40.0842 109.516C40.2842 109.868 40.3842 110.344 40.3842 110.944V115H39.4722ZM37.3722 115.168C36.8922 115.168 36.4762 115.088 36.1242 114.928C35.7802 114.76 35.5122 114.52 35.3202 114.208C35.1362 113.896 35.0442 113.52 35.0442 113.08C35.0442 112.624 35.1442 112.244 35.3442 111.94C35.5522 111.636 35.8522 111.408 36.2442 111.256C36.6362 111.096 37.1082 111.016 37.6602 111.016H39.4002V111.88H37.6122C37.1482 111.88 36.7922 111.992 36.5442 112.216C36.2962 112.44 36.1722 112.728 36.1722 113.08C36.1722 113.432 36.2962 113.716 36.5442 113.932C36.7922 114.148 37.1482 114.256 37.6122 114.256C37.8842 114.256 38.1442 114.208 38.3922 114.112C38.6402 114.008 38.8442 113.84 39.0042 113.608C39.1722 113.368 39.2642 113.04 39.2802 112.624L39.5922 113.08C39.5522 113.536 39.4402 113.92 39.2562 114.232C39.0802 114.536 38.8322 114.768 38.5122 114.928C38.2002 115.088 37.8202 115.168 37.3722 115.168ZM42.4985 115V108.592H43.4105V111.34H43.2665C43.2665 110.708 43.3505 110.176 43.5185 109.744C43.6945 109.304 43.9585 108.972 44.3105 108.748C44.6625 108.516 45.1065 108.4 45.6425 108.4H45.6905C46.4985 108.4 47.0945 108.652 47.4785 109.156C47.8705 109.66 48.0665 110.388 48.0665 111.34V115H46.9145V111.1C46.9145 110.604 46.7745 110.208 46.4945 109.912C46.2145 109.608 45.8305 109.456 45.3425 109.456C44.8385 109.456 44.4305 109.612 44.1185 109.924C43.8065 110.236 43.6505 110.652 43.6505 111.172V115H42.4985ZM52.9223 115.216C52.3703 115.216 51.8903 115.12 51.4823 114.928C51.0823 114.736 50.7503 114.48 50.4863 114.16C50.2223 113.832 50.0223 113.472 49.8863 113.08C49.7583 112.688 49.6943 112.296 49.6943 111.904V111.688C49.6943 111.28 49.7583 110.88 49.8863 110.488C50.0223 110.096 50.2223 109.744 50.4863 109.432C50.7583 109.112 51.0943 108.856 51.4943 108.664C51.8943 108.472 52.3623 108.376 52.8983 108.376C53.4343 108.376 53.9143 108.476 54.3383 108.676C54.7703 108.876 55.1143 109.16 55.3703 109.528C55.6343 109.888 55.7823 110.316 55.8143 110.812H54.7103C54.6543 110.412 54.4703 110.08 54.1583 109.816C53.8463 109.544 53.4263 109.408 52.8983 109.408C52.4423 109.408 52.0623 109.512 51.7583 109.72C51.4543 109.928 51.2263 110.212 51.0743 110.572C50.9223 110.932 50.8463 111.34 50.8463 111.796C50.8463 112.236 50.9223 112.64 51.0743 113.008C51.2263 113.368 51.4543 113.656 51.7583 113.872C52.0703 114.08 52.4583 114.184 52.9223 114.184C53.2823 114.184 53.5943 114.12 53.8583 113.992C54.1223 113.864 54.3343 113.692 54.4943 113.476C54.6543 113.26 54.7503 113.016 54.7823 112.744H55.8863C55.8623 113.248 55.7143 113.684 55.4423 114.052C55.1783 114.42 54.8263 114.708 54.3863 114.916C53.9543 115.116 53.4663 115.216 52.9223 115.216ZM60.1757 115.216C59.6157 115.216 59.1317 115.12 58.7237 114.928C58.3157 114.736 57.9837 114.484 57.7277 114.172C57.4717 113.852 57.2797 113.496 57.1517 113.104C57.0317 112.712 56.9717 112.312 56.9717 111.904V111.688C56.9717 111.272 57.0317 110.868 57.1517 110.476C57.2797 110.084 57.4717 109.732 57.7277 109.42C57.9837 109.1 58.3077 108.848 58.6997 108.664C59.0997 108.472 59.5677 108.376 60.1037 108.376C60.7997 108.376 61.3717 108.528 61.8197 108.832C62.2757 109.128 62.6117 109.512 62.8277 109.984C63.0517 110.456 63.1637 110.96 63.1637 111.496V112.012H57.4757V111.148H62.3237L62.0597 111.616C62.0597 111.16 61.9877 110.768 61.8437 110.44C61.6997 110.104 61.4837 109.844 61.1957 109.66C60.9077 109.476 60.5437 109.384 60.1037 109.384C59.6477 109.384 59.2677 109.488 58.9637 109.696C58.6677 109.904 58.4437 110.188 58.2917 110.548C58.1477 110.908 58.0757 111.324 58.0757 111.796C58.0757 112.252 58.1477 112.664 58.2917 113.032C58.4437 113.392 58.6757 113.68 58.9877 113.896C59.2997 114.104 59.6957 114.208 60.1757 114.208C60.6797 114.208 61.0877 114.096 61.3997 113.872C61.7197 113.648 61.9117 113.388 61.9757 113.092H63.0557C62.9677 113.532 62.7917 113.912 62.5277 114.232C62.2637 114.552 61.9317 114.796 61.5317 114.964C61.1317 115.132 60.6797 115.216 60.1757 115.216Z" fill="#E6DDFF"/>
<path d="M22.9144 143.063C21.5984 143.063 20.4924 142.867 19.5964 142.475C18.7144 142.069 18.0424 141.502 17.5804 140.774C17.1324 140.032 16.9084 139.157 16.9084 138.149H19.5964C19.5964 138.583 19.7084 138.996 19.9324 139.388C20.1564 139.78 20.5064 140.102 20.9824 140.354C21.4724 140.592 22.1164 140.711 22.9144 140.711C23.9644 140.711 24.7624 140.508 25.3084 140.102C25.8544 139.696 26.1274 139.192 26.1274 138.59C26.1274 138.044 25.8894 137.589 25.4134 137.225C24.9514 136.861 24.2304 136.637 23.2504 136.553L22.0744 136.448C20.6324 136.308 19.4844 135.874 18.6304 135.146C17.7764 134.404 17.3494 133.354 17.3494 131.996C17.3494 131.058 17.5594 130.267 17.9794 129.623C18.4134 128.979 19.0294 128.496 19.8274 128.174C20.6394 127.838 21.5984 127.67 22.7044 127.67C23.8524 127.67 24.8254 127.859 25.6234 128.237C26.4354 128.615 27.0514 129.161 27.4714 129.875C27.9054 130.575 28.1224 131.429 28.1224 132.437H25.4344C25.4344 132.003 25.3294 131.604 25.1194 131.24C24.9234 130.876 24.6224 130.582 24.2164 130.358C23.8244 130.134 23.3204 130.022 22.7044 130.022C22.1444 130.022 21.6684 130.106 21.2764 130.274C20.8844 130.442 20.5834 130.673 20.3734 130.967C20.1634 131.261 20.0584 131.604 20.0584 131.996C20.0584 132.486 20.2334 132.92 20.5834 133.298C20.9474 133.676 21.5284 133.9 22.3264 133.97L23.5024 134.075C25.1124 134.215 26.4004 134.663 27.3664 135.419C28.3464 136.175 28.8364 137.232 28.8364 138.59C28.8364 139.528 28.5984 140.333 28.1224 141.005C27.6604 141.663 26.9884 142.174 26.1064 142.538C25.2244 142.888 24.1604 143.063 22.9144 143.063ZM21.6334 145.709V142.643H24.0694V145.709H21.6334ZM21.5494 128.699V125.633H23.9854V128.699H21.5494ZM31.0911 143V140.06C31.0911 139.416 31.1891 138.856 31.3851 138.38C31.5951 137.904 31.9311 137.484 32.3931 137.12C32.8691 136.742 33.4921 136.385 34.2621 136.049L36.8661 134.894C37.5101 134.6 38.0001 134.243 38.3361 133.823C38.6861 133.389 38.8611 132.836 38.8611 132.164C38.8611 131.422 38.6371 130.834 38.1891 130.4C37.7551 129.952 37.1321 129.728 36.3201 129.728C35.5081 129.728 34.8781 129.952 34.4301 130.4C33.9961 130.848 33.7791 131.471 33.7791 132.269H30.9021C30.9021 131.317 31.1051 130.463 31.5111 129.707C31.9171 128.937 32.5191 128.335 33.3171 127.901C34.1151 127.453 35.1161 127.229 36.3201 127.229C37.5241 127.229 38.5251 127.446 39.3231 127.88C40.1211 128.314 40.7231 128.895 41.1291 129.623C41.5351 130.337 41.7381 131.135 41.7381 132.017V132.29C41.7381 133.438 41.4161 134.397 40.7721 135.167C40.1281 135.923 39.1831 136.581 37.9371 137.141L35.3331 138.296C34.8431 138.506 34.5001 138.73 34.3041 138.968C34.1081 139.192 34.0101 139.5 34.0101 139.892V141.236L33.2961 140.459H41.8011V143H31.0911ZM45.4331 146.486L43.1651 145.625L45.3071 139.535L47.7431 140.438L45.4331 146.486ZM54.9577 143.399C53.7817 143.399 52.7667 143.175 51.9127 142.727C51.0727 142.279 50.4287 141.684 49.9807 140.942C49.5327 140.186 49.3087 139.346 49.3087 138.422H52.1857C52.1857 139.164 52.4307 139.766 52.9207 140.228C53.4247 140.676 54.1037 140.9 54.9577 140.9C55.5317 140.9 56.0217 140.795 56.4277 140.585C56.8477 140.361 57.1697 140.06 57.3937 139.682C57.6177 139.29 57.7297 138.842 57.7297 138.338C57.7297 137.582 57.4847 136.966 56.9947 136.49C56.5047 136 55.8327 135.755 54.9787 135.755C54.5587 135.755 54.1877 135.811 53.8657 135.923C53.5577 136.035 53.2847 136.182 53.0467 136.364L51.6817 134.012L56.7217 130.568L56.5327 130.211H49.9387V127.67H59.9557V130.736L54.7687 134.18L53.1517 133.886C53.4177 133.802 53.7047 133.739 54.0127 133.697C54.3207 133.641 54.6567 133.613 55.0207 133.613C56.1827 133.613 57.1767 133.816 58.0027 134.222C58.8427 134.614 59.4867 135.16 59.9347 135.86C60.3827 136.56 60.6067 137.365 60.6067 138.275V138.548C60.6067 139.43 60.3827 140.242 59.9347 140.984C59.4867 141.712 58.8427 142.3 58.0027 142.748C57.1627 143.182 56.1477 143.399 54.9577 143.399ZM68.4602 143.399C67.2562 143.399 66.2202 143.161 65.3522 142.685C64.4982 142.209 63.8402 141.579 63.3782 140.795C62.9302 139.997 62.7062 139.129 62.7062 138.191H65.5832C65.5832 138.723 65.7022 139.192 65.9402 139.598C66.1922 140.004 66.5352 140.326 66.9692 140.564C67.4032 140.788 67.9072 140.9 68.4812 140.9C69.0832 140.9 69.6012 140.774 70.0352 140.522C70.4692 140.27 70.7982 139.927 71.0222 139.493C71.2602 139.059 71.3792 138.562 71.3792 138.002C71.3792 137.456 71.2602 136.966 71.0222 136.532C70.7982 136.084 70.4692 135.734 70.0352 135.482C69.6152 135.216 69.1042 135.083 68.5022 135.083C67.9982 135.083 67.5222 135.181 67.0742 135.377C66.6262 135.573 66.2762 135.832 66.0242 136.154H63.2732L64.0502 127.67H72.9332V130.211H65.3522L66.4022 129.392L65.8982 134.684L65.1842 134.474C65.5902 134.012 66.0872 133.627 66.6752 133.319C67.2632 133.011 68.0052 132.857 68.9012 132.857C70.0352 132.857 71.0012 133.088 71.7992 133.55C72.5972 134.012 73.2062 134.628 73.6262 135.398C74.0462 136.154 74.2562 136.98 74.2562 137.876V138.149C74.2562 139.059 74.0322 139.913 73.5842 140.711C73.1362 141.509 72.4782 142.16 71.6102 142.664C70.7562 143.154 69.7062 143.399 68.4602 143.399ZM75.8463 139.829V136.595L81.8523 127.25L84.0993 128.783L78.8073 137.057L79.0593 137.477H88.4673V139.829H75.8463ZM83.8683 143V132.017H86.6193V143H83.8683Z" fill="white"/>
<circle opacity="0.5" cx="232" cy="202" r="96" fill="#6F45E9"/>
<circle cx="297" cy="156" r="80.5" stroke="#FDC228"/>
</g>
<defs>
<clipPath id="clip0_119_465">
<rect width="328" height="164" rx="16" fill="white"/>
</clipPath>
</defs>
</svg>
