<svg width="360" height="244" viewBox="0 0 360 244" fill="none" xmlns="http://www.w3.org/2000/svg">
<g filter="url(#filter0_d_119_838)">
<g clip-path="url(#clip0_119_838)">
<rect x="16" y="8" width="329" height="196" rx="16" fill="#270685"/>
<path d="M32.6789 37L35.6669 28.24H38.4509L41.5229 37H39.7709L37.1669 29.404L37.7789 29.668H36.2789L36.9029 29.404L34.3829 37H32.6789ZM34.7669 34.672L35.3069 33.232H38.8589L39.3869 34.672H34.7669ZM46.5201 37.216C45.9841 37.216 45.5121 37.104 45.1041 36.88C44.6961 36.648 44.3761 36.312 44.1441 35.872C43.9121 35.432 43.7841 34.9 43.7601 34.276H44.0121V37H42.6921V28.24H44.3601V32.62L43.9161 33.304C43.9481 32.632 44.0801 32.072 44.3121 31.624C44.5521 31.176 44.8721 30.84 45.2721 30.616C45.6721 30.392 46.1241 30.28 46.6281 30.28C47.0761 30.28 47.4841 30.364 47.8521 30.532C48.2201 30.7 48.5361 30.936 48.8001 31.24C49.0641 31.536 49.2641 31.884 49.4001 32.284C49.5441 32.684 49.6161 33.12 49.6161 33.592V33.844C49.6161 34.316 49.5441 34.756 49.4001 35.164C49.2561 35.572 49.0481 35.932 48.7761 36.244C48.5041 36.548 48.1761 36.788 47.7921 36.964C47.4161 37.132 46.9921 37.216 46.5201 37.216ZM46.1481 35.812C46.5081 35.812 46.8201 35.724 47.0841 35.548C47.3561 35.364 47.5681 35.116 47.7201 34.804C47.8721 34.492 47.9481 34.132 47.9481 33.724C47.9481 33.308 47.8721 32.948 47.7201 32.644C47.5681 32.34 47.3561 32.104 47.0841 31.936C46.8201 31.768 46.5081 31.684 46.1481 31.684C45.8201 31.684 45.5161 31.756 45.2361 31.9C44.9641 32.044 44.7401 32.256 44.5641 32.536C44.3961 32.816 44.3121 33.152 44.3121 33.544V34.024C44.3121 34.4 44.4001 34.72 44.5761 34.984C44.7521 35.248 44.9801 35.452 45.2601 35.596C45.5401 35.74 45.8361 35.812 46.1481 35.812ZM53.7828 37.216C53.3268 37.216 52.9068 37.132 52.5228 36.964C52.1388 36.796 51.8068 36.56 51.5268 36.256C51.2468 35.952 51.0308 35.6 50.8788 35.2C50.7268 34.792 50.6508 34.352 50.6508 33.88V33.628C50.6508 33.164 50.7228 32.728 50.8668 32.32C51.0188 31.912 51.2268 31.556 51.4908 31.252C51.7628 30.948 52.0868 30.712 52.4628 30.544C52.8468 30.368 53.2708 30.28 53.7348 30.28C54.2468 30.28 54.6948 30.392 55.0788 30.616C55.4708 30.832 55.7828 31.16 56.0148 31.6C56.2468 32.04 56.3748 32.592 56.3988 33.256L55.9068 32.68V28.24H57.5748V37H56.2548V34.228H56.5428C56.5188 34.892 56.3828 35.448 56.1348 35.896C55.8868 36.336 55.5588 36.668 55.1508 36.892C54.7508 37.108 54.2948 37.216 53.7828 37.216ZM54.1548 35.812C54.4828 35.812 54.7828 35.74 55.0548 35.596C55.3268 35.444 55.5428 35.228 55.7028 34.948C55.8708 34.66 55.9548 34.324 55.9548 33.94V33.46C55.9548 33.076 55.8708 32.756 55.7028 32.5C55.5348 32.236 55.3148 32.036 55.0428 31.9C54.7708 31.756 54.4748 31.684 54.1548 31.684C53.7948 31.684 53.4748 31.772 53.1948 31.948C52.9228 32.116 52.7068 32.356 52.5468 32.668C52.3948 32.98 52.3188 33.344 52.3188 33.76C52.3188 34.176 52.3988 34.54 52.5588 34.852C52.7188 35.156 52.9348 35.392 53.2068 35.56C53.4868 35.728 53.8028 35.812 54.1548 35.812ZM61.6934 37.204C60.9414 37.204 60.3574 36.956 59.9414 36.46C59.5334 35.964 59.3294 35.228 59.3294 34.252V30.472H60.9974V34.396C60.9974 34.796 61.1094 35.116 61.3334 35.356C61.5574 35.588 61.8614 35.704 62.2454 35.704C62.6294 35.704 62.9414 35.58 63.1814 35.332C63.4294 35.084 63.5534 34.748 63.5534 34.324V30.472H65.2214V37H63.9014V34.228H64.0334C64.0334 34.884 63.9494 35.432 63.7814 35.872C63.6134 36.312 63.3614 36.644 63.0254 36.868C62.6894 37.092 62.2694 37.204 61.7654 37.204H61.6934ZM67.2215 37V28.24H68.8895V37H67.2215ZM66.4055 29.488V28.24H68.8895V29.488H66.4055ZM70.8777 37V28.24H72.5457V37H70.8777ZM70.0617 29.488V28.24H72.5457V29.488H70.0617ZM78.398 37V35.068H78.122V32.92C78.122 32.544 78.03 32.264 77.846 32.08C77.662 31.896 77.378 31.804 76.994 31.804C76.794 31.804 76.554 31.808 76.274 31.816C75.994 31.824 75.71 31.836 75.422 31.852C75.142 31.86 74.89 31.872 74.666 31.888V30.472C74.85 30.456 75.058 30.44 75.29 30.424C75.522 30.408 75.758 30.4 75.998 30.4C76.246 30.392 76.478 30.388 76.694 30.388C77.366 30.388 77.922 30.476 78.362 30.652C78.81 30.828 79.146 31.104 79.37 31.48C79.602 31.856 79.718 32.348 79.718 32.956V37H78.398ZM76.298 37.168C75.826 37.168 75.41 37.084 75.05 36.916C74.698 36.748 74.422 36.508 74.222 36.196C74.03 35.884 73.934 35.508 73.934 35.068C73.934 34.588 74.05 34.196 74.282 33.892C74.522 33.588 74.854 33.36 75.278 33.208C75.71 33.056 76.214 32.98 76.79 32.98H78.302V33.976H76.766C76.382 33.976 76.086 34.072 75.878 34.264C75.678 34.448 75.578 34.688 75.578 34.984C75.578 35.28 75.678 35.52 75.878 35.704C76.086 35.888 76.382 35.98 76.766 35.98C76.998 35.98 77.21 35.94 77.402 35.86C77.602 35.772 77.766 35.628 77.894 35.428C78.03 35.22 78.106 34.94 78.122 34.588L78.53 35.056C78.49 35.512 78.378 35.896 78.194 36.208C78.018 36.52 77.77 36.76 77.45 36.928C77.138 37.088 76.754 37.168 76.298 37.168ZM81.5046 37V28.24H83.1726V33.352H82.8846C82.8846 32.696 82.9686 32.14 83.1366 31.684C83.3046 31.228 83.5526 30.88 83.8806 30.64C84.2166 30.4 84.6406 30.28 85.1526 30.28H85.2246C85.9686 30.28 86.5326 30.536 86.9166 31.048C87.3006 31.56 87.4926 32.304 87.4926 33.28V37H85.8246V33.124C85.8246 32.708 85.7046 32.38 85.4646 32.14C85.2326 31.9 84.9246 31.78 84.5406 31.78C84.1326 31.78 83.8006 31.916 83.5446 32.188C83.2966 32.452 83.1726 32.8 83.1726 33.232V37H81.5046ZM96.0877 37.228C95.3357 37.228 94.6717 37.104 94.0957 36.856C93.5277 36.6 93.0477 36.26 92.6557 35.836C92.2717 35.404 91.9797 34.92 91.7797 34.384C91.5877 33.84 91.4917 33.276 91.4917 32.692V32.428C91.4917 31.876 91.5877 31.336 91.7797 30.808C91.9717 30.28 92.2517 29.804 92.6197 29.38C92.9957 28.956 93.4557 28.62 93.9997 28.372C94.5517 28.116 95.1837 27.988 95.8957 27.988C96.6637 27.988 97.3437 28.132 97.9357 28.42C98.5277 28.7 99.0037 29.096 99.3637 29.608C99.7237 30.112 99.9357 30.7 99.9997 31.372H98.2837C98.2277 30.996 98.0877 30.676 97.8637 30.412C97.6397 30.14 97.3557 29.932 97.0117 29.788C96.6757 29.644 96.3037 29.572 95.8957 29.572C95.4877 29.572 95.1157 29.644 94.7797 29.788C94.4517 29.932 94.1717 30.136 93.9397 30.4C93.7077 30.664 93.5277 30.98 93.3997 31.348C93.2797 31.716 93.2197 32.124 93.2197 32.572C93.2197 33.06 93.2877 33.496 93.4237 33.88C93.5597 34.264 93.7517 34.592 93.9997 34.864C94.2477 35.128 94.5477 35.332 94.8997 35.476C95.2517 35.612 95.6477 35.68 96.0877 35.68C96.6717 35.68 97.1837 35.56 97.6237 35.32C98.0637 35.072 98.3837 34.752 98.5837 34.36L98.2837 35.74V33.484H99.8557V35.428C99.4797 35.996 98.9677 36.44 98.3197 36.76C97.6717 37.072 96.9277 37.228 96.0877 37.228ZM95.8117 33.82V32.548H100.588V33.82H95.8117ZM101.86 37V28.24H103.528V33.352H103.24C103.24 32.696 103.324 32.14 103.492 31.684C103.66 31.228 103.908 30.88 104.236 30.64C104.572 30.4 104.996 30.28 105.508 30.28H105.58C106.324 30.28 106.888 30.536 107.272 31.048C107.656 31.56 107.848 32.304 107.848 33.28V37H106.18V33.124C106.18 32.708 106.06 32.38 105.82 32.14C105.588 31.9 105.28 31.78 104.896 31.78C104.488 31.78 104.156 31.916 103.9 32.188C103.652 32.452 103.528 32.8 103.528 33.232V37H101.86ZM113.589 37V35.068H113.313V32.92C113.313 32.544 113.221 32.264 113.037 32.08C112.853 31.896 112.569 31.804 112.185 31.804C111.985 31.804 111.745 31.808 111.465 31.816C111.185 31.824 110.901 31.836 110.613 31.852C110.333 31.86 110.081 31.872 109.857 31.888V30.472C110.041 30.456 110.249 30.44 110.481 30.424C110.713 30.408 110.949 30.4 111.189 30.4C111.437 30.392 111.669 30.388 111.885 30.388C112.557 30.388 113.113 30.476 113.553 30.652C114.001 30.828 114.337 31.104 114.561 31.48C114.793 31.856 114.909 32.348 114.909 32.956V37H113.589ZM111.489 37.168C111.017 37.168 110.601 37.084 110.241 36.916C109.889 36.748 109.613 36.508 109.413 36.196C109.221 35.884 109.125 35.508 109.125 35.068C109.125 34.588 109.241 34.196 109.473 33.892C109.713 33.588 110.045 33.36 110.469 33.208C110.901 33.056 111.405 32.98 111.981 32.98H113.493V33.976H111.957C111.573 33.976 111.277 34.072 111.069 34.264C110.869 34.448 110.769 34.688 110.769 34.984C110.769 35.28 110.869 35.52 111.069 35.704C111.277 35.888 111.573 35.98 111.957 35.98C112.189 35.98 112.401 35.94 112.593 35.86C112.793 35.772 112.957 35.628 113.085 35.428C113.221 35.22 113.297 34.94 113.313 34.588L113.721 35.056C113.681 35.512 113.569 35.896 113.385 36.208C113.209 36.52 112.961 36.76 112.641 36.928C112.329 37.088 111.945 37.168 111.489 37.168ZM119.528 37.084C118.928 37.084 118.432 37.008 118.04 36.856C117.656 36.696 117.368 36.432 117.176 36.064C116.984 35.688 116.888 35.184 116.888 34.552L116.9 28.648H118.46L118.448 34.66C118.448 34.98 118.532 35.228 118.7 35.404C118.876 35.572 119.124 35.656 119.444 35.656H120.464V37.084H119.528ZM115.856 31.708V30.484H120.464V31.708H115.856ZM125.789 37V35.068H125.513V32.92C125.513 32.544 125.421 32.264 125.237 32.08C125.053 31.896 124.769 31.804 124.385 31.804C124.185 31.804 123.945 31.808 123.665 31.816C123.385 31.824 123.101 31.836 122.813 31.852C122.533 31.86 122.281 31.872 122.057 31.888V30.472C122.241 30.456 122.449 30.44 122.681 30.424C122.913 30.408 123.149 30.4 123.389 30.4C123.637 30.392 123.869 30.388 124.085 30.388C124.757 30.388 125.313 30.476 125.753 30.652C126.201 30.828 126.537 31.104 126.761 31.48C126.993 31.856 127.109 32.348 127.109 32.956V37H125.789ZM123.689 37.168C123.217 37.168 122.801 37.084 122.441 36.916C122.089 36.748 121.813 36.508 121.613 36.196C121.421 35.884 121.325 35.508 121.325 35.068C121.325 34.588 121.441 34.196 121.673 33.892C121.913 33.588 122.245 33.36 122.669 33.208C123.101 33.056 123.605 32.98 124.181 32.98H125.693V33.976H124.157C123.773 33.976 123.477 34.072 123.269 34.264C123.069 34.448 122.969 34.688 122.969 34.984C122.969 35.28 123.069 35.52 123.269 35.704C123.477 35.888 123.773 35.98 124.157 35.98C124.389 35.98 124.601 35.94 124.793 35.86C124.993 35.772 125.157 35.628 125.285 35.428C125.421 35.22 125.497 34.94 125.513 34.588L125.921 35.056C125.881 35.512 125.769 35.896 125.585 36.208C125.409 36.52 125.161 36.76 124.841 36.928C124.529 37.088 124.145 37.168 123.689 37.168ZM131.259 37.204C130.363 37.204 129.659 37.016 129.147 36.64C128.643 36.256 128.379 35.728 128.355 35.056H129.855C129.879 35.28 130.003 35.484 130.227 35.668C130.451 35.852 130.803 35.944 131.283 35.944C131.683 35.944 131.999 35.872 132.231 35.728C132.471 35.584 132.591 35.388 132.591 35.14C132.591 34.924 132.499 34.752 132.315 34.624C132.139 34.496 131.835 34.412 131.403 34.372L130.827 34.312C130.099 34.232 129.539 34.024 129.147 33.688C128.755 33.352 128.559 32.904 128.559 32.344C128.559 31.896 128.671 31.52 128.895 31.216C129.119 30.912 129.427 30.684 129.819 30.532C130.219 30.372 130.675 30.292 131.187 30.292C131.987 30.292 132.635 30.468 133.131 30.82C133.627 31.172 133.887 31.688 133.911 32.368H132.411C132.395 32.144 132.283 31.952 132.075 31.792C131.867 31.632 131.567 31.552 131.175 31.552C130.823 31.552 130.551 31.62 130.359 31.756C130.167 31.892 130.071 32.068 130.071 32.284C130.071 32.492 130.147 32.652 130.299 32.764C130.459 32.876 130.715 32.952 131.067 32.992L131.643 33.052C132.411 33.132 133.011 33.344 133.443 33.688C133.883 34.032 134.103 34.496 134.103 35.08C134.103 35.512 133.983 35.888 133.743 36.208C133.511 36.52 133.183 36.764 132.759 36.94C132.335 37.116 131.835 37.204 131.259 37.204ZM135.481 37V28.24H137.149V33.352H136.861C136.861 32.696 136.945 32.14 137.113 31.684C137.281 31.228 137.529 30.88 137.857 30.64C138.193 30.4 138.617 30.28 139.129 30.28H139.201C139.945 30.28 140.509 30.536 140.893 31.048C141.277 31.56 141.469 32.304 141.469 33.28V37H139.801V33.124C139.801 32.708 139.681 32.38 139.441 32.14C139.209 31.9 138.901 31.78 138.517 31.78C138.109 31.78 137.777 31.916 137.521 32.188C137.273 32.452 137.149 32.8 137.149 33.232V37H135.481ZM146.178 37.228C145.618 37.228 145.126 37.132 144.702 36.94C144.286 36.748 143.938 36.492 143.658 36.172C143.386 35.844 143.178 35.48 143.034 35.08C142.898 34.68 142.83 34.272 142.83 33.856V33.628C142.83 33.196 142.898 32.78 143.034 32.38C143.178 31.972 143.386 31.612 143.658 31.3C143.938 30.98 144.282 30.728 144.69 30.544C145.098 30.352 145.57 30.256 146.106 30.256C146.81 30.256 147.398 30.412 147.87 30.724C148.35 31.028 148.71 31.432 148.95 31.936C149.19 32.432 149.31 32.968 149.31 33.544V34.144H143.538V33.124H148.266L147.75 33.628C147.75 33.212 147.69 32.856 147.57 32.56C147.45 32.264 147.266 32.036 147.018 31.876C146.778 31.716 146.474 31.636 146.106 31.636C145.738 31.636 145.426 31.72 145.17 31.888C144.914 32.056 144.718 32.3 144.582 32.62C144.454 32.932 144.39 33.308 144.39 33.748C144.39 34.156 144.454 34.52 144.582 34.84C144.71 35.152 144.906 35.4 145.17 35.584C145.434 35.76 145.77 35.848 146.178 35.848C146.586 35.848 146.918 35.768 147.174 35.608C147.43 35.44 147.594 35.236 147.666 34.996H149.202C149.106 35.444 148.922 35.836 148.65 36.172C148.378 36.508 148.03 36.768 147.606 36.952C147.19 37.136 146.714 37.228 146.178 37.228ZM150.704 37V28.24H152.372V33.352H152.084C152.084 32.696 152.168 32.14 152.336 31.684C152.504 31.228 152.752 30.88 153.08 30.64C153.416 30.4 153.84 30.28 154.352 30.28H154.424C155.168 30.28 155.732 30.536 156.116 31.048C156.5 31.56 156.692 32.304 156.692 33.28V37H155.024V33.124C155.024 32.708 154.904 32.38 154.664 32.14C154.432 31.9 154.124 31.78 153.74 31.78C153.332 31.78 153 31.916 152.744 32.188C152.496 32.452 152.372 32.8 152.372 33.232V37H150.704Z" fill="white"/>
<path d="M274.137 32.596L272.313 31.276V29.98L274.137 28.66L274.797 29.824L273.297 30.448V30.808L274.797 31.432L274.137 32.596ZM272.373 27.616L272.145 29.86L271.017 30.508L268.965 29.584L269.637 28.432L270.933 29.416L271.245 29.236L271.029 27.628L272.373 27.616ZM268.965 31.672L271.017 30.748L272.145 31.396L272.373 33.64L271.041 33.616L271.245 32.02L270.933 31.84L269.637 32.812L268.965 31.672ZM280.969 32.596L279.145 31.276V29.98L280.969 28.66L281.629 29.824L280.129 30.448V30.808L281.629 31.432L280.969 32.596ZM279.205 27.616L278.977 29.86L277.849 30.508L275.797 29.584L276.469 28.432L277.765 29.416L278.077 29.236L277.861 27.628L279.205 27.616ZM275.797 31.672L277.849 30.748L278.977 31.396L279.205 33.64L277.873 33.616L278.077 32.02L277.765 31.84L276.469 32.812L275.797 31.672ZM287.801 32.596L285.977 31.276V29.98L287.801 28.66L288.461 29.824L286.961 30.448V30.808L288.461 31.432L287.801 32.596ZM286.037 27.616L285.809 29.86L284.681 30.508L282.629 29.584L283.301 28.432L284.597 29.416L284.909 29.236L284.693 27.628L286.037 27.616ZM282.629 31.672L284.681 30.748L285.809 31.396L286.037 33.64L284.705 33.616L284.909 32.02L284.597 31.84L283.301 32.812L282.629 31.672ZM294.633 32.596L292.809 31.276V29.98L294.633 28.66L295.293 29.824L293.793 30.448V30.808L295.293 31.432L294.633 32.596ZM292.869 27.616L292.641 29.86L291.513 30.508L289.461 29.584L290.133 28.432L291.429 29.416L291.741 29.236L291.525 27.628L292.869 27.616ZM289.461 31.672L291.513 30.748L292.641 31.396L292.869 33.64L291.537 33.616L291.741 32.02L291.429 31.84L290.133 32.812L289.461 31.672ZM302.051 37.228C301.379 37.228 300.799 37.1 300.311 36.844C299.831 36.588 299.463 36.248 299.207 35.824C298.951 35.392 298.823 34.912 298.823 34.384H300.467C300.467 34.808 300.607 35.152 300.887 35.416C301.175 35.672 301.563 35.8 302.051 35.8C302.379 35.8 302.659 35.74 302.891 35.62C303.131 35.492 303.315 35.32 303.443 35.104C303.571 34.88 303.635 34.624 303.635 34.336C303.635 33.904 303.495 33.552 303.215 33.28C302.935 33 302.551 32.86 302.063 32.86C301.823 32.86 301.611 32.892 301.427 32.956C301.251 33.02 301.095 33.104 300.959 33.208L300.179 31.864L303.059 29.896L302.951 29.692H299.183V28.24H304.907V29.992L301.943 31.96L301.019 31.792C301.171 31.744 301.335 31.708 301.511 31.684C301.687 31.652 301.879 31.636 302.087 31.636C302.751 31.636 303.319 31.752 303.791 31.984C304.271 32.208 304.639 32.52 304.895 32.92C305.151 33.32 305.279 33.78 305.279 34.3V34.456C305.279 34.96 305.151 35.424 304.895 35.848C304.639 36.264 304.271 36.6 303.791 36.856C303.311 37.104 302.731 37.228 302.051 37.228ZM306.671 37V35.32C306.671 34.952 306.727 34.632 306.839 34.36C306.959 34.088 307.151 33.848 307.415 33.64C307.687 33.424 308.043 33.22 308.483 33.028L309.971 32.368C310.339 32.2 310.619 31.996 310.811 31.756C311.011 31.508 311.111 31.192 311.111 30.808C311.111 30.384 310.983 30.048 310.727 29.8C310.479 29.544 310.123 29.416 309.659 29.416C309.195 29.416 308.835 29.544 308.579 29.8C308.331 30.056 308.207 30.412 308.207 30.868H306.563C306.563 30.324 306.679 29.836 306.911 29.404C307.143 28.964 307.487 28.62 307.943 28.372C308.399 28.116 308.971 27.988 309.659 27.988C310.347 27.988 310.919 28.112 311.375 28.36C311.831 28.608 312.175 28.94 312.407 29.356C312.639 29.764 312.755 30.22 312.755 30.724V30.88C312.755 31.536 312.571 32.084 312.203 32.524C311.835 32.956 311.295 33.332 310.583 33.652L309.095 34.312C308.815 34.432 308.619 34.56 308.507 34.696C308.395 34.824 308.339 35 308.339 35.224V35.992L307.931 35.548H312.791V37H306.671ZM313.87 35.188V33.34L317.302 28L318.586 28.876L315.562 33.604L315.706 33.844H321.082V35.188H313.87ZM318.454 37V30.724H320.026V37H318.454ZM325.235 37.228C324.547 37.228 323.955 37.092 323.459 36.82C322.971 36.548 322.595 36.188 322.331 35.74C322.075 35.284 321.947 34.788 321.947 34.252H323.591C323.591 34.556 323.659 34.824 323.795 35.056C323.939 35.288 324.135 35.472 324.383 35.608C324.631 35.736 324.919 35.8 325.247 35.8C325.591 35.8 325.887 35.728 326.135 35.584C326.383 35.44 326.571 35.244 326.699 34.996C326.835 34.748 326.903 34.464 326.903 34.144C326.903 33.832 326.835 33.552 326.699 33.304C326.571 33.048 326.383 32.848 326.135 32.704C325.895 32.552 325.603 32.476 325.259 32.476C324.971 32.476 324.699 32.532 324.443 32.644C324.187 32.756 323.987 32.904 323.843 33.088H322.271L322.715 28.24H327.791V29.692H323.459L324.059 29.224L323.771 32.248L323.363 32.128C323.595 31.864 323.879 31.644 324.215 31.468C324.551 31.292 324.975 31.204 325.487 31.204C326.135 31.204 326.687 31.336 327.143 31.6C327.599 31.864 327.947 32.216 328.187 32.656C328.427 33.088 328.547 33.56 328.547 34.072V34.228C328.547 34.748 328.419 35.236 328.163 35.692C327.907 36.148 327.531 36.52 327.035 36.808C326.547 37.088 325.947 37.228 325.235 37.228Z" fill="white"/>
<circle opacity="0.5" cx="248" cy="210" r="96" fill="#6F45E9"/>
<circle cx="313" cy="164" r="80.5" stroke="#FDC228"/>
<circle opacity="0.5" cx="72" cy="26" r="95.5" stroke="#6F45E9"/>
<path d="M34.208 151.048V150.016H36.656C37.128 150.016 37.492 149.884 37.748 149.62C38.012 149.348 38.144 148.988 38.144 148.54C38.144 148.084 38.016 147.728 37.76 147.472C37.504 147.208 37.136 147.076 36.656 147.076H34.208V146.308H36.488C37.048 146.308 37.54 146.376 37.964 146.512C38.396 146.648 38.732 146.876 38.972 147.196C39.22 147.508 39.344 147.936 39.344 148.48V148.648C39.344 149.16 39.24 149.596 39.032 149.956C38.824 150.308 38.508 150.58 38.084 150.772C37.66 150.956 37.128 151.048 36.488 151.048H34.208ZM33.272 151.048V142.192H34.448V151.048H33.272ZM34.208 146.86V146.092H36.332C36.828 146.092 37.192 145.96 37.424 145.696C37.664 145.424 37.784 145.08 37.784 144.664C37.784 144.24 37.664 143.896 37.424 143.632C37.192 143.36 36.828 143.224 36.332 143.224H34.208V142.192H36.128C37.088 142.192 37.804 142.396 38.276 142.804C38.748 143.204 38.984 143.784 38.984 144.544V144.712C38.984 145.248 38.864 145.676 38.624 145.996C38.384 146.308 38.048 146.532 37.616 146.668C37.192 146.796 36.696 146.86 36.128 146.86H34.208ZM45.1363 151V149.08H44.9443V146.86C44.9443 146.42 44.8283 146.088 44.5963 145.864C44.3723 145.64 44.0403 145.528 43.6003 145.528C43.3523 145.528 43.0963 145.532 42.8323 145.54C42.5683 145.548 42.3163 145.556 42.0763 145.564C41.8363 145.572 41.6283 145.584 41.4523 145.6V144.592C41.6283 144.576 41.8123 144.564 42.0043 144.556C42.2043 144.54 42.4083 144.532 42.6163 144.532C42.8243 144.524 43.0243 144.52 43.2163 144.52C43.8723 144.52 44.4083 144.6 44.8243 144.76C45.2403 144.912 45.5483 145.164 45.7483 145.516C45.9483 145.868 46.0483 146.344 46.0483 146.944V151H45.1363ZM43.0363 151.168C42.5563 151.168 42.1403 151.088 41.7883 150.928C41.4443 150.76 41.1763 150.52 40.9843 150.208C40.8003 149.896 40.7083 149.52 40.7083 149.08C40.7083 148.624 40.8083 148.244 41.0083 147.94C41.2163 147.636 41.5163 147.408 41.9083 147.256C42.3003 147.096 42.7723 147.016 43.3242 147.016H45.0643V147.88H43.2763C42.8123 147.88 42.4563 147.992 42.2083 148.216C41.9603 148.44 41.8363 148.728 41.8363 149.08C41.8363 149.432 41.9603 149.716 42.2083 149.932C42.4563 150.148 42.8123 150.256 43.2763 150.256C43.5483 150.256 43.8083 150.208 44.0563 150.112C44.3043 150.008 44.5083 149.84 44.6683 149.608C44.8363 149.368 44.9283 149.04 44.9443 148.624L45.2563 149.08C45.2163 149.536 45.1043 149.92 44.9203 150.232C44.7443 150.536 44.4963 150.768 44.1763 150.928C43.8643 151.088 43.4843 151.168 43.0363 151.168ZM48.2346 151V142.24H49.3866V151H48.2346ZM47.3466 143.152V142.24H49.3866V143.152H47.3466ZM55.4722 151V149.08H55.2802V146.86C55.2802 146.42 55.1642 146.088 54.9322 145.864C54.7082 145.64 54.3762 145.528 53.9362 145.528C53.6882 145.528 53.4322 145.532 53.1682 145.54C52.9042 145.548 52.6522 145.556 52.4122 145.564C52.1722 145.572 51.9642 145.584 51.7882 145.6V144.592C51.9642 144.576 52.1482 144.564 52.3402 144.556C52.5402 144.54 52.7442 144.532 52.9522 144.532C53.1602 144.524 53.3602 144.52 53.5522 144.52C54.2082 144.52 54.7442 144.6 55.1602 144.76C55.5762 144.912 55.8842 145.164 56.0842 145.516C56.2842 145.868 56.3842 146.344 56.3842 146.944V151H55.4722ZM53.3722 151.168C52.8922 151.168 52.4762 151.088 52.1242 150.928C51.7802 150.76 51.5122 150.52 51.3202 150.208C51.1362 149.896 51.0442 149.52 51.0442 149.08C51.0442 148.624 51.1442 148.244 51.3442 147.94C51.5522 147.636 51.8522 147.408 52.2442 147.256C52.6362 147.096 53.1082 147.016 53.6602 147.016H55.4002V147.88H53.6122C53.1482 147.88 52.7922 147.992 52.5442 148.216C52.2962 148.44 52.1722 148.728 52.1722 149.08C52.1722 149.432 52.2962 149.716 52.5442 149.932C52.7922 150.148 53.1482 150.256 53.6122 150.256C53.8842 150.256 54.1442 150.208 54.3922 150.112C54.6402 150.008 54.8442 149.84 55.0042 149.608C55.1722 149.368 55.2642 149.04 55.2802 148.624L55.5922 149.08C55.5522 149.536 55.4402 149.92 55.2562 150.232C55.0802 150.536 54.8322 150.768 54.5122 150.928C54.2002 151.088 53.8202 151.168 53.3722 151.168ZM58.4985 151V144.592H59.4105V147.34H59.2665C59.2665 146.708 59.3505 146.176 59.5185 145.744C59.6945 145.304 59.9585 144.972 60.3105 144.748C60.6625 144.516 61.1065 144.4 61.6425 144.4H61.6905C62.4985 144.4 63.0945 144.652 63.4785 145.156C63.8705 145.66 64.0665 146.388 64.0665 147.34V151H62.9145V147.1C62.9145 146.604 62.7745 146.208 62.4945 145.912C62.2145 145.608 61.8305 145.456 61.3425 145.456C60.8385 145.456 60.4305 145.612 60.1185 145.924C59.8065 146.236 59.6505 146.652 59.6505 147.172V151H58.4985ZM68.9223 151.216C68.3703 151.216 67.8903 151.12 67.4823 150.928C67.0823 150.736 66.7503 150.48 66.4863 150.16C66.2223 149.832 66.0223 149.472 65.8863 149.08C65.7583 148.688 65.6943 148.296 65.6943 147.904V147.688C65.6943 147.28 65.7583 146.88 65.8863 146.488C66.0223 146.096 66.2223 145.744 66.4863 145.432C66.7583 145.112 67.0943 144.856 67.4943 144.664C67.8943 144.472 68.3623 144.376 68.8983 144.376C69.4343 144.376 69.9143 144.476 70.3383 144.676C70.7703 144.876 71.1143 145.16 71.3703 145.528C71.6343 145.888 71.7823 146.316 71.8143 146.812H70.7103C70.6543 146.412 70.4703 146.08 70.1583 145.816C69.8463 145.544 69.4263 145.408 68.8983 145.408C68.4423 145.408 68.0623 145.512 67.7583 145.72C67.4543 145.928 67.2263 146.212 67.0743 146.572C66.9223 146.932 66.8463 147.34 66.8463 147.796C66.8463 148.236 66.9223 148.64 67.0743 149.008C67.2263 149.368 67.4543 149.656 67.7583 149.872C68.0703 150.08 68.4583 150.184 68.9223 150.184C69.2823 150.184 69.5943 150.12 69.8583 149.992C70.1223 149.864 70.3343 149.692 70.4943 149.476C70.6543 149.26 70.7503 149.016 70.7823 148.744H71.8863C71.8623 149.248 71.7143 149.684 71.4423 150.052C71.1783 150.42 70.8263 150.708 70.3863 150.916C69.9543 151.116 69.4663 151.216 68.9223 151.216ZM76.1757 151.216C75.6157 151.216 75.1317 151.12 74.7237 150.928C74.3157 150.736 73.9837 150.484 73.7277 150.172C73.4717 149.852 73.2797 149.496 73.1517 149.104C73.0317 148.712 72.9717 148.312 72.9717 147.904V147.688C72.9717 147.272 73.0317 146.868 73.1517 146.476C73.2797 146.084 73.4717 145.732 73.7277 145.42C73.9837 145.1 74.3077 144.848 74.6997 144.664C75.0997 144.472 75.5677 144.376 76.1037 144.376C76.7997 144.376 77.3717 144.528 77.8197 144.832C78.2757 145.128 78.6117 145.512 78.8277 145.984C79.0517 146.456 79.1637 146.96 79.1637 147.496V148.012H73.4757V147.148H78.3237L78.0597 147.616C78.0597 147.16 77.9877 146.768 77.8437 146.44C77.6997 146.104 77.4837 145.844 77.1957 145.66C76.9077 145.476 76.5437 145.384 76.1037 145.384C75.6477 145.384 75.2677 145.488 74.9637 145.696C74.6677 145.904 74.4437 146.188 74.2917 146.548C74.1477 146.908 74.0757 147.324 74.0757 147.796C74.0757 148.252 74.1477 148.664 74.2917 149.032C74.4437 149.392 74.6757 149.68 74.9877 149.896C75.2997 150.104 75.6957 150.208 76.1757 150.208C76.6797 150.208 77.0877 150.096 77.3997 149.872C77.7197 149.648 77.9117 149.388 77.9757 149.092H79.0557C78.9677 149.532 78.7917 149.912 78.5277 150.232C78.2637 150.552 77.9317 150.796 77.5317 150.964C77.1317 151.132 76.6797 151.216 76.1757 151.216Z" fill="#E6DDFF"/>
<path d="M38.9144 179.063C37.5984 179.063 36.4924 178.867 35.5964 178.475C34.7144 178.069 34.0424 177.502 33.5804 176.774C33.1324 176.032 32.9084 175.157 32.9084 174.149H35.5964C35.5964 174.583 35.7084 174.996 35.9324 175.388C36.1564 175.78 36.5064 176.102 36.9824 176.354C37.4724 176.592 38.1164 176.711 38.9144 176.711C39.9644 176.711 40.7624 176.508 41.3084 176.102C41.8544 175.696 42.1274 175.192 42.1274 174.59C42.1274 174.044 41.8894 173.589 41.4134 173.225C40.9514 172.861 40.2304 172.637 39.2504 172.553L38.0744 172.448C36.6324 172.308 35.4844 171.874 34.6304 171.146C33.7764 170.404 33.3494 169.354 33.3494 167.996C33.3494 167.058 33.5594 166.267 33.9794 165.623C34.4134 164.979 35.0294 164.496 35.8274 164.174C36.6394 163.838 37.5984 163.67 38.7044 163.67C39.8524 163.67 40.8254 163.859 41.6234 164.237C42.4354 164.615 43.0514 165.161 43.4714 165.875C43.9054 166.575 44.1224 167.429 44.1224 168.437H41.4344C41.4344 168.003 41.3294 167.604 41.1194 167.24C40.9234 166.876 40.6224 166.582 40.2164 166.358C39.8244 166.134 39.3204 166.022 38.7044 166.022C38.1444 166.022 37.6684 166.106 37.2764 166.274C36.8844 166.442 36.5834 166.673 36.3734 166.967C36.1634 167.261 36.0584 167.604 36.0584 167.996C36.0584 168.486 36.2334 168.92 36.5834 169.298C36.9474 169.676 37.5284 169.9 38.3264 169.97L39.5024 170.075C41.1124 170.215 42.4004 170.663 43.3664 171.419C44.3464 172.175 44.8364 173.232 44.8364 174.59C44.8364 175.528 44.5984 176.333 44.1224 177.005C43.6604 177.663 42.9884 178.174 42.1064 178.538C41.2244 178.888 40.1604 179.063 38.9144 179.063ZM37.6334 181.709V178.643H40.0694V181.709H37.6334ZM37.5494 164.699V161.633H39.9854V164.699H37.5494ZM47.0911 179V176.06C47.0911 175.416 47.1891 174.856 47.3851 174.38C47.5951 173.904 47.9311 173.484 48.3931 173.12C48.8691 172.742 49.4921 172.385 50.2621 172.049L52.8661 170.894C53.5101 170.6 54.0001 170.243 54.3361 169.823C54.6861 169.389 54.8611 168.836 54.8611 168.164C54.8611 167.422 54.6371 166.834 54.1891 166.4C53.7551 165.952 53.1321 165.728 52.3201 165.728C51.5081 165.728 50.8781 165.952 50.4301 166.4C49.9961 166.848 49.7791 167.471 49.7791 168.269H46.9021C46.9021 167.317 47.1051 166.463 47.5111 165.707C47.9171 164.937 48.5191 164.335 49.3171 163.901C50.1151 163.453 51.1161 163.229 52.3201 163.229C53.5241 163.229 54.5251 163.446 55.3231 163.88C56.1211 164.314 56.7231 164.895 57.1291 165.623C57.5351 166.337 57.7381 167.135 57.7381 168.017V168.29C57.7381 169.438 57.4161 170.397 56.7721 171.167C56.1281 171.923 55.1831 172.581 53.9371 173.141L51.3331 174.296C50.8431 174.506 50.5001 174.73 50.3041 174.968C50.1081 175.192 50.0101 175.5 50.0101 175.892V177.236L49.2961 176.459H57.8011V179H47.0911ZM61.4331 182.486L59.1651 181.625L61.3071 175.535L63.7431 176.438L61.4331 182.486ZM70.9577 179.399C69.7817 179.399 68.7667 179.175 67.9127 178.727C67.0727 178.279 66.4287 177.684 65.9807 176.942C65.5327 176.186 65.3087 175.346 65.3087 174.422H68.1857C68.1857 175.164 68.4307 175.766 68.9207 176.228C69.4247 176.676 70.1037 176.9 70.9577 176.9C71.5317 176.9 72.0217 176.795 72.4277 176.585C72.8477 176.361 73.1697 176.06 73.3937 175.682C73.6177 175.29 73.7297 174.842 73.7297 174.338C73.7297 173.582 73.4847 172.966 72.9947 172.49C72.5047 172 71.8327 171.755 70.9787 171.755C70.5587 171.755 70.1877 171.811 69.8657 171.923C69.5577 172.035 69.2847 172.182 69.0467 172.364L67.6817 170.012L72.7217 166.568L72.5327 166.211H65.9387V163.67H75.9557V166.736L70.7687 170.18L69.1517 169.886C69.4177 169.802 69.7047 169.739 70.0127 169.697C70.3207 169.641 70.6567 169.613 71.0207 169.613C72.1827 169.613 73.1767 169.816 74.0027 170.222C74.8427 170.614 75.4867 171.16 75.9347 171.86C76.3827 172.56 76.6067 173.365 76.6067 174.275V174.548C76.6067 175.43 76.3827 176.242 75.9347 176.984C75.4867 177.712 74.8427 178.3 74.0027 178.748C73.1627 179.182 72.1477 179.399 70.9577 179.399ZM84.4602 179.399C83.2562 179.399 82.2202 179.161 81.3522 178.685C80.4982 178.209 79.8402 177.579 79.3782 176.795C78.9302 175.997 78.7062 175.129 78.7062 174.191H81.5832C81.5832 174.723 81.7022 175.192 81.9402 175.598C82.1922 176.004 82.5352 176.326 82.9692 176.564C83.4032 176.788 83.9072 176.9 84.4812 176.9C85.0832 176.9 85.6012 176.774 86.0352 176.522C86.4692 176.27 86.7982 175.927 87.0222 175.493C87.2602 175.059 87.3792 174.562 87.3792 174.002C87.3792 173.456 87.2602 172.966 87.0222 172.532C86.7982 172.084 86.4692 171.734 86.0352 171.482C85.6152 171.216 85.1042 171.083 84.5022 171.083C83.9982 171.083 83.5222 171.181 83.0742 171.377C82.6262 171.573 82.2762 171.832 82.0242 172.154H79.2732L80.0502 163.67H88.9332V166.211H81.3522L82.4022 165.392L81.8982 170.684L81.1842 170.474C81.5902 170.012 82.0872 169.627 82.6752 169.319C83.2632 169.011 84.0052 168.857 84.9012 168.857C86.0352 168.857 87.0012 169.088 87.7992 169.55C88.5972 170.012 89.2062 170.628 89.6262 171.398C90.0462 172.154 90.2562 172.98 90.2562 173.876V174.149C90.2562 175.059 90.0322 175.913 89.5842 176.711C89.1362 177.509 88.4782 178.16 87.6102 178.664C86.7562 179.154 85.7062 179.399 84.4602 179.399ZM91.8463 175.829V172.595L97.8523 163.25L100.099 164.783L94.8073 173.057L95.0593 173.477H104.467V175.829H91.8463ZM99.8683 179V168.017H102.619V179H99.8683Z" fill="white"/>
<path d="M308 181C309.061 181 310.078 181.421 310.828 182.172C311.579 182.922 312 183.939 312 185H308V181ZM308 174C314.075 174 319 178.925 319 185H317C317 182.613 316.052 180.324 314.364 178.636C312.676 176.948 310.387 176 308 176V174ZM308 167C317.941 167 326 175.059 326 185H324C324 176.163 316.837 169 308 169V167Z" fill="white"/>
</g>
</g>
<defs>
<filter id="filter0_d_119_838" x="-8" y="0" width="377" height="244" filterUnits="userSpaceOnUse" color-interpolation-filters="sRGB">
<feFlood flood-opacity="0" result="BackgroundImageFix"/>
<feColorMatrix in="SourceAlpha" type="matrix" values="0 0 0 0 0 0 0 0 0 0 0 0 0 0 0 0 0 0 127 0" result="hardAlpha"/>
<feOffset dy="16"/>
<feGaussianBlur stdDeviation="12"/>
<feComposite in2="hardAlpha" operator="out"/>
<feColorMatrix type="matrix" values="0 0 0 0 0 0 0 0 0 0 0 0 0 0 0 0 0 0 0.2 0"/>
<feBlend mode="normal" in2="BackgroundImageFix" result="effect1_dropShadow_119_838"/>
<feBlend mode="normal" in="SourceGraphic" in2="effect1_dropShadow_119_838" result="shape"/>
</filter>
<clipPath id="clip0_119_838">
<rect x="16" y="8" width="329" height="196" rx="16" fill="white"/>
</clipPath>
</defs>
</svg>
