<svg width="360" height="332" viewBox="0 0 360 332" fill="none" xmlns="http://www.w3.org/2000/svg">
<g filter="url(#filter0_d_119_475)">
<g clip-path="url(#clip0_119_475)">
<rect x="16" y="8" width="328" height="164" rx="16" fill="#E6DDFF"/>
<path d="M32.6789 33L35.6669 24.24H38.4509L41.5229 33H39.7709L37.1669 25.404L37.7789 25.668H36.2789L36.9029 25.404L34.3829 33H32.6789ZM34.7669 30.672L35.3069 29.232H38.8589L39.3869 30.672H34.7669ZM46.5201 33.216C45.9841 33.216 45.5121 33.104 45.1041 32.88C44.6961 32.648 44.3761 32.312 44.1441 31.872C43.9121 31.432 43.7841 30.9 43.7601 30.276H44.0121V33H42.6921V24.24H44.3601V28.62L43.9161 29.304C43.9481 28.632 44.0801 28.072 44.3121 27.624C44.5521 27.176 44.8721 26.84 45.2721 26.616C45.6721 26.392 46.1241 26.28 46.6281 26.28C47.0761 26.28 47.4841 26.364 47.8521 26.532C48.2201 26.7 48.5361 26.936 48.8001 27.24C49.0641 27.536 49.2641 27.884 49.4001 28.284C49.5441 28.684 49.6161 29.12 49.6161 29.592V29.844C49.6161 30.316 49.5441 30.756 49.4001 31.164C49.2561 31.572 49.0481 31.932 48.7761 32.244C48.5041 32.548 48.1761 32.788 47.7921 32.964C47.4161 33.132 46.9921 33.216 46.5201 33.216ZM46.1481 31.812C46.5081 31.812 46.8201 31.724 47.0841 31.548C47.3561 31.364 47.5681 31.116 47.7201 30.804C47.8721 30.492 47.9481 30.132 47.9481 29.724C47.9481 29.308 47.8721 28.948 47.7201 28.644C47.5681 28.34 47.3561 28.104 47.0841 27.936C46.8201 27.768 46.5081 27.684 46.1481 27.684C45.8201 27.684 45.5161 27.756 45.2361 27.9C44.9641 28.044 44.7401 28.256 44.5641 28.536C44.3961 28.816 44.3121 29.152 44.3121 29.544V30.024C44.3121 30.4 44.4001 30.72 44.5761 30.984C44.7521 31.248 44.9801 31.452 45.2601 31.596C45.5401 31.74 45.8361 31.812 46.1481 31.812ZM53.7828 33.216C53.3268 33.216 52.9068 33.132 52.5228 32.964C52.1388 32.796 51.8068 32.56 51.5268 32.256C51.2468 31.952 51.0308 31.6 50.8788 31.2C50.7268 30.792 50.6508 30.352 50.6508 29.88V29.628C50.6508 29.164 50.7228 28.728 50.8668 28.32C51.0188 27.912 51.2268 27.556 51.4908 27.252C51.7628 26.948 52.0868 26.712 52.4628 26.544C52.8468 26.368 53.2708 26.28 53.7348 26.28C54.2468 26.28 54.6948 26.392 55.0788 26.616C55.4708 26.832 55.7828 27.16 56.0148 27.6C56.2468 28.04 56.3748 28.592 56.3988 29.256L55.9068 28.68V24.24H57.5748V33H56.2548V30.228H56.5428C56.5188 30.892 56.3828 31.448 56.1348 31.896C55.8868 32.336 55.5588 32.668 55.1508 32.892C54.7508 33.108 54.2948 33.216 53.7828 33.216ZM54.1548 31.812C54.4828 31.812 54.7828 31.74 55.0548 31.596C55.3268 31.444 55.5428 31.228 55.7028 30.948C55.8708 30.66 55.9548 30.324 55.9548 29.94V29.46C55.9548 29.076 55.8708 28.756 55.7028 28.5C55.5348 28.236 55.3148 28.036 55.0428 27.9C54.7708 27.756 54.4748 27.684 54.1548 27.684C53.7948 27.684 53.4748 27.772 53.1948 27.948C52.9228 28.116 52.7068 28.356 52.5468 28.668C52.3948 28.98 52.3188 29.344 52.3188 29.76C52.3188 30.176 52.3988 30.54 52.5588 30.852C52.7188 31.156 52.9348 31.392 53.2068 31.56C53.4868 31.728 53.8028 31.812 54.1548 31.812ZM61.6934 33.204C60.9414 33.204 60.3574 32.956 59.9414 32.46C59.5334 31.964 59.3294 31.228 59.3294 30.252V26.472H60.9974V30.396C60.9974 30.796 61.1094 31.116 61.3334 31.356C61.5574 31.588 61.8614 31.704 62.2454 31.704C62.6294 31.704 62.9414 31.58 63.1814 31.332C63.4294 31.084 63.5534 30.748 63.5534 30.324V26.472H65.2214V33H63.9014V30.228H64.0334C64.0334 30.884 63.9494 31.432 63.7814 31.872C63.6134 32.312 63.3614 32.644 63.0254 32.868C62.6894 33.092 62.2694 33.204 61.7654 33.204H61.6934ZM67.2215 33V24.24H68.8895V33H67.2215ZM66.4055 25.488V24.24H68.8895V25.488H66.4055ZM70.8777 33V24.24H72.5457V33H70.8777ZM70.0617 25.488V24.24H72.5457V25.488H70.0617ZM78.398 33V31.068H78.122V28.92C78.122 28.544 78.03 28.264 77.846 28.08C77.662 27.896 77.378 27.804 76.994 27.804C76.794 27.804 76.554 27.808 76.274 27.816C75.994 27.824 75.71 27.836 75.422 27.852C75.142 27.86 74.89 27.872 74.666 27.888V26.472C74.85 26.456 75.058 26.44 75.29 26.424C75.522 26.408 75.758 26.4 75.998 26.4C76.246 26.392 76.478 26.388 76.694 26.388C77.366 26.388 77.922 26.476 78.362 26.652C78.81 26.828 79.146 27.104 79.37 27.48C79.602 27.856 79.718 28.348 79.718 28.956V33H78.398ZM76.298 33.168C75.826 33.168 75.41 33.084 75.05 32.916C74.698 32.748 74.422 32.508 74.222 32.196C74.03 31.884 73.934 31.508 73.934 31.068C73.934 30.588 74.05 30.196 74.282 29.892C74.522 29.588 74.854 29.36 75.278 29.208C75.71 29.056 76.214 28.98 76.79 28.98H78.302V29.976H76.766C76.382 29.976 76.086 30.072 75.878 30.264C75.678 30.448 75.578 30.688 75.578 30.984C75.578 31.28 75.678 31.52 75.878 31.704C76.086 31.888 76.382 31.98 76.766 31.98C76.998 31.98 77.21 31.94 77.402 31.86C77.602 31.772 77.766 31.628 77.894 31.428C78.03 31.22 78.106 30.94 78.122 30.588L78.53 31.056C78.49 31.512 78.378 31.896 78.194 32.208C78.018 32.52 77.77 32.76 77.45 32.928C77.138 33.088 76.754 33.168 76.298 33.168ZM81.5046 33V24.24H83.1726V29.352H82.8846C82.8846 28.696 82.9686 28.14 83.1366 27.684C83.3046 27.228 83.5526 26.88 83.8806 26.64C84.2166 26.4 84.6406 26.28 85.1526 26.28H85.2246C85.9686 26.28 86.5326 26.536 86.9166 27.048C87.3006 27.56 87.4926 28.304 87.4926 29.28V33H85.8246V29.124C85.8246 28.708 85.7046 28.38 85.4646 28.14C85.2326 27.9 84.9246 27.78 84.5406 27.78C84.1326 27.78 83.8006 27.916 83.5446 28.188C83.2966 28.452 83.1726 28.8 83.1726 29.232V33H81.5046ZM96.0877 33.228C95.3357 33.228 94.6717 33.104 94.0957 32.856C93.5277 32.6 93.0477 32.26 92.6557 31.836C92.2717 31.404 91.9797 30.92 91.7797 30.384C91.5877 29.84 91.4917 29.276 91.4917 28.692V28.428C91.4917 27.876 91.5877 27.336 91.7797 26.808C91.9717 26.28 92.2517 25.804 92.6197 25.38C92.9957 24.956 93.4557 24.62 93.9997 24.372C94.5517 24.116 95.1837 23.988 95.8957 23.988C96.6637 23.988 97.3437 24.132 97.9357 24.42C98.5277 24.7 99.0037 25.096 99.3637 25.608C99.7237 26.112 99.9357 26.7 99.9997 27.372H98.2837C98.2277 26.996 98.0877 26.676 97.8637 26.412C97.6397 26.14 97.3557 25.932 97.0117 25.788C96.6757 25.644 96.3037 25.572 95.8957 25.572C95.4877 25.572 95.1157 25.644 94.7797 25.788C94.4517 25.932 94.1717 26.136 93.9397 26.4C93.7077 26.664 93.5277 26.98 93.3997 27.348C93.2797 27.716 93.2197 28.124 93.2197 28.572C93.2197 29.06 93.2877 29.496 93.4237 29.88C93.5597 30.264 93.7517 30.592 93.9997 30.864C94.2477 31.128 94.5477 31.332 94.8997 31.476C95.2517 31.612 95.6477 31.68 96.0877 31.68C96.6717 31.68 97.1837 31.56 97.6237 31.32C98.0637 31.072 98.3837 30.752 98.5837 30.36L98.2837 31.74V29.484H99.8557V31.428C99.4797 31.996 98.9677 32.44 98.3197 32.76C97.6717 33.072 96.9277 33.228 96.0877 33.228ZM95.8117 29.82V28.548H100.588V29.82H95.8117ZM101.86 33V24.24H103.528V29.352H103.24C103.24 28.696 103.324 28.14 103.492 27.684C103.66 27.228 103.908 26.88 104.236 26.64C104.572 26.4 104.996 26.28 105.508 26.28H105.58C106.324 26.28 106.888 26.536 107.272 27.048C107.656 27.56 107.848 28.304 107.848 29.28V33H106.18V29.124C106.18 28.708 106.06 28.38 105.82 28.14C105.588 27.9 105.28 27.78 104.896 27.78C104.488 27.78 104.156 27.916 103.9 28.188C103.652 28.452 103.528 28.8 103.528 29.232V33H101.86ZM113.589 33V31.068H113.313V28.92C113.313 28.544 113.221 28.264 113.037 28.08C112.853 27.896 112.569 27.804 112.185 27.804C111.985 27.804 111.745 27.808 111.465 27.816C111.185 27.824 110.901 27.836 110.613 27.852C110.333 27.86 110.081 27.872 109.857 27.888V26.472C110.041 26.456 110.249 26.44 110.481 26.424C110.713 26.408 110.949 26.4 111.189 26.4C111.437 26.392 111.669 26.388 111.885 26.388C112.557 26.388 113.113 26.476 113.553 26.652C114.001 26.828 114.337 27.104 114.561 27.48C114.793 27.856 114.909 28.348 114.909 28.956V33H113.589ZM111.489 33.168C111.017 33.168 110.601 33.084 110.241 32.916C109.889 32.748 109.613 32.508 109.413 32.196C109.221 31.884 109.125 31.508 109.125 31.068C109.125 30.588 109.241 30.196 109.473 29.892C109.713 29.588 110.045 29.36 110.469 29.208C110.901 29.056 111.405 28.98 111.981 28.98H113.493V29.976H111.957C111.573 29.976 111.277 30.072 111.069 30.264C110.869 30.448 110.769 30.688 110.769 30.984C110.769 31.28 110.869 31.52 111.069 31.704C111.277 31.888 111.573 31.98 111.957 31.98C112.189 31.98 112.401 31.94 112.593 31.86C112.793 31.772 112.957 31.628 113.085 31.428C113.221 31.22 113.297 30.94 113.313 30.588L113.721 31.056C113.681 31.512 113.569 31.896 113.385 32.208C113.209 32.52 112.961 32.76 112.641 32.928C112.329 33.088 111.945 33.168 111.489 33.168ZM119.528 33.084C118.928 33.084 118.432 33.008 118.04 32.856C117.656 32.696 117.368 32.432 117.176 32.064C116.984 31.688 116.888 31.184 116.888 30.552L116.9 24.648H118.46L118.448 30.66C118.448 30.98 118.532 31.228 118.7 31.404C118.876 31.572 119.124 31.656 119.444 31.656H120.464V33.084H119.528ZM115.856 27.708V26.484H120.464V27.708H115.856ZM125.789 33V31.068H125.513V28.92C125.513 28.544 125.421 28.264 125.237 28.08C125.053 27.896 124.769 27.804 124.385 27.804C124.185 27.804 123.945 27.808 123.665 27.816C123.385 27.824 123.101 27.836 122.813 27.852C122.533 27.86 122.281 27.872 122.057 27.888V26.472C122.241 26.456 122.449 26.44 122.681 26.424C122.913 26.408 123.149 26.4 123.389 26.4C123.637 26.392 123.869 26.388 124.085 26.388C124.757 26.388 125.313 26.476 125.753 26.652C126.201 26.828 126.537 27.104 126.761 27.48C126.993 27.856 127.109 28.348 127.109 28.956V33H125.789ZM123.689 33.168C123.217 33.168 122.801 33.084 122.441 32.916C122.089 32.748 121.813 32.508 121.613 32.196C121.421 31.884 121.325 31.508 121.325 31.068C121.325 30.588 121.441 30.196 121.673 29.892C121.913 29.588 122.245 29.36 122.669 29.208C123.101 29.056 123.605 28.98 124.181 28.98H125.693V29.976H124.157C123.773 29.976 123.477 30.072 123.269 30.264C123.069 30.448 122.969 30.688 122.969 30.984C122.969 31.28 123.069 31.52 123.269 31.704C123.477 31.888 123.773 31.98 124.157 31.98C124.389 31.98 124.601 31.94 124.793 31.86C124.993 31.772 125.157 31.628 125.285 31.428C125.421 31.22 125.497 30.94 125.513 30.588L125.921 31.056C125.881 31.512 125.769 31.896 125.585 32.208C125.409 32.52 125.161 32.76 124.841 32.928C124.529 33.088 124.145 33.168 123.689 33.168ZM131.259 33.204C130.363 33.204 129.659 33.016 129.147 32.64C128.643 32.256 128.379 31.728 128.355 31.056H129.855C129.879 31.28 130.003 31.484 130.227 31.668C130.451 31.852 130.803 31.944 131.283 31.944C131.683 31.944 131.999 31.872 132.231 31.728C132.471 31.584 132.591 31.388 132.591 31.14C132.591 30.924 132.499 30.752 132.315 30.624C132.139 30.496 131.835 30.412 131.403 30.372L130.827 30.312C130.099 30.232 129.539 30.024 129.147 29.688C128.755 29.352 128.559 28.904 128.559 28.344C128.559 27.896 128.671 27.52 128.895 27.216C129.119 26.912 129.427 26.684 129.819 26.532C130.219 26.372 130.675 26.292 131.187 26.292C131.987 26.292 132.635 26.468 133.131 26.82C133.627 27.172 133.887 27.688 133.911 28.368H132.411C132.395 28.144 132.283 27.952 132.075 27.792C131.867 27.632 131.567 27.552 131.175 27.552C130.823 27.552 130.551 27.62 130.359 27.756C130.167 27.892 130.071 28.068 130.071 28.284C130.071 28.492 130.147 28.652 130.299 28.764C130.459 28.876 130.715 28.952 131.067 28.992L131.643 29.052C132.411 29.132 133.011 29.344 133.443 29.688C133.883 30.032 134.103 30.496 134.103 31.08C134.103 31.512 133.983 31.888 133.743 32.208C133.511 32.52 133.183 32.764 132.759 32.94C132.335 33.116 131.835 33.204 131.259 33.204ZM135.481 33V24.24H137.149V29.352H136.861C136.861 28.696 136.945 28.14 137.113 27.684C137.281 27.228 137.529 26.88 137.857 26.64C138.193 26.4 138.617 26.28 139.129 26.28H139.201C139.945 26.28 140.509 26.536 140.893 27.048C141.277 27.56 141.469 28.304 141.469 29.28V33H139.801V29.124C139.801 28.708 139.681 28.38 139.441 28.14C139.209 27.9 138.901 27.78 138.517 27.78C138.109 27.78 137.777 27.916 137.521 28.188C137.273 28.452 137.149 28.8 137.149 29.232V33H135.481ZM146.178 33.228C145.618 33.228 145.126 33.132 144.702 32.94C144.286 32.748 143.938 32.492 143.658 32.172C143.386 31.844 143.178 31.48 143.034 31.08C142.898 30.68 142.83 30.272 142.83 29.856V29.628C142.83 29.196 142.898 28.78 143.034 28.38C143.178 27.972 143.386 27.612 143.658 27.3C143.938 26.98 144.282 26.728 144.69 26.544C145.098 26.352 145.57 26.256 146.106 26.256C146.81 26.256 147.398 26.412 147.87 26.724C148.35 27.028 148.71 27.432 148.95 27.936C149.19 28.432 149.31 28.968 149.31 29.544V30.144H143.538V29.124H148.266L147.75 29.628C147.75 29.212 147.69 28.856 147.57 28.56C147.45 28.264 147.266 28.036 147.018 27.876C146.778 27.716 146.474 27.636 146.106 27.636C145.738 27.636 145.426 27.72 145.17 27.888C144.914 28.056 144.718 28.3 144.582 28.62C144.454 28.932 144.39 29.308 144.39 29.748C144.39 30.156 144.454 30.52 144.582 30.84C144.71 31.152 144.906 31.4 145.17 31.584C145.434 31.76 145.77 31.848 146.178 31.848C146.586 31.848 146.918 31.768 147.174 31.608C147.43 31.44 147.594 31.236 147.666 30.996H149.202C149.106 31.444 148.922 31.836 148.65 32.172C148.378 32.508 148.03 32.768 147.606 32.952C147.19 33.136 146.714 33.228 146.178 33.228ZM150.704 33V24.24H152.372V29.352H152.084C152.084 28.696 152.168 28.14 152.336 27.684C152.504 27.228 152.752 26.88 153.08 26.64C153.416 26.4 153.84 26.28 154.352 26.28H154.424C155.168 26.28 155.732 26.536 156.116 27.048C156.5 27.56 156.692 28.304 156.692 29.28V33H155.024V29.124C155.024 28.708 154.904 28.38 154.664 28.14C154.432 27.9 154.124 27.78 153.74 27.78C153.332 27.78 153 27.916 152.744 28.188C152.496 28.452 152.372 28.8 152.372 29.232V33H150.704Z" fill="#191919"/>
<path d="M276.102 28.596L274.278 27.276V25.98L276.102 24.66L276.762 25.824L275.262 26.448V26.808L276.762 27.432L276.102 28.596ZM274.338 23.616L274.11 25.86L272.982 26.508L270.93 25.584L271.602 24.432L272.898 25.416L273.21 25.236L272.994 23.628L274.338 23.616ZM270.93 27.672L272.982 26.748L274.11 27.396L274.338 29.64L273.006 29.616L273.21 28.02L272.898 27.84L271.602 28.812L270.93 27.672ZM282.934 28.596L281.11 27.276V25.98L282.934 24.66L283.594 25.824L282.094 26.448V26.808L283.594 27.432L282.934 28.596ZM281.17 23.616L280.942 25.86L279.814 26.508L277.762 25.584L278.434 24.432L279.73 25.416L280.042 25.236L279.826 23.628L281.17 23.616ZM277.762 27.672L279.814 26.748L280.942 27.396L281.17 29.64L279.838 29.616L280.042 28.02L279.73 27.84L278.434 28.812L277.762 27.672ZM289.766 28.596L287.942 27.276V25.98L289.766 24.66L290.426 25.824L288.926 26.448V26.808L290.426 27.432L289.766 28.596ZM288.002 23.616L287.774 25.86L286.646 26.508L284.594 25.584L285.266 24.432L286.562 25.416L286.874 25.236L286.658 23.628L288.002 23.616ZM284.594 27.672L286.646 26.748L287.774 27.396L288.002 29.64L286.67 29.616L286.874 28.02L286.562 27.84L285.266 28.812L284.594 27.672ZM296.598 28.596L294.774 27.276V25.98L296.598 24.66L297.258 25.824L295.758 26.448V26.808L297.258 27.432L296.598 28.596ZM294.834 23.616L294.606 25.86L293.478 26.508L291.426 25.584L292.098 24.432L293.394 25.416L293.706 25.236L293.49 23.628L294.834 23.616ZM291.426 27.672L293.478 26.748L294.606 27.396L294.834 29.64L293.502 29.616L293.706 28.02L293.394 27.84L292.098 28.812L291.426 27.672ZM301.124 33V31.32C301.124 30.952 301.18 30.632 301.292 30.36C301.412 30.088 301.604 29.848 301.868 29.64C302.14 29.424 302.496 29.22 302.936 29.028L304.424 28.368C304.792 28.2 305.072 27.996 305.264 27.756C305.464 27.508 305.564 27.192 305.564 26.808C305.564 26.384 305.436 26.048 305.18 25.8C304.932 25.544 304.576 25.416 304.112 25.416C303.648 25.416 303.288 25.544 303.032 25.8C302.784 26.056 302.66 26.412 302.66 26.868H301.016C301.016 26.324 301.132 25.836 301.364 25.404C301.596 24.964 301.94 24.62 302.396 24.372C302.852 24.116 303.424 23.988 304.112 23.988C304.8 23.988 305.372 24.112 305.828 24.36C306.284 24.608 306.628 24.94 306.86 25.356C307.092 25.764 307.208 26.22 307.208 26.724V26.88C307.208 27.536 307.024 28.084 306.656 28.524C306.288 28.956 305.748 29.332 305.036 29.652L303.548 30.312C303.268 30.432 303.072 30.56 302.96 30.696C302.848 30.824 302.792 31 302.792 31.224V31.992L302.384 31.548H307.244V33H301.124ZM311.539 33.228C310.867 33.228 310.287 33.1 309.799 32.844C309.319 32.588 308.951 32.248 308.695 31.824C308.439 31.392 308.311 30.912 308.311 30.384H309.955C309.955 30.808 310.095 31.152 310.375 31.416C310.663 31.672 311.051 31.8 311.539 31.8C311.867 31.8 312.147 31.74 312.379 31.62C312.619 31.492 312.803 31.32 312.931 31.104C313.059 30.88 313.123 30.624 313.123 30.336C313.123 29.904 312.983 29.552 312.703 29.28C312.423 29 312.039 28.86 311.551 28.86C311.311 28.86 311.099 28.892 310.915 28.956C310.739 29.02 310.583 29.104 310.447 29.208L309.667 27.864L312.547 25.896L312.439 25.692H308.671V24.24H314.395V25.992L311.431 27.96L310.507 27.792C310.659 27.744 310.823 27.708 310.999 27.684C311.175 27.652 311.367 27.636 311.575 27.636C312.239 27.636 312.807 27.752 313.279 27.984C313.759 28.208 314.127 28.52 314.383 28.92C314.639 29.32 314.767 29.78 314.767 30.3V30.456C314.767 30.96 314.639 31.424 314.383 31.848C314.127 32.264 313.759 32.6 313.279 32.856C312.799 33.104 312.219 33.228 311.539 33.228ZM317.599 33V25.296L318.127 25.704H315.811V24.24H319.291V33H317.599ZM321.257 33V31.32C321.257 30.952 321.313 30.632 321.425 30.36C321.545 30.088 321.737 29.848 322.001 29.64C322.273 29.424 322.629 29.22 323.069 29.028L324.557 28.368C324.925 28.2 325.205 27.996 325.397 27.756C325.597 27.508 325.697 27.192 325.697 26.808C325.697 26.384 325.569 26.048 325.313 25.8C325.065 25.544 324.709 25.416 324.245 25.416C323.781 25.416 323.421 25.544 323.165 25.8C322.917 26.056 322.793 26.412 322.793 26.868H321.149C321.149 26.324 321.265 25.836 321.497 25.404C321.729 24.964 322.073 24.62 322.529 24.372C322.985 24.116 323.557 23.988 324.245 23.988C324.933 23.988 325.505 24.112 325.961 24.36C326.417 24.608 326.761 24.94 326.993 25.356C327.225 25.764 327.341 26.22 327.341 26.724V26.88C327.341 27.536 327.157 28.084 326.789 28.524C326.421 28.956 325.881 29.332 325.169 29.652L323.681 30.312C323.401 30.432 323.205 30.56 323.093 30.696C322.981 30.824 322.925 31 322.925 31.224V31.992L322.517 31.548H327.377V33H321.257Z" fill="#191919"/>
<path d="M34.208 123.048V122.016H36.656C37.128 122.016 37.492 121.884 37.748 121.62C38.012 121.348 38.144 120.988 38.144 120.54C38.144 120.084 38.016 119.728 37.76 119.472C37.504 119.208 37.136 119.076 36.656 119.076H34.208V118.308H36.488C37.048 118.308 37.54 118.376 37.964 118.512C38.396 118.648 38.732 118.876 38.972 119.196C39.22 119.508 39.344 119.936 39.344 120.48V120.648C39.344 121.16 39.24 121.596 39.032 121.956C38.824 122.308 38.508 122.58 38.084 122.772C37.66 122.956 37.128 123.048 36.488 123.048H34.208ZM33.272 123.048V114.192H34.448V123.048H33.272ZM34.208 118.86V118.092H36.332C36.828 118.092 37.192 117.96 37.424 117.696C37.664 117.424 37.784 117.08 37.784 116.664C37.784 116.24 37.664 115.896 37.424 115.632C37.192 115.36 36.828 115.224 36.332 115.224H34.208V114.192H36.128C37.088 114.192 37.804 114.396 38.276 114.804C38.748 115.204 38.984 115.784 38.984 116.544V116.712C38.984 117.248 38.864 117.676 38.624 117.996C38.384 118.308 38.048 118.532 37.616 118.668C37.192 118.796 36.696 118.86 36.128 118.86H34.208ZM45.1363 123V121.08H44.9443V118.86C44.9443 118.42 44.8283 118.088 44.5963 117.864C44.3723 117.64 44.0403 117.528 43.6003 117.528C43.3523 117.528 43.0963 117.532 42.8323 117.54C42.5683 117.548 42.3163 117.556 42.0763 117.564C41.8363 117.572 41.6283 117.584 41.4523 117.6V116.592C41.6283 116.576 41.8123 116.564 42.0043 116.556C42.2043 116.54 42.4083 116.532 42.6163 116.532C42.8243 116.524 43.0243 116.52 43.2163 116.52C43.8723 116.52 44.4083 116.6 44.8243 116.76C45.2403 116.912 45.5483 117.164 45.7483 117.516C45.9483 117.868 46.0483 118.344 46.0483 118.944V123H45.1363ZM43.0363 123.168C42.5563 123.168 42.1403 123.088 41.7883 122.928C41.4443 122.76 41.1763 122.52 40.9843 122.208C40.8003 121.896 40.7083 121.52 40.7083 121.08C40.7083 120.624 40.8083 120.244 41.0083 119.94C41.2163 119.636 41.5163 119.408 41.9083 119.256C42.3003 119.096 42.7723 119.016 43.3242 119.016H45.0643V119.88H43.2763C42.8123 119.88 42.4563 119.992 42.2083 120.216C41.9603 120.44 41.8363 120.728 41.8363 121.08C41.8363 121.432 41.9603 121.716 42.2083 121.932C42.4563 122.148 42.8123 122.256 43.2763 122.256C43.5483 122.256 43.8083 122.208 44.0563 122.112C44.3043 122.008 44.5083 121.84 44.6683 121.608C44.8363 121.368 44.9283 121.04 44.9443 120.624L45.2563 121.08C45.2163 121.536 45.1043 121.92 44.9203 122.232C44.7443 122.536 44.4963 122.768 44.1763 122.928C43.8643 123.088 43.4843 123.168 43.0363 123.168ZM48.2346 123V114.24H49.3866V123H48.2346ZM47.3466 115.152V114.24H49.3866V115.152H47.3466ZM55.4722 123V121.08H55.2802V118.86C55.2802 118.42 55.1642 118.088 54.9322 117.864C54.7082 117.64 54.3762 117.528 53.9362 117.528C53.6882 117.528 53.4322 117.532 53.1682 117.54C52.9042 117.548 52.6522 117.556 52.4122 117.564C52.1722 117.572 51.9642 117.584 51.7882 117.6V116.592C51.9642 116.576 52.1482 116.564 52.3402 116.556C52.5402 116.54 52.7442 116.532 52.9522 116.532C53.1602 116.524 53.3602 116.52 53.5522 116.52C54.2082 116.52 54.7442 116.6 55.1602 116.76C55.5762 116.912 55.8842 117.164 56.0842 117.516C56.2842 117.868 56.3842 118.344 56.3842 118.944V123H55.4722ZM53.3722 123.168C52.8922 123.168 52.4762 123.088 52.1242 122.928C51.7802 122.76 51.5122 122.52 51.3202 122.208C51.1362 121.896 51.0442 121.52 51.0442 121.08C51.0442 120.624 51.1442 120.244 51.3442 119.94C51.5522 119.636 51.8522 119.408 52.2442 119.256C52.6362 119.096 53.1082 119.016 53.6602 119.016H55.4002V119.88H53.6122C53.1482 119.88 52.7922 119.992 52.5442 120.216C52.2962 120.44 52.1722 120.728 52.1722 121.08C52.1722 121.432 52.2962 121.716 52.5442 121.932C52.7922 122.148 53.1482 122.256 53.6122 122.256C53.8842 122.256 54.1442 122.208 54.3922 122.112C54.6402 122.008 54.8442 121.84 55.0042 121.608C55.1722 121.368 55.2642 121.04 55.2802 120.624L55.5922 121.08C55.5522 121.536 55.4402 121.92 55.2562 122.232C55.0802 122.536 54.8322 122.768 54.5122 122.928C54.2002 123.088 53.8202 123.168 53.3722 123.168ZM58.4985 123V116.592H59.4105V119.34H59.2665C59.2665 118.708 59.3505 118.176 59.5185 117.744C59.6945 117.304 59.9585 116.972 60.3105 116.748C60.6625 116.516 61.1065 116.4 61.6425 116.4H61.6905C62.4985 116.4 63.0945 116.652 63.4785 117.156C63.8705 117.66 64.0665 118.388 64.0665 119.34V123H62.9145V119.1C62.9145 118.604 62.7745 118.208 62.4945 117.912C62.2145 117.608 61.8305 117.456 61.3425 117.456C60.8385 117.456 60.4305 117.612 60.1185 117.924C59.8065 118.236 59.6505 118.652 59.6505 119.172V123H58.4985ZM68.9223 123.216C68.3703 123.216 67.8903 123.12 67.4823 122.928C67.0823 122.736 66.7503 122.48 66.4863 122.16C66.2223 121.832 66.0223 121.472 65.8863 121.08C65.7583 120.688 65.6943 120.296 65.6943 119.904V119.688C65.6943 119.28 65.7583 118.88 65.8863 118.488C66.0223 118.096 66.2223 117.744 66.4863 117.432C66.7583 117.112 67.0943 116.856 67.4943 116.664C67.8943 116.472 68.3623 116.376 68.8983 116.376C69.4343 116.376 69.9143 116.476 70.3383 116.676C70.7703 116.876 71.1143 117.16 71.3703 117.528C71.6343 117.888 71.7823 118.316 71.8143 118.812H70.7103C70.6543 118.412 70.4703 118.08 70.1583 117.816C69.8463 117.544 69.4263 117.408 68.8983 117.408C68.4423 117.408 68.0623 117.512 67.7583 117.72C67.4543 117.928 67.2263 118.212 67.0743 118.572C66.9223 118.932 66.8463 119.34 66.8463 119.796C66.8463 120.236 66.9223 120.64 67.0743 121.008C67.2263 121.368 67.4543 121.656 67.7583 121.872C68.0703 122.08 68.4583 122.184 68.9223 122.184C69.2823 122.184 69.5943 122.12 69.8583 121.992C70.1223 121.864 70.3343 121.692 70.4943 121.476C70.6543 121.26 70.7503 121.016 70.7823 120.744H71.8863C71.8623 121.248 71.7143 121.684 71.4423 122.052C71.1783 122.42 70.8263 122.708 70.3863 122.916C69.9543 123.116 69.4663 123.216 68.9223 123.216ZM76.1757 123.216C75.6157 123.216 75.1317 123.12 74.7237 122.928C74.3157 122.736 73.9837 122.484 73.7277 122.172C73.4717 121.852 73.2797 121.496 73.1517 121.104C73.0317 120.712 72.9717 120.312 72.9717 119.904V119.688C72.9717 119.272 73.0317 118.868 73.1517 118.476C73.2797 118.084 73.4717 117.732 73.7277 117.42C73.9837 117.1 74.3077 116.848 74.6997 116.664C75.0997 116.472 75.5677 116.376 76.1037 116.376C76.7997 116.376 77.3717 116.528 77.8197 116.832C78.2757 117.128 78.6117 117.512 78.8277 117.984C79.0517 118.456 79.1637 118.96 79.1637 119.496V120.012H73.4757V119.148H78.3237L78.0597 119.616C78.0597 119.16 77.9877 118.768 77.8437 118.44C77.6997 118.104 77.4837 117.844 77.1957 117.66C76.9077 117.476 76.5437 117.384 76.1037 117.384C75.6477 117.384 75.2677 117.488 74.9637 117.696C74.6677 117.904 74.4437 118.188 74.2917 118.548C74.1477 118.908 74.0757 119.324 74.0757 119.796C74.0757 120.252 74.1477 120.664 74.2917 121.032C74.4437 121.392 74.6757 121.68 74.9877 121.896C75.2997 122.104 75.6957 122.208 76.1757 122.208C76.6797 122.208 77.0877 122.096 77.3997 121.872C77.7197 121.648 77.9117 121.388 77.9757 121.092H79.0557C78.9677 121.532 78.7917 121.912 78.5277 122.232C78.2637 122.552 77.9317 122.796 77.5317 122.964C77.1317 123.132 76.6797 123.216 76.1757 123.216Z" fill="#E6DDFF"/>
<path d="M38.9144 151.063C37.5984 151.063 36.4924 150.867 35.5964 150.475C34.7144 150.069 34.0424 149.502 33.5804 148.774C33.1324 148.032 32.9084 147.157 32.9084 146.149H35.5964C35.5964 146.583 35.7084 146.996 35.9324 147.388C36.1564 147.78 36.5064 148.102 36.9824 148.354C37.4724 148.592 38.1164 148.711 38.9144 148.711C39.9644 148.711 40.7624 148.508 41.3084 148.102C41.8544 147.696 42.1274 147.192 42.1274 146.59C42.1274 146.044 41.8894 145.589 41.4134 145.225C40.9514 144.861 40.2304 144.637 39.2504 144.553L38.0744 144.448C36.6324 144.308 35.4844 143.874 34.6304 143.146C33.7764 142.404 33.3494 141.354 33.3494 139.996C33.3494 139.058 33.5594 138.267 33.9794 137.623C34.4134 136.979 35.0294 136.496 35.8274 136.174C36.6394 135.838 37.5984 135.67 38.7044 135.67C39.8524 135.67 40.8254 135.859 41.6234 136.237C42.4354 136.615 43.0514 137.161 43.4714 137.875C43.9054 138.575 44.1224 139.429 44.1224 140.437H41.4344C41.4344 140.003 41.3294 139.604 41.1194 139.24C40.9234 138.876 40.6224 138.582 40.2164 138.358C39.8244 138.134 39.3204 138.022 38.7044 138.022C38.1444 138.022 37.6684 138.106 37.2764 138.274C36.8844 138.442 36.5834 138.673 36.3734 138.967C36.1634 139.261 36.0584 139.604 36.0584 139.996C36.0584 140.486 36.2334 140.92 36.5834 141.298C36.9474 141.676 37.5284 141.9 38.3264 141.97L39.5024 142.075C41.1124 142.215 42.4004 142.663 43.3664 143.419C44.3464 144.175 44.8364 145.232 44.8364 146.59C44.8364 147.528 44.5984 148.333 44.1224 149.005C43.6604 149.663 42.9884 150.174 42.1064 150.538C41.2244 150.888 40.1604 151.063 38.9144 151.063ZM37.6334 153.709V150.643H40.0694V153.709H37.6334ZM37.5494 136.699V133.633H39.9854V136.699H37.5494ZM47.0911 151V148.06C47.0911 147.416 47.1891 146.856 47.3851 146.38C47.5951 145.904 47.9311 145.484 48.3931 145.12C48.8691 144.742 49.4921 144.385 50.2621 144.049L52.8661 142.894C53.5101 142.6 54.0001 142.243 54.3361 141.823C54.6861 141.389 54.8611 140.836 54.8611 140.164C54.8611 139.422 54.6371 138.834 54.1891 138.4C53.7551 137.952 53.1321 137.728 52.3201 137.728C51.5081 137.728 50.8781 137.952 50.4301 138.4C49.9961 138.848 49.7791 139.471 49.7791 140.269H46.9021C46.9021 139.317 47.1051 138.463 47.5111 137.707C47.9171 136.937 48.5191 136.335 49.3171 135.901C50.1151 135.453 51.1161 135.229 52.3201 135.229C53.5241 135.229 54.5251 135.446 55.3231 135.88C56.1211 136.314 56.7231 136.895 57.1291 137.623C57.5351 138.337 57.7381 139.135 57.7381 140.017V140.29C57.7381 141.438 57.4161 142.397 56.7721 143.167C56.1281 143.923 55.1831 144.581 53.9371 145.141L51.3331 146.296C50.8431 146.506 50.5001 146.73 50.3041 146.968C50.1081 147.192 50.0101 147.5 50.0101 147.892V149.236L49.2961 148.459H57.8011V151H47.0911ZM61.4331 154.486L59.1651 153.625L61.3071 147.535L63.7431 148.438L61.4331 154.486ZM70.9577 151.399C69.7817 151.399 68.7667 151.175 67.9127 150.727C67.0727 150.279 66.4287 149.684 65.9807 148.942C65.5327 148.186 65.3087 147.346 65.3087 146.422H68.1857C68.1857 147.164 68.4307 147.766 68.9207 148.228C69.4247 148.676 70.1037 148.9 70.9577 148.9C71.5317 148.9 72.0217 148.795 72.4277 148.585C72.8477 148.361 73.1697 148.06 73.3937 147.682C73.6177 147.29 73.7297 146.842 73.7297 146.338C73.7297 145.582 73.4847 144.966 72.9947 144.49C72.5047 144 71.8327 143.755 70.9787 143.755C70.5587 143.755 70.1877 143.811 69.8657 143.923C69.5577 144.035 69.2847 144.182 69.0467 144.364L67.6817 142.012L72.7217 138.568L72.5327 138.211H65.9387V135.67H75.9557V138.736L70.7687 142.18L69.1517 141.886C69.4177 141.802 69.7047 141.739 70.0127 141.697C70.3207 141.641 70.6567 141.613 71.0207 141.613C72.1827 141.613 73.1767 141.816 74.0027 142.222C74.8427 142.614 75.4867 143.16 75.9347 143.86C76.3827 144.56 76.6067 145.365 76.6067 146.275V146.548C76.6067 147.43 76.3827 148.242 75.9347 148.984C75.4867 149.712 74.8427 150.3 74.0027 150.748C73.1627 151.182 72.1477 151.399 70.9577 151.399ZM84.4602 151.399C83.2562 151.399 82.2202 151.161 81.3522 150.685C80.4982 150.209 79.8402 149.579 79.3782 148.795C78.9302 147.997 78.7062 147.129 78.7062 146.191H81.5832C81.5832 146.723 81.7022 147.192 81.9402 147.598C82.1922 148.004 82.5352 148.326 82.9692 148.564C83.4032 148.788 83.9072 148.9 84.4812 148.9C85.0832 148.9 85.6012 148.774 86.0352 148.522C86.4692 148.27 86.7982 147.927 87.0222 147.493C87.2602 147.059 87.3792 146.562 87.3792 146.002C87.3792 145.456 87.2602 144.966 87.0222 144.532C86.7982 144.084 86.4692 143.734 86.0352 143.482C85.6152 143.216 85.1042 143.083 84.5022 143.083C83.9982 143.083 83.5222 143.181 83.0742 143.377C82.6262 143.573 82.2762 143.832 82.0242 144.154H79.2732L80.0502 135.67H88.9332V138.211H81.3522L82.4022 137.392L81.8982 142.684L81.1842 142.474C81.5902 142.012 82.0872 141.627 82.6752 141.319C83.2632 141.011 84.0052 140.857 84.9012 140.857C86.0352 140.857 87.0012 141.088 87.7992 141.55C88.5972 142.012 89.2062 142.628 89.6262 143.398C90.0462 144.154 90.2562 144.98 90.2562 145.876V146.149C90.2562 147.059 90.0322 147.913 89.5842 148.711C89.1362 149.509 88.4782 150.16 87.6102 150.664C86.7562 151.154 85.7062 151.399 84.4602 151.399ZM91.8463 147.829V144.595L97.8523 135.25L100.099 136.783L94.8073 145.057L95.0593 145.477H104.467V147.829H91.8463ZM99.8683 151V140.017H102.619V151H99.8683Z" fill="white"/>
<circle opacity="0.5" cx="248" cy="210" r="96" fill="#6F45E9"/>
<circle cx="313" cy="164" r="80.5" stroke="#FDC228"/>
</g>
<g clip-path="url(#clip1_119_475)">
<rect x="16" y="52" width="328" height="164" rx="16" fill="#6F45E9"/>
<path d="M32.6789 77L35.6669 68.24H38.4509L41.5229 77H39.7709L37.1669 69.404L37.7789 69.668H36.2789L36.9029 69.404L34.3829 77H32.6789ZM34.7669 74.672L35.3069 73.232H38.8589L39.3869 74.672H34.7669ZM46.5201 77.216C45.9841 77.216 45.5121 77.104 45.1041 76.88C44.6961 76.648 44.3761 76.312 44.1441 75.872C43.9121 75.432 43.7841 74.9 43.7601 74.276H44.0121V77H42.6921V68.24H44.3601V72.62L43.9161 73.304C43.9481 72.632 44.0801 72.072 44.3121 71.624C44.5521 71.176 44.8721 70.84 45.2721 70.616C45.6721 70.392 46.1241 70.28 46.6281 70.28C47.0761 70.28 47.4841 70.364 47.8521 70.532C48.2201 70.7 48.5361 70.936 48.8001 71.24C49.0641 71.536 49.2641 71.884 49.4001 72.284C49.5441 72.684 49.6161 73.12 49.6161 73.592V73.844C49.6161 74.316 49.5441 74.756 49.4001 75.164C49.2561 75.572 49.0481 75.932 48.7761 76.244C48.5041 76.548 48.1761 76.788 47.7921 76.964C47.4161 77.132 46.9921 77.216 46.5201 77.216ZM46.1481 75.812C46.5081 75.812 46.8201 75.724 47.0841 75.548C47.3561 75.364 47.5681 75.116 47.7201 74.804C47.8721 74.492 47.9481 74.132 47.9481 73.724C47.9481 73.308 47.8721 72.948 47.7201 72.644C47.5681 72.34 47.3561 72.104 47.0841 71.936C46.8201 71.768 46.5081 71.684 46.1481 71.684C45.8201 71.684 45.5161 71.756 45.2361 71.9C44.9641 72.044 44.7401 72.256 44.5641 72.536C44.3961 72.816 44.3121 73.152 44.3121 73.544V74.024C44.3121 74.4 44.4001 74.72 44.5761 74.984C44.7521 75.248 44.9801 75.452 45.2601 75.596C45.5401 75.74 45.8361 75.812 46.1481 75.812ZM53.7828 77.216C53.3268 77.216 52.9068 77.132 52.5228 76.964C52.1388 76.796 51.8068 76.56 51.5268 76.256C51.2468 75.952 51.0308 75.6 50.8788 75.2C50.7268 74.792 50.6508 74.352 50.6508 73.88V73.628C50.6508 73.164 50.7228 72.728 50.8668 72.32C51.0188 71.912 51.2268 71.556 51.4908 71.252C51.7628 70.948 52.0868 70.712 52.4628 70.544C52.8468 70.368 53.2708 70.28 53.7348 70.28C54.2468 70.28 54.6948 70.392 55.0788 70.616C55.4708 70.832 55.7828 71.16 56.0148 71.6C56.2468 72.04 56.3748 72.592 56.3988 73.256L55.9068 72.68V68.24H57.5748V77H56.2548V74.228H56.5428C56.5188 74.892 56.3828 75.448 56.1348 75.896C55.8868 76.336 55.5588 76.668 55.1508 76.892C54.7508 77.108 54.2948 77.216 53.7828 77.216ZM54.1548 75.812C54.4828 75.812 54.7828 75.74 55.0548 75.596C55.3268 75.444 55.5428 75.228 55.7028 74.948C55.8708 74.66 55.9548 74.324 55.9548 73.94V73.46C55.9548 73.076 55.8708 72.756 55.7028 72.5C55.5348 72.236 55.3148 72.036 55.0428 71.9C54.7708 71.756 54.4748 71.684 54.1548 71.684C53.7948 71.684 53.4748 71.772 53.1948 71.948C52.9228 72.116 52.7068 72.356 52.5468 72.668C52.3948 72.98 52.3188 73.344 52.3188 73.76C52.3188 74.176 52.3988 74.54 52.5588 74.852C52.7188 75.156 52.9348 75.392 53.2068 75.56C53.4868 75.728 53.8028 75.812 54.1548 75.812ZM61.6934 77.204C60.9414 77.204 60.3574 76.956 59.9414 76.46C59.5334 75.964 59.3294 75.228 59.3294 74.252V70.472H60.9974V74.396C60.9974 74.796 61.1094 75.116 61.3334 75.356C61.5574 75.588 61.8614 75.704 62.2454 75.704C62.6294 75.704 62.9414 75.58 63.1814 75.332C63.4294 75.084 63.5534 74.748 63.5534 74.324V70.472H65.2214V77H63.9014V74.228H64.0334C64.0334 74.884 63.9494 75.432 63.7814 75.872C63.6134 76.312 63.3614 76.644 63.0254 76.868C62.6894 77.092 62.2694 77.204 61.7654 77.204H61.6934ZM67.2215 77V68.24H68.8895V77H67.2215ZM66.4055 69.488V68.24H68.8895V69.488H66.4055ZM70.8777 77V68.24H72.5457V77H70.8777ZM70.0617 69.488V68.24H72.5457V69.488H70.0617ZM78.398 77V75.068H78.122V72.92C78.122 72.544 78.03 72.264 77.846 72.08C77.662 71.896 77.378 71.804 76.994 71.804C76.794 71.804 76.554 71.808 76.274 71.816C75.994 71.824 75.71 71.836 75.422 71.852C75.142 71.86 74.89 71.872 74.666 71.888V70.472C74.85 70.456 75.058 70.44 75.29 70.424C75.522 70.408 75.758 70.4 75.998 70.4C76.246 70.392 76.478 70.388 76.694 70.388C77.366 70.388 77.922 70.476 78.362 70.652C78.81 70.828 79.146 71.104 79.37 71.48C79.602 71.856 79.718 72.348 79.718 72.956V77H78.398ZM76.298 77.168C75.826 77.168 75.41 77.084 75.05 76.916C74.698 76.748 74.422 76.508 74.222 76.196C74.03 75.884 73.934 75.508 73.934 75.068C73.934 74.588 74.05 74.196 74.282 73.892C74.522 73.588 74.854 73.36 75.278 73.208C75.71 73.056 76.214 72.98 76.79 72.98H78.302V73.976H76.766C76.382 73.976 76.086 74.072 75.878 74.264C75.678 74.448 75.578 74.688 75.578 74.984C75.578 75.28 75.678 75.52 75.878 75.704C76.086 75.888 76.382 75.98 76.766 75.98C76.998 75.98 77.21 75.94 77.402 75.86C77.602 75.772 77.766 75.628 77.894 75.428C78.03 75.22 78.106 74.94 78.122 74.588L78.53 75.056C78.49 75.512 78.378 75.896 78.194 76.208C78.018 76.52 77.77 76.76 77.45 76.928C77.138 77.088 76.754 77.168 76.298 77.168ZM81.5046 77V68.24H83.1726V73.352H82.8846C82.8846 72.696 82.9686 72.14 83.1366 71.684C83.3046 71.228 83.5526 70.88 83.8806 70.64C84.2166 70.4 84.6406 70.28 85.1526 70.28H85.2246C85.9686 70.28 86.5326 70.536 86.9166 71.048C87.3006 71.56 87.4926 72.304 87.4926 73.28V77H85.8246V73.124C85.8246 72.708 85.7046 72.38 85.4646 72.14C85.2326 71.9 84.9246 71.78 84.5406 71.78C84.1326 71.78 83.8006 71.916 83.5446 72.188C83.2966 72.452 83.1726 72.8 83.1726 73.232V77H81.5046ZM96.0877 77.228C95.3357 77.228 94.6717 77.104 94.0957 76.856C93.5277 76.6 93.0477 76.26 92.6557 75.836C92.2717 75.404 91.9797 74.92 91.7797 74.384C91.5877 73.84 91.4917 73.276 91.4917 72.692V72.428C91.4917 71.876 91.5877 71.336 91.7797 70.808C91.9717 70.28 92.2517 69.804 92.6197 69.38C92.9957 68.956 93.4557 68.62 93.9997 68.372C94.5517 68.116 95.1837 67.988 95.8957 67.988C96.6637 67.988 97.3437 68.132 97.9357 68.42C98.5277 68.7 99.0037 69.096 99.3637 69.608C99.7237 70.112 99.9357 70.7 99.9997 71.372H98.2837C98.2277 70.996 98.0877 70.676 97.8637 70.412C97.6397 70.14 97.3557 69.932 97.0117 69.788C96.6757 69.644 96.3037 69.572 95.8957 69.572C95.4877 69.572 95.1157 69.644 94.7797 69.788C94.4517 69.932 94.1717 70.136 93.9397 70.4C93.7077 70.664 93.5277 70.98 93.3997 71.348C93.2797 71.716 93.2197 72.124 93.2197 72.572C93.2197 73.06 93.2877 73.496 93.4237 73.88C93.5597 74.264 93.7517 74.592 93.9997 74.864C94.2477 75.128 94.5477 75.332 94.8997 75.476C95.2517 75.612 95.6477 75.68 96.0877 75.68C96.6717 75.68 97.1837 75.56 97.6237 75.32C98.0637 75.072 98.3837 74.752 98.5837 74.36L98.2837 75.74V73.484H99.8557V75.428C99.4797 75.996 98.9677 76.44 98.3197 76.76C97.6717 77.072 96.9277 77.228 96.0877 77.228ZM95.8117 73.82V72.548H100.588V73.82H95.8117ZM101.86 77V68.24H103.528V73.352H103.24C103.24 72.696 103.324 72.14 103.492 71.684C103.66 71.228 103.908 70.88 104.236 70.64C104.572 70.4 104.996 70.28 105.508 70.28H105.58C106.324 70.28 106.888 70.536 107.272 71.048C107.656 71.56 107.848 72.304 107.848 73.28V77H106.18V73.124C106.18 72.708 106.06 72.38 105.82 72.14C105.588 71.9 105.28 71.78 104.896 71.78C104.488 71.78 104.156 71.916 103.9 72.188C103.652 72.452 103.528 72.8 103.528 73.232V77H101.86ZM113.589 77V75.068H113.313V72.92C113.313 72.544 113.221 72.264 113.037 72.08C112.853 71.896 112.569 71.804 112.185 71.804C111.985 71.804 111.745 71.808 111.465 71.816C111.185 71.824 110.901 71.836 110.613 71.852C110.333 71.86 110.081 71.872 109.857 71.888V70.472C110.041 70.456 110.249 70.44 110.481 70.424C110.713 70.408 110.949 70.4 111.189 70.4C111.437 70.392 111.669 70.388 111.885 70.388C112.557 70.388 113.113 70.476 113.553 70.652C114.001 70.828 114.337 71.104 114.561 71.48C114.793 71.856 114.909 72.348 114.909 72.956V77H113.589ZM111.489 77.168C111.017 77.168 110.601 77.084 110.241 76.916C109.889 76.748 109.613 76.508 109.413 76.196C109.221 75.884 109.125 75.508 109.125 75.068C109.125 74.588 109.241 74.196 109.473 73.892C109.713 73.588 110.045 73.36 110.469 73.208C110.901 73.056 111.405 72.98 111.981 72.98H113.493V73.976H111.957C111.573 73.976 111.277 74.072 111.069 74.264C110.869 74.448 110.769 74.688 110.769 74.984C110.769 75.28 110.869 75.52 111.069 75.704C111.277 75.888 111.573 75.98 111.957 75.98C112.189 75.98 112.401 75.94 112.593 75.86C112.793 75.772 112.957 75.628 113.085 75.428C113.221 75.22 113.297 74.94 113.313 74.588L113.721 75.056C113.681 75.512 113.569 75.896 113.385 76.208C113.209 76.52 112.961 76.76 112.641 76.928C112.329 77.088 111.945 77.168 111.489 77.168ZM119.528 77.084C118.928 77.084 118.432 77.008 118.04 76.856C117.656 76.696 117.368 76.432 117.176 76.064C116.984 75.688 116.888 75.184 116.888 74.552L116.9 68.648H118.46L118.448 74.66C118.448 74.98 118.532 75.228 118.7 75.404C118.876 75.572 119.124 75.656 119.444 75.656H120.464V77.084H119.528ZM115.856 71.708V70.484H120.464V71.708H115.856ZM125.789 77V75.068H125.513V72.92C125.513 72.544 125.421 72.264 125.237 72.08C125.053 71.896 124.769 71.804 124.385 71.804C124.185 71.804 123.945 71.808 123.665 71.816C123.385 71.824 123.101 71.836 122.813 71.852C122.533 71.86 122.281 71.872 122.057 71.888V70.472C122.241 70.456 122.449 70.44 122.681 70.424C122.913 70.408 123.149 70.4 123.389 70.4C123.637 70.392 123.869 70.388 124.085 70.388C124.757 70.388 125.313 70.476 125.753 70.652C126.201 70.828 126.537 71.104 126.761 71.48C126.993 71.856 127.109 72.348 127.109 72.956V77H125.789ZM123.689 77.168C123.217 77.168 122.801 77.084 122.441 76.916C122.089 76.748 121.813 76.508 121.613 76.196C121.421 75.884 121.325 75.508 121.325 75.068C121.325 74.588 121.441 74.196 121.673 73.892C121.913 73.588 122.245 73.36 122.669 73.208C123.101 73.056 123.605 72.98 124.181 72.98H125.693V73.976H124.157C123.773 73.976 123.477 74.072 123.269 74.264C123.069 74.448 122.969 74.688 122.969 74.984C122.969 75.28 123.069 75.52 123.269 75.704C123.477 75.888 123.773 75.98 124.157 75.98C124.389 75.98 124.601 75.94 124.793 75.86C124.993 75.772 125.157 75.628 125.285 75.428C125.421 75.22 125.497 74.94 125.513 74.588L125.921 75.056C125.881 75.512 125.769 75.896 125.585 76.208C125.409 76.52 125.161 76.76 124.841 76.928C124.529 77.088 124.145 77.168 123.689 77.168ZM131.259 77.204C130.363 77.204 129.659 77.016 129.147 76.64C128.643 76.256 128.379 75.728 128.355 75.056H129.855C129.879 75.28 130.003 75.484 130.227 75.668C130.451 75.852 130.803 75.944 131.283 75.944C131.683 75.944 131.999 75.872 132.231 75.728C132.471 75.584 132.591 75.388 132.591 75.14C132.591 74.924 132.499 74.752 132.315 74.624C132.139 74.496 131.835 74.412 131.403 74.372L130.827 74.312C130.099 74.232 129.539 74.024 129.147 73.688C128.755 73.352 128.559 72.904 128.559 72.344C128.559 71.896 128.671 71.52 128.895 71.216C129.119 70.912 129.427 70.684 129.819 70.532C130.219 70.372 130.675 70.292 131.187 70.292C131.987 70.292 132.635 70.468 133.131 70.82C133.627 71.172 133.887 71.688 133.911 72.368H132.411C132.395 72.144 132.283 71.952 132.075 71.792C131.867 71.632 131.567 71.552 131.175 71.552C130.823 71.552 130.551 71.62 130.359 71.756C130.167 71.892 130.071 72.068 130.071 72.284C130.071 72.492 130.147 72.652 130.299 72.764C130.459 72.876 130.715 72.952 131.067 72.992L131.643 73.052C132.411 73.132 133.011 73.344 133.443 73.688C133.883 74.032 134.103 74.496 134.103 75.08C134.103 75.512 133.983 75.888 133.743 76.208C133.511 76.52 133.183 76.764 132.759 76.94C132.335 77.116 131.835 77.204 131.259 77.204ZM135.481 77V68.24H137.149V73.352H136.861C136.861 72.696 136.945 72.14 137.113 71.684C137.281 71.228 137.529 70.88 137.857 70.64C138.193 70.4 138.617 70.28 139.129 70.28H139.201C139.945 70.28 140.509 70.536 140.893 71.048C141.277 71.56 141.469 72.304 141.469 73.28V77H139.801V73.124C139.801 72.708 139.681 72.38 139.441 72.14C139.209 71.9 138.901 71.78 138.517 71.78C138.109 71.78 137.777 71.916 137.521 72.188C137.273 72.452 137.149 72.8 137.149 73.232V77H135.481ZM146.178 77.228C145.618 77.228 145.126 77.132 144.702 76.94C144.286 76.748 143.938 76.492 143.658 76.172C143.386 75.844 143.178 75.48 143.034 75.08C142.898 74.68 142.83 74.272 142.83 73.856V73.628C142.83 73.196 142.898 72.78 143.034 72.38C143.178 71.972 143.386 71.612 143.658 71.3C143.938 70.98 144.282 70.728 144.69 70.544C145.098 70.352 145.57 70.256 146.106 70.256C146.81 70.256 147.398 70.412 147.87 70.724C148.35 71.028 148.71 71.432 148.95 71.936C149.19 72.432 149.31 72.968 149.31 73.544V74.144H143.538V73.124H148.266L147.75 73.628C147.75 73.212 147.69 72.856 147.57 72.56C147.45 72.264 147.266 72.036 147.018 71.876C146.778 71.716 146.474 71.636 146.106 71.636C145.738 71.636 145.426 71.72 145.17 71.888C144.914 72.056 144.718 72.3 144.582 72.62C144.454 72.932 144.39 73.308 144.39 73.748C144.39 74.156 144.454 74.52 144.582 74.84C144.71 75.152 144.906 75.4 145.17 75.584C145.434 75.76 145.77 75.848 146.178 75.848C146.586 75.848 146.918 75.768 147.174 75.608C147.43 75.44 147.594 75.236 147.666 74.996H149.202C149.106 75.444 148.922 75.836 148.65 76.172C148.378 76.508 148.03 76.768 147.606 76.952C147.19 77.136 146.714 77.228 146.178 77.228ZM150.704 77V68.24H152.372V73.352H152.084C152.084 72.696 152.168 72.14 152.336 71.684C152.504 71.228 152.752 70.88 153.08 70.64C153.416 70.4 153.84 70.28 154.352 70.28H154.424C155.168 70.28 155.732 70.536 156.116 71.048C156.5 71.56 156.692 72.304 156.692 73.28V77H155.024V73.124C155.024 72.708 154.904 72.38 154.664 72.14C154.432 71.9 154.124 71.78 153.74 71.78C153.332 71.78 153 71.916 152.744 72.188C152.496 72.452 152.372 72.8 152.372 73.232V77H150.704Z" fill="white"/>
<path d="M273.137 72.596L271.313 71.276V69.98L273.137 68.66L273.797 69.824L272.297 70.448V70.808L273.797 71.432L273.137 72.596ZM271.373 67.616L271.145 69.86L270.017 70.508L267.965 69.584L268.637 68.432L269.933 69.416L270.245 69.236L270.029 67.628L271.373 67.616ZM267.965 71.672L270.017 70.748L271.145 71.396L271.373 73.64L270.041 73.616L270.245 72.02L269.933 71.84L268.637 72.812L267.965 71.672ZM279.969 72.596L278.145 71.276V69.98L279.969 68.66L280.629 69.824L279.129 70.448V70.808L280.629 71.432L279.969 72.596ZM278.205 67.616L277.977 69.86L276.849 70.508L274.797 69.584L275.469 68.432L276.765 69.416L277.077 69.236L276.861 67.628L278.205 67.616ZM274.797 71.672L276.849 70.748L277.977 71.396L278.205 73.64L276.873 73.616L277.077 72.02L276.765 71.84L275.469 72.812L274.797 71.672ZM286.801 72.596L284.977 71.276V69.98L286.801 68.66L287.461 69.824L285.961 70.448V70.808L287.461 71.432L286.801 72.596ZM285.037 67.616L284.809 69.86L283.681 70.508L281.629 69.584L282.301 68.432L283.597 69.416L283.909 69.236L283.693 67.628L285.037 67.616ZM281.629 71.672L283.681 70.748L284.809 71.396L285.037 73.64L283.705 73.616L283.909 72.02L283.597 71.84L282.301 72.812L281.629 71.672ZM293.633 72.596L291.809 71.276V69.98L293.633 68.66L294.293 69.824L292.793 70.448V70.808L294.293 71.432L293.633 72.596ZM291.869 67.616L291.641 69.86L290.513 70.508L288.461 69.584L289.133 68.432L290.429 69.416L290.741 69.236L290.525 67.628L291.869 67.616ZM288.461 71.672L290.513 70.748L291.641 71.396L291.869 73.64L290.537 73.616L290.741 72.02L290.429 71.84L289.133 72.812L288.461 71.672ZM301.255 77.228C300.567 77.228 299.975 77.092 299.479 76.82C298.991 76.548 298.615 76.188 298.351 75.74C298.095 75.284 297.967 74.788 297.967 74.252H299.611C299.611 74.556 299.679 74.824 299.815 75.056C299.959 75.288 300.155 75.472 300.403 75.608C300.651 75.736 300.939 75.8 301.267 75.8C301.611 75.8 301.907 75.728 302.155 75.584C302.403 75.44 302.591 75.244 302.719 74.996C302.855 74.748 302.923 74.464 302.923 74.144C302.923 73.832 302.855 73.552 302.719 73.304C302.591 73.048 302.403 72.848 302.155 72.704C301.915 72.552 301.623 72.476 301.279 72.476C300.991 72.476 300.719 72.532 300.463 72.644C300.207 72.756 300.007 72.904 299.863 73.088H298.291L298.735 68.24H303.811V69.692H299.479L300.079 69.224L299.791 72.248L299.383 72.128C299.615 71.864 299.899 71.644 300.235 71.468C300.571 71.292 300.995 71.204 301.507 71.204C302.155 71.204 302.707 71.336 303.163 71.6C303.619 71.864 303.967 72.216 304.207 72.656C304.447 73.088 304.567 73.56 304.567 74.072V74.228C304.567 74.748 304.439 75.236 304.183 75.692C303.927 76.148 303.551 76.52 303.055 76.808C302.567 77.088 301.967 77.228 301.255 77.228ZM305.476 75.188V73.34L308.908 68L310.192 68.876L307.168 73.604L307.312 73.844H312.688V75.188H305.476ZM310.06 77V70.724H311.632V77H310.06ZM316.637 77.228C315.965 77.228 315.385 77.1 314.897 76.844C314.417 76.588 314.049 76.248 313.793 75.824C313.537 75.392 313.409 74.912 313.409 74.384H315.053C315.053 74.808 315.193 75.152 315.473 75.416C315.761 75.672 316.149 75.8 316.637 75.8C316.965 75.8 317.245 75.74 317.477 75.62C317.717 75.492 317.901 75.32 318.029 75.104C318.157 74.88 318.221 74.624 318.221 74.336C318.221 73.904 318.081 73.552 317.801 73.28C317.521 73 317.137 72.86 316.649 72.86C316.409 72.86 316.197 72.892 316.013 72.956C315.837 73.02 315.681 73.104 315.545 73.208L314.765 71.864L317.645 69.896L317.537 69.692H313.769V68.24H319.493V69.992L316.529 71.96L315.605 71.792C315.757 71.744 315.921 71.708 316.097 71.684C316.273 71.652 316.465 71.636 316.673 71.636C317.337 71.636 317.905 71.752 318.377 71.984C318.857 72.208 319.225 72.52 319.481 72.92C319.737 73.32 319.865 73.78 319.865 74.3V74.456C319.865 74.96 319.737 75.424 319.481 75.848C319.225 76.264 318.857 76.6 318.377 76.856C317.897 77.104 317.317 77.228 316.637 77.228ZM321.257 77V75.32C321.257 74.952 321.313 74.632 321.425 74.36C321.545 74.088 321.737 73.848 322.001 73.64C322.273 73.424 322.629 73.22 323.069 73.028L324.557 72.368C324.925 72.2 325.205 71.996 325.397 71.756C325.597 71.508 325.697 71.192 325.697 70.808C325.697 70.384 325.569 70.048 325.313 69.8C325.065 69.544 324.709 69.416 324.245 69.416C323.781 69.416 323.421 69.544 323.165 69.8C322.917 70.056 322.793 70.412 322.793 70.868H321.149C321.149 70.324 321.265 69.836 321.497 69.404C321.729 68.964 322.073 68.62 322.529 68.372C322.985 68.116 323.557 67.988 324.245 67.988C324.933 67.988 325.505 68.112 325.961 68.36C326.417 68.608 326.761 68.94 326.993 69.356C327.225 69.764 327.341 70.22 327.341 70.724V70.88C327.341 71.536 327.157 72.084 326.789 72.524C326.421 72.956 325.881 73.332 325.169 73.652L323.681 74.312C323.401 74.432 323.205 74.56 323.093 74.696C322.981 74.824 322.925 75 322.925 75.224V75.992L322.517 75.548H327.377V77H321.257Z" fill="white"/>
<path d="M34.208 167.048V166.016H36.656C37.128 166.016 37.492 165.884 37.748 165.62C38.012 165.348 38.144 164.988 38.144 164.54C38.144 164.084 38.016 163.728 37.76 163.472C37.504 163.208 37.136 163.076 36.656 163.076H34.208V162.308H36.488C37.048 162.308 37.54 162.376 37.964 162.512C38.396 162.648 38.732 162.876 38.972 163.196C39.22 163.508 39.344 163.936 39.344 164.48V164.648C39.344 165.16 39.24 165.596 39.032 165.956C38.824 166.308 38.508 166.58 38.084 166.772C37.66 166.956 37.128 167.048 36.488 167.048H34.208ZM33.272 167.048V158.192H34.448V167.048H33.272ZM34.208 162.86V162.092H36.332C36.828 162.092 37.192 161.96 37.424 161.696C37.664 161.424 37.784 161.08 37.784 160.664C37.784 160.24 37.664 159.896 37.424 159.632C37.192 159.36 36.828 159.224 36.332 159.224H34.208V158.192H36.128C37.088 158.192 37.804 158.396 38.276 158.804C38.748 159.204 38.984 159.784 38.984 160.544V160.712C38.984 161.248 38.864 161.676 38.624 161.996C38.384 162.308 38.048 162.532 37.616 162.668C37.192 162.796 36.696 162.86 36.128 162.86H34.208ZM45.1363 167V165.08H44.9443V162.86C44.9443 162.42 44.8283 162.088 44.5963 161.864C44.3723 161.64 44.0403 161.528 43.6003 161.528C43.3523 161.528 43.0963 161.532 42.8323 161.54C42.5683 161.548 42.3163 161.556 42.0763 161.564C41.8363 161.572 41.6283 161.584 41.4523 161.6V160.592C41.6283 160.576 41.8123 160.564 42.0043 160.556C42.2043 160.54 42.4083 160.532 42.6163 160.532C42.8243 160.524 43.0243 160.52 43.2163 160.52C43.8723 160.52 44.4083 160.6 44.8243 160.76C45.2403 160.912 45.5483 161.164 45.7483 161.516C45.9483 161.868 46.0483 162.344 46.0483 162.944V167H45.1363ZM43.0363 167.168C42.5563 167.168 42.1403 167.088 41.7883 166.928C41.4443 166.76 41.1763 166.52 40.9843 166.208C40.8003 165.896 40.7083 165.52 40.7083 165.08C40.7083 164.624 40.8083 164.244 41.0083 163.94C41.2163 163.636 41.5163 163.408 41.9083 163.256C42.3003 163.096 42.7723 163.016 43.3242 163.016H45.0643V163.88H43.2763C42.8123 163.88 42.4563 163.992 42.2083 164.216C41.9603 164.44 41.8363 164.728 41.8363 165.08C41.8363 165.432 41.9603 165.716 42.2083 165.932C42.4563 166.148 42.8123 166.256 43.2763 166.256C43.5483 166.256 43.8083 166.208 44.0563 166.112C44.3043 166.008 44.5083 165.84 44.6683 165.608C44.8363 165.368 44.9283 165.04 44.9443 164.624L45.2563 165.08C45.2163 165.536 45.1043 165.92 44.9203 166.232C44.7443 166.536 44.4963 166.768 44.1763 166.928C43.8643 167.088 43.4843 167.168 43.0363 167.168ZM48.2346 167V158.24H49.3866V167H48.2346ZM47.3466 159.152V158.24H49.3866V159.152H47.3466ZM55.4722 167V165.08H55.2802V162.86C55.2802 162.42 55.1642 162.088 54.9322 161.864C54.7082 161.64 54.3762 161.528 53.9362 161.528C53.6882 161.528 53.4322 161.532 53.1682 161.54C52.9042 161.548 52.6522 161.556 52.4122 161.564C52.1722 161.572 51.9642 161.584 51.7882 161.6V160.592C51.9642 160.576 52.1482 160.564 52.3402 160.556C52.5402 160.54 52.7442 160.532 52.9522 160.532C53.1602 160.524 53.3602 160.52 53.5522 160.52C54.2082 160.52 54.7442 160.6 55.1602 160.76C55.5762 160.912 55.8842 161.164 56.0842 161.516C56.2842 161.868 56.3842 162.344 56.3842 162.944V167H55.4722ZM53.3722 167.168C52.8922 167.168 52.4762 167.088 52.1242 166.928C51.7802 166.76 51.5122 166.52 51.3202 166.208C51.1362 165.896 51.0442 165.52 51.0442 165.08C51.0442 164.624 51.1442 164.244 51.3442 163.94C51.5522 163.636 51.8522 163.408 52.2442 163.256C52.6362 163.096 53.1082 163.016 53.6602 163.016H55.4002V163.88H53.6122C53.1482 163.88 52.7922 163.992 52.5442 164.216C52.2962 164.44 52.1722 164.728 52.1722 165.08C52.1722 165.432 52.2962 165.716 52.5442 165.932C52.7922 166.148 53.1482 166.256 53.6122 166.256C53.8842 166.256 54.1442 166.208 54.3922 166.112C54.6402 166.008 54.8442 165.84 55.0042 165.608C55.1722 165.368 55.2642 165.04 55.2802 164.624L55.5922 165.08C55.5522 165.536 55.4402 165.92 55.2562 166.232C55.0802 166.536 54.8322 166.768 54.5122 166.928C54.2002 167.088 53.8202 167.168 53.3722 167.168ZM58.4985 167V160.592H59.4105V163.34H59.2665C59.2665 162.708 59.3505 162.176 59.5185 161.744C59.6945 161.304 59.9585 160.972 60.3105 160.748C60.6625 160.516 61.1065 160.4 61.6425 160.4H61.6905C62.4985 160.4 63.0945 160.652 63.4785 161.156C63.8705 161.66 64.0665 162.388 64.0665 163.34V167H62.9145V163.1C62.9145 162.604 62.7745 162.208 62.4945 161.912C62.2145 161.608 61.8305 161.456 61.3425 161.456C60.8385 161.456 60.4305 161.612 60.1185 161.924C59.8065 162.236 59.6505 162.652 59.6505 163.172V167H58.4985ZM68.9223 167.216C68.3703 167.216 67.8903 167.12 67.4823 166.928C67.0823 166.736 66.7503 166.48 66.4863 166.16C66.2223 165.832 66.0223 165.472 65.8863 165.08C65.7583 164.688 65.6943 164.296 65.6943 163.904V163.688C65.6943 163.28 65.7583 162.88 65.8863 162.488C66.0223 162.096 66.2223 161.744 66.4863 161.432C66.7583 161.112 67.0943 160.856 67.4943 160.664C67.8943 160.472 68.3623 160.376 68.8983 160.376C69.4343 160.376 69.9143 160.476 70.3383 160.676C70.7703 160.876 71.1143 161.16 71.3703 161.528C71.6343 161.888 71.7823 162.316 71.8143 162.812H70.7103C70.6543 162.412 70.4703 162.08 70.1583 161.816C69.8463 161.544 69.4263 161.408 68.8983 161.408C68.4423 161.408 68.0623 161.512 67.7583 161.72C67.4543 161.928 67.2263 162.212 67.0743 162.572C66.9223 162.932 66.8463 163.34 66.8463 163.796C66.8463 164.236 66.9223 164.64 67.0743 165.008C67.2263 165.368 67.4543 165.656 67.7583 165.872C68.0703 166.08 68.4583 166.184 68.9223 166.184C69.2823 166.184 69.5943 166.12 69.8583 165.992C70.1223 165.864 70.3343 165.692 70.4943 165.476C70.6543 165.26 70.7503 165.016 70.7823 164.744H71.8863C71.8623 165.248 71.7143 165.684 71.4423 166.052C71.1783 166.42 70.8263 166.708 70.3863 166.916C69.9543 167.116 69.4663 167.216 68.9223 167.216ZM76.1757 167.216C75.6157 167.216 75.1317 167.12 74.7237 166.928C74.3157 166.736 73.9837 166.484 73.7277 166.172C73.4717 165.852 73.2797 165.496 73.1517 165.104C73.0317 164.712 72.9717 164.312 72.9717 163.904V163.688C72.9717 163.272 73.0317 162.868 73.1517 162.476C73.2797 162.084 73.4717 161.732 73.7277 161.42C73.9837 161.1 74.3077 160.848 74.6997 160.664C75.0997 160.472 75.5677 160.376 76.1037 160.376C76.7997 160.376 77.3717 160.528 77.8197 160.832C78.2757 161.128 78.6117 161.512 78.8277 161.984C79.0517 162.456 79.1637 162.96 79.1637 163.496V164.012H73.4757V163.148H78.3237L78.0597 163.616C78.0597 163.16 77.9877 162.768 77.8437 162.44C77.6997 162.104 77.4837 161.844 77.1957 161.66C76.9077 161.476 76.5437 161.384 76.1037 161.384C75.6477 161.384 75.2677 161.488 74.9637 161.696C74.6677 161.904 74.4437 162.188 74.2917 162.548C74.1477 162.908 74.0757 163.324 74.0757 163.796C74.0757 164.252 74.1477 164.664 74.2917 165.032C74.4437 165.392 74.6757 165.68 74.9877 165.896C75.2997 166.104 75.6957 166.208 76.1757 166.208C76.6797 166.208 77.0877 166.096 77.3997 165.872C77.7197 165.648 77.9117 165.388 77.9757 165.092H79.0557C78.9677 165.532 78.7917 165.912 78.5277 166.232C78.2637 166.552 77.9317 166.796 77.5317 166.964C77.1317 167.132 76.6797 167.216 76.1757 167.216Z" fill="#E6DDFF"/>
<path d="M38.9144 195.063C37.5984 195.063 36.4924 194.867 35.5964 194.475C34.7144 194.069 34.0424 193.502 33.5804 192.774C33.1324 192.032 32.9084 191.157 32.9084 190.149H35.5964C35.5964 190.583 35.7084 190.996 35.9324 191.388C36.1564 191.78 36.5064 192.102 36.9824 192.354C37.4724 192.592 38.1164 192.711 38.9144 192.711C39.9644 192.711 40.7624 192.508 41.3084 192.102C41.8544 191.696 42.1274 191.192 42.1274 190.59C42.1274 190.044 41.8894 189.589 41.4134 189.225C40.9514 188.861 40.2304 188.637 39.2504 188.553L38.0744 188.448C36.6324 188.308 35.4844 187.874 34.6304 187.146C33.7764 186.404 33.3494 185.354 33.3494 183.996C33.3494 183.058 33.5594 182.267 33.9794 181.623C34.4134 180.979 35.0294 180.496 35.8274 180.174C36.6394 179.838 37.5984 179.67 38.7044 179.67C39.8524 179.67 40.8254 179.859 41.6234 180.237C42.4354 180.615 43.0514 181.161 43.4714 181.875C43.9054 182.575 44.1224 183.429 44.1224 184.437H41.4344C41.4344 184.003 41.3294 183.604 41.1194 183.24C40.9234 182.876 40.6224 182.582 40.2164 182.358C39.8244 182.134 39.3204 182.022 38.7044 182.022C38.1444 182.022 37.6684 182.106 37.2764 182.274C36.8844 182.442 36.5834 182.673 36.3734 182.967C36.1634 183.261 36.0584 183.604 36.0584 183.996C36.0584 184.486 36.2334 184.92 36.5834 185.298C36.9474 185.676 37.5284 185.9 38.3264 185.97L39.5024 186.075C41.1124 186.215 42.4004 186.663 43.3664 187.419C44.3464 188.175 44.8364 189.232 44.8364 190.59C44.8364 191.528 44.5984 192.333 44.1224 193.005C43.6604 193.663 42.9884 194.174 42.1064 194.538C41.2244 194.888 40.1604 195.063 38.9144 195.063ZM37.6334 197.709V194.643H40.0694V197.709H37.6334ZM37.5494 180.699V177.633H39.9854V180.699H37.5494ZM47.0911 195V192.06C47.0911 191.416 47.1891 190.856 47.3851 190.38C47.5951 189.904 47.9311 189.484 48.3931 189.12C48.8691 188.742 49.4921 188.385 50.2621 188.049L52.8661 186.894C53.5101 186.6 54.0001 186.243 54.3361 185.823C54.6861 185.389 54.8611 184.836 54.8611 184.164C54.8611 183.422 54.6371 182.834 54.1891 182.4C53.7551 181.952 53.1321 181.728 52.3201 181.728C51.5081 181.728 50.8781 181.952 50.4301 182.4C49.9961 182.848 49.7791 183.471 49.7791 184.269H46.9021C46.9021 183.317 47.1051 182.463 47.5111 181.707C47.9171 180.937 48.5191 180.335 49.3171 179.901C50.1151 179.453 51.1161 179.229 52.3201 179.229C53.5241 179.229 54.5251 179.446 55.3231 179.88C56.1211 180.314 56.7231 180.895 57.1291 181.623C57.5351 182.337 57.7381 183.135 57.7381 184.017V184.29C57.7381 185.438 57.4161 186.397 56.7721 187.167C56.1281 187.923 55.1831 188.581 53.9371 189.141L51.3331 190.296C50.8431 190.506 50.5001 190.73 50.3041 190.968C50.1081 191.192 50.0101 191.5 50.0101 191.892V193.236L49.2961 192.459H57.8011V195H47.0911ZM61.4331 198.486L59.1651 197.625L61.3071 191.535L63.7431 192.438L61.4331 198.486ZM70.9577 195.399C69.7817 195.399 68.7667 195.175 67.9127 194.727C67.0727 194.279 66.4287 193.684 65.9807 192.942C65.5327 192.186 65.3087 191.346 65.3087 190.422H68.1857C68.1857 191.164 68.4307 191.766 68.9207 192.228C69.4247 192.676 70.1037 192.9 70.9577 192.9C71.5317 192.9 72.0217 192.795 72.4277 192.585C72.8477 192.361 73.1697 192.06 73.3937 191.682C73.6177 191.29 73.7297 190.842 73.7297 190.338C73.7297 189.582 73.4847 188.966 72.9947 188.49C72.5047 188 71.8327 187.755 70.9787 187.755C70.5587 187.755 70.1877 187.811 69.8657 187.923C69.5577 188.035 69.2847 188.182 69.0467 188.364L67.6817 186.012L72.7217 182.568L72.5327 182.211H65.9387V179.67H75.9557V182.736L70.7687 186.18L69.1517 185.886C69.4177 185.802 69.7047 185.739 70.0127 185.697C70.3207 185.641 70.6567 185.613 71.0207 185.613C72.1827 185.613 73.1767 185.816 74.0027 186.222C74.8427 186.614 75.4867 187.16 75.9347 187.86C76.3827 188.56 76.6067 189.365 76.6067 190.275V190.548C76.6067 191.43 76.3827 192.242 75.9347 192.984C75.4867 193.712 74.8427 194.3 74.0027 194.748C73.1627 195.182 72.1477 195.399 70.9577 195.399ZM84.4602 195.399C83.2562 195.399 82.2202 195.161 81.3522 194.685C80.4982 194.209 79.8402 193.579 79.3782 192.795C78.9302 191.997 78.7062 191.129 78.7062 190.191H81.5832C81.5832 190.723 81.7022 191.192 81.9402 191.598C82.1922 192.004 82.5352 192.326 82.9692 192.564C83.4032 192.788 83.9072 192.9 84.4812 192.9C85.0832 192.9 85.6012 192.774 86.0352 192.522C86.4692 192.27 86.7982 191.927 87.0222 191.493C87.2602 191.059 87.3792 190.562 87.3792 190.002C87.3792 189.456 87.2602 188.966 87.0222 188.532C86.7982 188.084 86.4692 187.734 86.0352 187.482C85.6152 187.216 85.1042 187.083 84.5022 187.083C83.9982 187.083 83.5222 187.181 83.0742 187.377C82.6262 187.573 82.2762 187.832 82.0242 188.154H79.2732L80.0502 179.67H88.9332V182.211H81.3522L82.4022 181.392L81.8982 186.684L81.1842 186.474C81.5902 186.012 82.0872 185.627 82.6752 185.319C83.2632 185.011 84.0052 184.857 84.9012 184.857C86.0352 184.857 87.0012 185.088 87.7992 185.55C88.5972 186.012 89.2062 186.628 89.6262 187.398C90.0462 188.154 90.2562 188.98 90.2562 189.876V190.149C90.2562 191.059 90.0322 191.913 89.5842 192.711C89.1362 193.509 88.4782 194.16 87.6102 194.664C86.7562 195.154 85.7062 195.399 84.4602 195.399ZM91.8463 191.829V188.595L97.8523 179.25L100.099 180.783L94.8073 189.057L95.0593 189.477H104.467V191.829H91.8463ZM99.8683 195V184.017H102.619V195H99.8683Z" fill="white"/>
<circle opacity="0.5" cx="248" cy="254" r="96" fill="#6F45E9"/>
<circle cx="313" cy="208" r="80.5" stroke="#FDC228"/>
</g>
<g clip-path="url(#clip2_119_475)">
<rect x="16" y="96" width="328" height="196" rx="16" fill="#270685"/>
<path d="M32.6789 125L35.6669 116.24H38.4509L41.5229 125H39.7709L37.1669 117.404L37.7789 117.668H36.2789L36.9029 117.404L34.3829 125H32.6789ZM34.7669 122.672L35.3069 121.232H38.8589L39.3869 122.672H34.7669ZM46.5201 125.216C45.9841 125.216 45.5121 125.104 45.1041 124.88C44.6961 124.648 44.3761 124.312 44.1441 123.872C43.9121 123.432 43.7841 122.9 43.7601 122.276H44.0121V125H42.6921V116.24H44.3601V120.62L43.9161 121.304C43.9481 120.632 44.0801 120.072 44.3121 119.624C44.5521 119.176 44.8721 118.84 45.2721 118.616C45.6721 118.392 46.1241 118.28 46.6281 118.28C47.0761 118.28 47.4841 118.364 47.8521 118.532C48.2201 118.7 48.5361 118.936 48.8001 119.24C49.0641 119.536 49.2641 119.884 49.4001 120.284C49.5441 120.684 49.6161 121.12 49.6161 121.592V121.844C49.6161 122.316 49.5441 122.756 49.4001 123.164C49.2561 123.572 49.0481 123.932 48.7761 124.244C48.5041 124.548 48.1761 124.788 47.7921 124.964C47.4161 125.132 46.9921 125.216 46.5201 125.216ZM46.1481 123.812C46.5081 123.812 46.8201 123.724 47.0841 123.548C47.3561 123.364 47.5681 123.116 47.7201 122.804C47.8721 122.492 47.9481 122.132 47.9481 121.724C47.9481 121.308 47.8721 120.948 47.7201 120.644C47.5681 120.34 47.3561 120.104 47.0841 119.936C46.8201 119.768 46.5081 119.684 46.1481 119.684C45.8201 119.684 45.5161 119.756 45.2361 119.9C44.9641 120.044 44.7401 120.256 44.5641 120.536C44.3961 120.816 44.3121 121.152 44.3121 121.544V122.024C44.3121 122.4 44.4001 122.72 44.5761 122.984C44.7521 123.248 44.9801 123.452 45.2601 123.596C45.5401 123.74 45.8361 123.812 46.1481 123.812ZM53.7828 125.216C53.3268 125.216 52.9068 125.132 52.5228 124.964C52.1388 124.796 51.8068 124.56 51.5268 124.256C51.2468 123.952 51.0308 123.6 50.8788 123.2C50.7268 122.792 50.6508 122.352 50.6508 121.88V121.628C50.6508 121.164 50.7228 120.728 50.8668 120.32C51.0188 119.912 51.2268 119.556 51.4908 119.252C51.7628 118.948 52.0868 118.712 52.4628 118.544C52.8468 118.368 53.2708 118.28 53.7348 118.28C54.2468 118.28 54.6948 118.392 55.0788 118.616C55.4708 118.832 55.7828 119.16 56.0148 119.6C56.2468 120.04 56.3748 120.592 56.3988 121.256L55.9068 120.68V116.24H57.5748V125H56.2548V122.228H56.5428C56.5188 122.892 56.3828 123.448 56.1348 123.896C55.8868 124.336 55.5588 124.668 55.1508 124.892C54.7508 125.108 54.2948 125.216 53.7828 125.216ZM54.1548 123.812C54.4828 123.812 54.7828 123.74 55.0548 123.596C55.3268 123.444 55.5428 123.228 55.7028 122.948C55.8708 122.66 55.9548 122.324 55.9548 121.94V121.46C55.9548 121.076 55.8708 120.756 55.7028 120.5C55.5348 120.236 55.3148 120.036 55.0428 119.9C54.7708 119.756 54.4748 119.684 54.1548 119.684C53.7948 119.684 53.4748 119.772 53.1948 119.948C52.9228 120.116 52.7068 120.356 52.5468 120.668C52.3948 120.98 52.3188 121.344 52.3188 121.76C52.3188 122.176 52.3988 122.54 52.5588 122.852C52.7188 123.156 52.9348 123.392 53.2068 123.56C53.4868 123.728 53.8028 123.812 54.1548 123.812ZM61.6934 125.204C60.9414 125.204 60.3574 124.956 59.9414 124.46C59.5334 123.964 59.3294 123.228 59.3294 122.252V118.472H60.9974V122.396C60.9974 122.796 61.1094 123.116 61.3334 123.356C61.5574 123.588 61.8614 123.704 62.2454 123.704C62.6294 123.704 62.9414 123.58 63.1814 123.332C63.4294 123.084 63.5534 122.748 63.5534 122.324V118.472H65.2214V125H63.9014V122.228H64.0334C64.0334 122.884 63.9494 123.432 63.7814 123.872C63.6134 124.312 63.3614 124.644 63.0254 124.868C62.6894 125.092 62.2694 125.204 61.7654 125.204H61.6934ZM67.2215 125V116.24H68.8895V125H67.2215ZM66.4055 117.488V116.24H68.8895V117.488H66.4055ZM70.8777 125V116.24H72.5457V125H70.8777ZM70.0617 117.488V116.24H72.5457V117.488H70.0617ZM78.398 125V123.068H78.122V120.92C78.122 120.544 78.03 120.264 77.846 120.08C77.662 119.896 77.378 119.804 76.994 119.804C76.794 119.804 76.554 119.808 76.274 119.816C75.994 119.824 75.71 119.836 75.422 119.852C75.142 119.86 74.89 119.872 74.666 119.888V118.472C74.85 118.456 75.058 118.44 75.29 118.424C75.522 118.408 75.758 118.4 75.998 118.4C76.246 118.392 76.478 118.388 76.694 118.388C77.366 118.388 77.922 118.476 78.362 118.652C78.81 118.828 79.146 119.104 79.37 119.48C79.602 119.856 79.718 120.348 79.718 120.956V125H78.398ZM76.298 125.168C75.826 125.168 75.41 125.084 75.05 124.916C74.698 124.748 74.422 124.508 74.222 124.196C74.03 123.884 73.934 123.508 73.934 123.068C73.934 122.588 74.05 122.196 74.282 121.892C74.522 121.588 74.854 121.36 75.278 121.208C75.71 121.056 76.214 120.98 76.79 120.98H78.302V121.976H76.766C76.382 121.976 76.086 122.072 75.878 122.264C75.678 122.448 75.578 122.688 75.578 122.984C75.578 123.28 75.678 123.52 75.878 123.704C76.086 123.888 76.382 123.98 76.766 123.98C76.998 123.98 77.21 123.94 77.402 123.86C77.602 123.772 77.766 123.628 77.894 123.428C78.03 123.22 78.106 122.94 78.122 122.588L78.53 123.056C78.49 123.512 78.378 123.896 78.194 124.208C78.018 124.52 77.77 124.76 77.45 124.928C77.138 125.088 76.754 125.168 76.298 125.168ZM81.5046 125V116.24H83.1726V121.352H82.8846C82.8846 120.696 82.9686 120.14 83.1366 119.684C83.3046 119.228 83.5526 118.88 83.8806 118.64C84.2166 118.4 84.6406 118.28 85.1526 118.28H85.2246C85.9686 118.28 86.5326 118.536 86.9166 119.048C87.3006 119.56 87.4926 120.304 87.4926 121.28V125H85.8246V121.124C85.8246 120.708 85.7046 120.38 85.4646 120.14C85.2326 119.9 84.9246 119.78 84.5406 119.78C84.1326 119.78 83.8006 119.916 83.5446 120.188C83.2966 120.452 83.1726 120.8 83.1726 121.232V125H81.5046ZM96.0877 125.228C95.3357 125.228 94.6717 125.104 94.0957 124.856C93.5277 124.6 93.0477 124.26 92.6557 123.836C92.2717 123.404 91.9797 122.92 91.7797 122.384C91.5877 121.84 91.4917 121.276 91.4917 120.692V120.428C91.4917 119.876 91.5877 119.336 91.7797 118.808C91.9717 118.28 92.2517 117.804 92.6197 117.38C92.9957 116.956 93.4557 116.62 93.9997 116.372C94.5517 116.116 95.1837 115.988 95.8957 115.988C96.6637 115.988 97.3437 116.132 97.9357 116.42C98.5277 116.7 99.0037 117.096 99.3637 117.608C99.7237 118.112 99.9357 118.7 99.9997 119.372H98.2837C98.2277 118.996 98.0877 118.676 97.8637 118.412C97.6397 118.14 97.3557 117.932 97.0117 117.788C96.6757 117.644 96.3037 117.572 95.8957 117.572C95.4877 117.572 95.1157 117.644 94.7797 117.788C94.4517 117.932 94.1717 118.136 93.9397 118.4C93.7077 118.664 93.5277 118.98 93.3997 119.348C93.2797 119.716 93.2197 120.124 93.2197 120.572C93.2197 121.06 93.2877 121.496 93.4237 121.88C93.5597 122.264 93.7517 122.592 93.9997 122.864C94.2477 123.128 94.5477 123.332 94.8997 123.476C95.2517 123.612 95.6477 123.68 96.0877 123.68C96.6717 123.68 97.1837 123.56 97.6237 123.32C98.0637 123.072 98.3837 122.752 98.5837 122.36L98.2837 123.74V121.484H99.8557V123.428C99.4797 123.996 98.9677 124.44 98.3197 124.76C97.6717 125.072 96.9277 125.228 96.0877 125.228ZM95.8117 121.82V120.548H100.588V121.82H95.8117ZM101.86 125V116.24H103.528V121.352H103.24C103.24 120.696 103.324 120.14 103.492 119.684C103.66 119.228 103.908 118.88 104.236 118.64C104.572 118.4 104.996 118.28 105.508 118.28H105.58C106.324 118.28 106.888 118.536 107.272 119.048C107.656 119.56 107.848 120.304 107.848 121.28V125H106.18V121.124C106.18 120.708 106.06 120.38 105.82 120.14C105.588 119.9 105.28 119.78 104.896 119.78C104.488 119.78 104.156 119.916 103.9 120.188C103.652 120.452 103.528 120.8 103.528 121.232V125H101.86ZM113.589 125V123.068H113.313V120.92C113.313 120.544 113.221 120.264 113.037 120.08C112.853 119.896 112.569 119.804 112.185 119.804C111.985 119.804 111.745 119.808 111.465 119.816C111.185 119.824 110.901 119.836 110.613 119.852C110.333 119.86 110.081 119.872 109.857 119.888V118.472C110.041 118.456 110.249 118.44 110.481 118.424C110.713 118.408 110.949 118.4 111.189 118.4C111.437 118.392 111.669 118.388 111.885 118.388C112.557 118.388 113.113 118.476 113.553 118.652C114.001 118.828 114.337 119.104 114.561 119.48C114.793 119.856 114.909 120.348 114.909 120.956V125H113.589ZM111.489 125.168C111.017 125.168 110.601 125.084 110.241 124.916C109.889 124.748 109.613 124.508 109.413 124.196C109.221 123.884 109.125 123.508 109.125 123.068C109.125 122.588 109.241 122.196 109.473 121.892C109.713 121.588 110.045 121.36 110.469 121.208C110.901 121.056 111.405 120.98 111.981 120.98H113.493V121.976H111.957C111.573 121.976 111.277 122.072 111.069 122.264C110.869 122.448 110.769 122.688 110.769 122.984C110.769 123.28 110.869 123.52 111.069 123.704C111.277 123.888 111.573 123.98 111.957 123.98C112.189 123.98 112.401 123.94 112.593 123.86C112.793 123.772 112.957 123.628 113.085 123.428C113.221 123.22 113.297 122.94 113.313 122.588L113.721 123.056C113.681 123.512 113.569 123.896 113.385 124.208C113.209 124.52 112.961 124.76 112.641 124.928C112.329 125.088 111.945 125.168 111.489 125.168ZM119.528 125.084C118.928 125.084 118.432 125.008 118.04 124.856C117.656 124.696 117.368 124.432 117.176 124.064C116.984 123.688 116.888 123.184 116.888 122.552L116.9 116.648H118.46L118.448 122.66C118.448 122.98 118.532 123.228 118.7 123.404C118.876 123.572 119.124 123.656 119.444 123.656H120.464V125.084H119.528ZM115.856 119.708V118.484H120.464V119.708H115.856ZM125.789 125V123.068H125.513V120.92C125.513 120.544 125.421 120.264 125.237 120.08C125.053 119.896 124.769 119.804 124.385 119.804C124.185 119.804 123.945 119.808 123.665 119.816C123.385 119.824 123.101 119.836 122.813 119.852C122.533 119.86 122.281 119.872 122.057 119.888V118.472C122.241 118.456 122.449 118.44 122.681 118.424C122.913 118.408 123.149 118.4 123.389 118.4C123.637 118.392 123.869 118.388 124.085 118.388C124.757 118.388 125.313 118.476 125.753 118.652C126.201 118.828 126.537 119.104 126.761 119.48C126.993 119.856 127.109 120.348 127.109 120.956V125H125.789ZM123.689 125.168C123.217 125.168 122.801 125.084 122.441 124.916C122.089 124.748 121.813 124.508 121.613 124.196C121.421 123.884 121.325 123.508 121.325 123.068C121.325 122.588 121.441 122.196 121.673 121.892C121.913 121.588 122.245 121.36 122.669 121.208C123.101 121.056 123.605 120.98 124.181 120.98H125.693V121.976H124.157C123.773 121.976 123.477 122.072 123.269 122.264C123.069 122.448 122.969 122.688 122.969 122.984C122.969 123.28 123.069 123.52 123.269 123.704C123.477 123.888 123.773 123.98 124.157 123.98C124.389 123.98 124.601 123.94 124.793 123.86C124.993 123.772 125.157 123.628 125.285 123.428C125.421 123.22 125.497 122.94 125.513 122.588L125.921 123.056C125.881 123.512 125.769 123.896 125.585 124.208C125.409 124.52 125.161 124.76 124.841 124.928C124.529 125.088 124.145 125.168 123.689 125.168ZM131.259 125.204C130.363 125.204 129.659 125.016 129.147 124.64C128.643 124.256 128.379 123.728 128.355 123.056H129.855C129.879 123.28 130.003 123.484 130.227 123.668C130.451 123.852 130.803 123.944 131.283 123.944C131.683 123.944 131.999 123.872 132.231 123.728C132.471 123.584 132.591 123.388 132.591 123.14C132.591 122.924 132.499 122.752 132.315 122.624C132.139 122.496 131.835 122.412 131.403 122.372L130.827 122.312C130.099 122.232 129.539 122.024 129.147 121.688C128.755 121.352 128.559 120.904 128.559 120.344C128.559 119.896 128.671 119.52 128.895 119.216C129.119 118.912 129.427 118.684 129.819 118.532C130.219 118.372 130.675 118.292 131.187 118.292C131.987 118.292 132.635 118.468 133.131 118.82C133.627 119.172 133.887 119.688 133.911 120.368H132.411C132.395 120.144 132.283 119.952 132.075 119.792C131.867 119.632 131.567 119.552 131.175 119.552C130.823 119.552 130.551 119.62 130.359 119.756C130.167 119.892 130.071 120.068 130.071 120.284C130.071 120.492 130.147 120.652 130.299 120.764C130.459 120.876 130.715 120.952 131.067 120.992L131.643 121.052C132.411 121.132 133.011 121.344 133.443 121.688C133.883 122.032 134.103 122.496 134.103 123.08C134.103 123.512 133.983 123.888 133.743 124.208C133.511 124.52 133.183 124.764 132.759 124.94C132.335 125.116 131.835 125.204 131.259 125.204ZM135.481 125V116.24H137.149V121.352H136.861C136.861 120.696 136.945 120.14 137.113 119.684C137.281 119.228 137.529 118.88 137.857 118.64C138.193 118.4 138.617 118.28 139.129 118.28H139.201C139.945 118.28 140.509 118.536 140.893 119.048C141.277 119.56 141.469 120.304 141.469 121.28V125H139.801V121.124C139.801 120.708 139.681 120.38 139.441 120.14C139.209 119.9 138.901 119.78 138.517 119.78C138.109 119.78 137.777 119.916 137.521 120.188C137.273 120.452 137.149 120.8 137.149 121.232V125H135.481ZM146.178 125.228C145.618 125.228 145.126 125.132 144.702 124.94C144.286 124.748 143.938 124.492 143.658 124.172C143.386 123.844 143.178 123.48 143.034 123.08C142.898 122.68 142.83 122.272 142.83 121.856V121.628C142.83 121.196 142.898 120.78 143.034 120.38C143.178 119.972 143.386 119.612 143.658 119.3C143.938 118.98 144.282 118.728 144.69 118.544C145.098 118.352 145.57 118.256 146.106 118.256C146.81 118.256 147.398 118.412 147.87 118.724C148.35 119.028 148.71 119.432 148.95 119.936C149.19 120.432 149.31 120.968 149.31 121.544V122.144H143.538V121.124H148.266L147.75 121.628C147.75 121.212 147.69 120.856 147.57 120.56C147.45 120.264 147.266 120.036 147.018 119.876C146.778 119.716 146.474 119.636 146.106 119.636C145.738 119.636 145.426 119.72 145.17 119.888C144.914 120.056 144.718 120.3 144.582 120.62C144.454 120.932 144.39 121.308 144.39 121.748C144.39 122.156 144.454 122.52 144.582 122.84C144.71 123.152 144.906 123.4 145.17 123.584C145.434 123.76 145.77 123.848 146.178 123.848C146.586 123.848 146.918 123.768 147.174 123.608C147.43 123.44 147.594 123.236 147.666 122.996H149.202C149.106 123.444 148.922 123.836 148.65 124.172C148.378 124.508 148.03 124.768 147.606 124.952C147.19 125.136 146.714 125.228 146.178 125.228ZM150.704 125V116.24H152.372V121.352H152.084C152.084 120.696 152.168 120.14 152.336 119.684C152.504 119.228 152.752 118.88 153.08 118.64C153.416 118.4 153.84 118.28 154.352 118.28H154.424C155.168 118.28 155.732 118.536 156.116 119.048C156.5 119.56 156.692 120.304 156.692 121.28V125H155.024V121.124C155.024 120.708 154.904 120.38 154.664 120.14C154.432 119.9 154.124 119.78 153.74 119.78C153.332 119.78 153 119.916 152.744 120.188C152.496 120.452 152.372 120.8 152.372 121.232V125H150.704Z" fill="white"/>
<path d="M273.137 120.596L271.313 119.276V117.98L273.137 116.66L273.797 117.824L272.297 118.448V118.808L273.797 119.432L273.137 120.596ZM271.373 115.616L271.145 117.86L270.017 118.508L267.965 117.584L268.637 116.432L269.933 117.416L270.245 117.236L270.029 115.628L271.373 115.616ZM267.965 119.672L270.017 118.748L271.145 119.396L271.373 121.64L270.041 121.616L270.245 120.02L269.933 119.84L268.637 120.812L267.965 119.672ZM279.969 120.596L278.145 119.276V117.98L279.969 116.66L280.629 117.824L279.129 118.448V118.808L280.629 119.432L279.969 120.596ZM278.205 115.616L277.977 117.86L276.849 118.508L274.797 117.584L275.469 116.432L276.765 117.416L277.077 117.236L276.861 115.628L278.205 115.616ZM274.797 119.672L276.849 118.748L277.977 119.396L278.205 121.64L276.873 121.616L277.077 120.02L276.765 119.84L275.469 120.812L274.797 119.672ZM286.801 120.596L284.977 119.276V117.98L286.801 116.66L287.461 117.824L285.961 118.448V118.808L287.461 119.432L286.801 120.596ZM285.037 115.616L284.809 117.86L283.681 118.508L281.629 117.584L282.301 116.432L283.597 117.416L283.909 117.236L283.693 115.628L285.037 115.616ZM281.629 119.672L283.681 118.748L284.809 119.396L285.037 121.64L283.705 121.616L283.909 120.02L283.597 119.84L282.301 120.812L281.629 119.672ZM293.633 120.596L291.809 119.276V117.98L293.633 116.66L294.293 117.824L292.793 118.448V118.808L294.293 119.432L293.633 120.596ZM291.869 115.616L291.641 117.86L290.513 118.508L288.461 117.584L289.133 116.432L290.429 117.416L290.741 117.236L290.525 115.628L291.869 115.616ZM288.461 119.672L290.513 118.748L291.641 119.396L291.869 121.64L290.537 121.616L290.741 120.02L290.429 119.84L289.133 120.812L288.461 119.672ZM301.051 125.228C300.379 125.228 299.799 125.1 299.311 124.844C298.831 124.588 298.463 124.248 298.207 123.824C297.951 123.392 297.823 122.912 297.823 122.384H299.467C299.467 122.808 299.607 123.152 299.887 123.416C300.175 123.672 300.563 123.8 301.051 123.8C301.379 123.8 301.659 123.74 301.891 123.62C302.131 123.492 302.315 123.32 302.443 123.104C302.571 122.88 302.635 122.624 302.635 122.336C302.635 121.904 302.495 121.552 302.215 121.28C301.935 121 301.551 120.86 301.063 120.86C300.823 120.86 300.611 120.892 300.427 120.956C300.251 121.02 300.095 121.104 299.959 121.208L299.179 119.864L302.059 117.896L301.951 117.692H298.183V116.24H303.907V117.992L300.943 119.96L300.019 119.792C300.171 119.744 300.335 119.708 300.511 119.684C300.687 119.652 300.879 119.636 301.087 119.636C301.751 119.636 302.319 119.752 302.791 119.984C303.271 120.208 303.639 120.52 303.895 120.92C304.151 121.32 304.279 121.78 304.279 122.3V122.456C304.279 122.96 304.151 123.424 303.895 123.848C303.639 124.264 303.271 124.6 302.791 124.856C302.311 125.104 301.731 125.228 301.051 125.228ZM305.671 125V123.32C305.671 122.952 305.727 122.632 305.839 122.36C305.959 122.088 306.151 121.848 306.415 121.64C306.687 121.424 307.043 121.22 307.483 121.028L308.971 120.368C309.339 120.2 309.619 119.996 309.811 119.756C310.011 119.508 310.111 119.192 310.111 118.808C310.111 118.384 309.983 118.048 309.727 117.8C309.479 117.544 309.123 117.416 308.659 117.416C308.195 117.416 307.835 117.544 307.579 117.8C307.331 118.056 307.207 118.412 307.207 118.868H305.563C305.563 118.324 305.679 117.836 305.911 117.404C306.143 116.964 306.487 116.62 306.943 116.372C307.399 116.116 307.971 115.988 308.659 115.988C309.347 115.988 309.919 116.112 310.375 116.36C310.831 116.608 311.175 116.94 311.407 117.356C311.639 117.764 311.755 118.22 311.755 118.724V118.88C311.755 119.536 311.571 120.084 311.203 120.524C310.835 120.956 310.295 121.332 309.583 121.652L308.095 122.312C307.815 122.432 307.619 122.56 307.507 122.696C307.395 122.824 307.339 123 307.339 123.224V123.992L306.931 123.548H311.791V125H305.671ZM312.87 123.188V121.34L316.302 116L317.586 116.876L314.562 121.604L314.706 121.844H320.082V123.188H312.87ZM317.454 125V118.724H319.026V125H317.454ZM324.235 125.228C323.547 125.228 322.955 125.092 322.459 124.82C321.971 124.548 321.595 124.188 321.331 123.74C321.075 123.284 320.947 122.788 320.947 122.252H322.591C322.591 122.556 322.659 122.824 322.795 123.056C322.939 123.288 323.135 123.472 323.383 123.608C323.631 123.736 323.919 123.8 324.247 123.8C324.591 123.8 324.887 123.728 325.135 123.584C325.383 123.44 325.571 123.244 325.699 122.996C325.835 122.748 325.903 122.464 325.903 122.144C325.903 121.832 325.835 121.552 325.699 121.304C325.571 121.048 325.383 120.848 325.135 120.704C324.895 120.552 324.603 120.476 324.259 120.476C323.971 120.476 323.699 120.532 323.443 120.644C323.187 120.756 322.987 120.904 322.843 121.088H321.271L321.715 116.24H326.791V117.692H322.459L323.059 117.224L322.771 120.248L322.363 120.128C322.595 119.864 322.879 119.644 323.215 119.468C323.551 119.292 323.975 119.204 324.487 119.204C325.135 119.204 325.687 119.336 326.143 119.6C326.599 119.864 326.947 120.216 327.187 120.656C327.427 121.088 327.547 121.56 327.547 122.072V122.228C327.547 122.748 327.419 123.236 327.163 123.692C326.907 124.148 326.531 124.52 326.035 124.808C325.547 125.088 324.947 125.228 324.235 125.228Z" fill="white"/>
<circle opacity="0.5" cx="248" cy="298" r="96" fill="#6F45E9"/>
<circle cx="313" cy="252" r="80.5" stroke="#FDC228"/>
<circle opacity="0.5" cx="72" cy="114" r="95.5" stroke="#6F45E9"/>
<path d="M34.208 239.048V238.016H36.656C37.128 238.016 37.492 237.884 37.748 237.62C38.012 237.348 38.144 236.988 38.144 236.54C38.144 236.084 38.016 235.728 37.76 235.472C37.504 235.208 37.136 235.076 36.656 235.076H34.208V234.308H36.488C37.048 234.308 37.54 234.376 37.964 234.512C38.396 234.648 38.732 234.876 38.972 235.196C39.22 235.508 39.344 235.936 39.344 236.48V236.648C39.344 237.16 39.24 237.596 39.032 237.956C38.824 238.308 38.508 238.58 38.084 238.772C37.66 238.956 37.128 239.048 36.488 239.048H34.208ZM33.272 239.048V230.192H34.448V239.048H33.272ZM34.208 234.86V234.092H36.332C36.828 234.092 37.192 233.96 37.424 233.696C37.664 233.424 37.784 233.08 37.784 232.664C37.784 232.24 37.664 231.896 37.424 231.632C37.192 231.36 36.828 231.224 36.332 231.224H34.208V230.192H36.128C37.088 230.192 37.804 230.396 38.276 230.804C38.748 231.204 38.984 231.784 38.984 232.544V232.712C38.984 233.248 38.864 233.676 38.624 233.996C38.384 234.308 38.048 234.532 37.616 234.668C37.192 234.796 36.696 234.86 36.128 234.86H34.208ZM45.1363 239V237.08H44.9443V234.86C44.9443 234.42 44.8283 234.088 44.5963 233.864C44.3723 233.64 44.0403 233.528 43.6003 233.528C43.3523 233.528 43.0963 233.532 42.8323 233.54C42.5683 233.548 42.3163 233.556 42.0763 233.564C41.8363 233.572 41.6283 233.584 41.4523 233.6V232.592C41.6283 232.576 41.8123 232.564 42.0043 232.556C42.2043 232.54 42.4083 232.532 42.6163 232.532C42.8243 232.524 43.0243 232.52 43.2163 232.52C43.8723 232.52 44.4083 232.6 44.8243 232.76C45.2403 232.912 45.5483 233.164 45.7483 233.516C45.9483 233.868 46.0483 234.344 46.0483 234.944V239H45.1363ZM43.0363 239.168C42.5563 239.168 42.1403 239.088 41.7883 238.928C41.4443 238.76 41.1763 238.52 40.9843 238.208C40.8003 237.896 40.7083 237.52 40.7083 237.08C40.7083 236.624 40.8083 236.244 41.0083 235.94C41.2163 235.636 41.5163 235.408 41.9083 235.256C42.3003 235.096 42.7723 235.016 43.3242 235.016H45.0643V235.88H43.2763C42.8123 235.88 42.4563 235.992 42.2083 236.216C41.9603 236.44 41.8363 236.728 41.8363 237.08C41.8363 237.432 41.9603 237.716 42.2083 237.932C42.4563 238.148 42.8123 238.256 43.2763 238.256C43.5483 238.256 43.8083 238.208 44.0563 238.112C44.3043 238.008 44.5083 237.84 44.6683 237.608C44.8363 237.368 44.9283 237.04 44.9443 236.624L45.2563 237.08C45.2163 237.536 45.1043 237.92 44.9203 238.232C44.7443 238.536 44.4963 238.768 44.1763 238.928C43.8643 239.088 43.4843 239.168 43.0363 239.168ZM48.2346 239V230.24H49.3866V239H48.2346ZM47.3466 231.152V230.24H49.3866V231.152H47.3466ZM55.4722 239V237.08H55.2802V234.86C55.2802 234.42 55.1642 234.088 54.9322 233.864C54.7082 233.64 54.3762 233.528 53.9362 233.528C53.6882 233.528 53.4322 233.532 53.1682 233.54C52.9042 233.548 52.6522 233.556 52.4122 233.564C52.1722 233.572 51.9642 233.584 51.7882 233.6V232.592C51.9642 232.576 52.1482 232.564 52.3402 232.556C52.5402 232.54 52.7442 232.532 52.9522 232.532C53.1602 232.524 53.3602 232.52 53.5522 232.52C54.2082 232.52 54.7442 232.6 55.1602 232.76C55.5762 232.912 55.8842 233.164 56.0842 233.516C56.2842 233.868 56.3842 234.344 56.3842 234.944V239H55.4722ZM53.3722 239.168C52.8922 239.168 52.4762 239.088 52.1242 238.928C51.7802 238.76 51.5122 238.52 51.3202 238.208C51.1362 237.896 51.0442 237.52 51.0442 237.08C51.0442 236.624 51.1442 236.244 51.3442 235.94C51.5522 235.636 51.8522 235.408 52.2442 235.256C52.6362 235.096 53.1082 235.016 53.6602 235.016H55.4002V235.88H53.6122C53.1482 235.88 52.7922 235.992 52.5442 236.216C52.2962 236.44 52.1722 236.728 52.1722 237.08C52.1722 237.432 52.2962 237.716 52.5442 237.932C52.7922 238.148 53.1482 238.256 53.6122 238.256C53.8842 238.256 54.1442 238.208 54.3922 238.112C54.6402 238.008 54.8442 237.84 55.0042 237.608C55.1722 237.368 55.2642 237.04 55.2802 236.624L55.5922 237.08C55.5522 237.536 55.4402 237.92 55.2562 238.232C55.0802 238.536 54.8322 238.768 54.5122 238.928C54.2002 239.088 53.8202 239.168 53.3722 239.168ZM58.4985 239V232.592H59.4105V235.34H59.2665C59.2665 234.708 59.3505 234.176 59.5185 233.744C59.6945 233.304 59.9585 232.972 60.3105 232.748C60.6625 232.516 61.1065 232.4 61.6425 232.4H61.6905C62.4985 232.4 63.0945 232.652 63.4785 233.156C63.8705 233.66 64.0665 234.388 64.0665 235.34V239H62.9145V235.1C62.9145 234.604 62.7745 234.208 62.4945 233.912C62.2145 233.608 61.8305 233.456 61.3425 233.456C60.8385 233.456 60.4305 233.612 60.1185 233.924C59.8065 234.236 59.6505 234.652 59.6505 235.172V239H58.4985ZM68.9223 239.216C68.3703 239.216 67.8903 239.12 67.4823 238.928C67.0823 238.736 66.7503 238.48 66.4863 238.16C66.2223 237.832 66.0223 237.472 65.8863 237.08C65.7583 236.688 65.6943 236.296 65.6943 235.904V235.688C65.6943 235.28 65.7583 234.88 65.8863 234.488C66.0223 234.096 66.2223 233.744 66.4863 233.432C66.7583 233.112 67.0943 232.856 67.4943 232.664C67.8943 232.472 68.3623 232.376 68.8983 232.376C69.4343 232.376 69.9143 232.476 70.3383 232.676C70.7703 232.876 71.1143 233.16 71.3703 233.528C71.6343 233.888 71.7823 234.316 71.8143 234.812H70.7103C70.6543 234.412 70.4703 234.08 70.1583 233.816C69.8463 233.544 69.4263 233.408 68.8983 233.408C68.4423 233.408 68.0623 233.512 67.7583 233.72C67.4543 233.928 67.2263 234.212 67.0743 234.572C66.9223 234.932 66.8463 235.34 66.8463 235.796C66.8463 236.236 66.9223 236.64 67.0743 237.008C67.2263 237.368 67.4543 237.656 67.7583 237.872C68.0703 238.08 68.4583 238.184 68.9223 238.184C69.2823 238.184 69.5943 238.12 69.8583 237.992C70.1223 237.864 70.3343 237.692 70.4943 237.476C70.6543 237.26 70.7503 237.016 70.7823 236.744H71.8863C71.8623 237.248 71.7143 237.684 71.4423 238.052C71.1783 238.42 70.8263 238.708 70.3863 238.916C69.9543 239.116 69.4663 239.216 68.9223 239.216ZM76.1757 239.216C75.6157 239.216 75.1317 239.12 74.7237 238.928C74.3157 238.736 73.9837 238.484 73.7277 238.172C73.4717 237.852 73.2797 237.496 73.1517 237.104C73.0317 236.712 72.9717 236.312 72.9717 235.904V235.688C72.9717 235.272 73.0317 234.868 73.1517 234.476C73.2797 234.084 73.4717 233.732 73.7277 233.42C73.9837 233.1 74.3077 232.848 74.6997 232.664C75.0997 232.472 75.5677 232.376 76.1037 232.376C76.7997 232.376 77.3717 232.528 77.8197 232.832C78.2757 233.128 78.6117 233.512 78.8277 233.984C79.0517 234.456 79.1637 234.96 79.1637 235.496V236.012H73.4757V235.148H78.3237L78.0597 235.616C78.0597 235.16 77.9877 234.768 77.8437 234.44C77.6997 234.104 77.4837 233.844 77.1957 233.66C76.9077 233.476 76.5437 233.384 76.1037 233.384C75.6477 233.384 75.2677 233.488 74.9637 233.696C74.6677 233.904 74.4437 234.188 74.2917 234.548C74.1477 234.908 74.0757 235.324 74.0757 235.796C74.0757 236.252 74.1477 236.664 74.2917 237.032C74.4437 237.392 74.6757 237.68 74.9877 237.896C75.2997 238.104 75.6957 238.208 76.1757 238.208C76.6797 238.208 77.0877 238.096 77.3997 237.872C77.7197 237.648 77.9117 237.388 77.9757 237.092H79.0557C78.9677 237.532 78.7917 237.912 78.5277 238.232C78.2637 238.552 77.9317 238.796 77.5317 238.964C77.1317 239.132 76.6797 239.216 76.1757 239.216Z" fill="#E6DDFF"/>
<path d="M38.9144 267.063C37.5984 267.063 36.4924 266.867 35.5964 266.475C34.7144 266.069 34.0424 265.502 33.5804 264.774C33.1324 264.032 32.9084 263.157 32.9084 262.149H35.5964C35.5964 262.583 35.7084 262.996 35.9324 263.388C36.1564 263.78 36.5064 264.102 36.9824 264.354C37.4724 264.592 38.1164 264.711 38.9144 264.711C39.9644 264.711 40.7624 264.508 41.3084 264.102C41.8544 263.696 42.1274 263.192 42.1274 262.59C42.1274 262.044 41.8894 261.589 41.4134 261.225C40.9514 260.861 40.2304 260.637 39.2504 260.553L38.0744 260.448C36.6324 260.308 35.4844 259.874 34.6304 259.146C33.7764 258.404 33.3494 257.354 33.3494 255.996C33.3494 255.058 33.5594 254.267 33.9794 253.623C34.4134 252.979 35.0294 252.496 35.8274 252.174C36.6394 251.838 37.5984 251.67 38.7044 251.67C39.8524 251.67 40.8254 251.859 41.6234 252.237C42.4354 252.615 43.0514 253.161 43.4714 253.875C43.9054 254.575 44.1224 255.429 44.1224 256.437H41.4344C41.4344 256.003 41.3294 255.604 41.1194 255.24C40.9234 254.876 40.6224 254.582 40.2164 254.358C39.8244 254.134 39.3204 254.022 38.7044 254.022C38.1444 254.022 37.6684 254.106 37.2764 254.274C36.8844 254.442 36.5834 254.673 36.3734 254.967C36.1634 255.261 36.0584 255.604 36.0584 255.996C36.0584 256.486 36.2334 256.92 36.5834 257.298C36.9474 257.676 37.5284 257.9 38.3264 257.97L39.5024 258.075C41.1124 258.215 42.4004 258.663 43.3664 259.419C44.3464 260.175 44.8364 261.232 44.8364 262.59C44.8364 263.528 44.5984 264.333 44.1224 265.005C43.6604 265.663 42.9884 266.174 42.1064 266.538C41.2244 266.888 40.1604 267.063 38.9144 267.063ZM37.6334 269.709V266.643H40.0694V269.709H37.6334ZM37.5494 252.699V249.633H39.9854V252.699H37.5494ZM47.0911 267V264.06C47.0911 263.416 47.1891 262.856 47.3851 262.38C47.5951 261.904 47.9311 261.484 48.3931 261.12C48.8691 260.742 49.4921 260.385 50.2621 260.049L52.8661 258.894C53.5101 258.6 54.0001 258.243 54.3361 257.823C54.6861 257.389 54.8611 256.836 54.8611 256.164C54.8611 255.422 54.6371 254.834 54.1891 254.4C53.7551 253.952 53.1321 253.728 52.3201 253.728C51.5081 253.728 50.8781 253.952 50.4301 254.4C49.9961 254.848 49.7791 255.471 49.7791 256.269H46.9021C46.9021 255.317 47.1051 254.463 47.5111 253.707C47.9171 252.937 48.5191 252.335 49.3171 251.901C50.1151 251.453 51.1161 251.229 52.3201 251.229C53.5241 251.229 54.5251 251.446 55.3231 251.88C56.1211 252.314 56.7231 252.895 57.1291 253.623C57.5351 254.337 57.7381 255.135 57.7381 256.017V256.29C57.7381 257.438 57.4161 258.397 56.7721 259.167C56.1281 259.923 55.1831 260.581 53.9371 261.141L51.3331 262.296C50.8431 262.506 50.5001 262.73 50.3041 262.968C50.1081 263.192 50.0101 263.5 50.0101 263.892V265.236L49.2961 264.459H57.8011V267H47.0911ZM61.4331 270.486L59.1651 269.625L61.3071 263.535L63.7431 264.438L61.4331 270.486ZM70.9577 267.399C69.7817 267.399 68.7667 267.175 67.9127 266.727C67.0727 266.279 66.4287 265.684 65.9807 264.942C65.5327 264.186 65.3087 263.346 65.3087 262.422H68.1857C68.1857 263.164 68.4307 263.766 68.9207 264.228C69.4247 264.676 70.1037 264.9 70.9577 264.9C71.5317 264.9 72.0217 264.795 72.4277 264.585C72.8477 264.361 73.1697 264.06 73.3937 263.682C73.6177 263.29 73.7297 262.842 73.7297 262.338C73.7297 261.582 73.4847 260.966 72.9947 260.49C72.5047 260 71.8327 259.755 70.9787 259.755C70.5587 259.755 70.1877 259.811 69.8657 259.923C69.5577 260.035 69.2847 260.182 69.0467 260.364L67.6817 258.012L72.7217 254.568L72.5327 254.211H65.9387V251.67H75.9557V254.736L70.7687 258.18L69.1517 257.886C69.4177 257.802 69.7047 257.739 70.0127 257.697C70.3207 257.641 70.6567 257.613 71.0207 257.613C72.1827 257.613 73.1767 257.816 74.0027 258.222C74.8427 258.614 75.4867 259.16 75.9347 259.86C76.3827 260.56 76.6067 261.365 76.6067 262.275V262.548C76.6067 263.43 76.3827 264.242 75.9347 264.984C75.4867 265.712 74.8427 266.3 74.0027 266.748C73.1627 267.182 72.1477 267.399 70.9577 267.399ZM84.4602 267.399C83.2562 267.399 82.2202 267.161 81.3522 266.685C80.4982 266.209 79.8402 265.579 79.3782 264.795C78.9302 263.997 78.7062 263.129 78.7062 262.191H81.5832C81.5832 262.723 81.7022 263.192 81.9402 263.598C82.1922 264.004 82.5352 264.326 82.9692 264.564C83.4032 264.788 83.9072 264.9 84.4812 264.9C85.0832 264.9 85.6012 264.774 86.0352 264.522C86.4692 264.27 86.7982 263.927 87.0222 263.493C87.2602 263.059 87.3792 262.562 87.3792 262.002C87.3792 261.456 87.2602 260.966 87.0222 260.532C86.7982 260.084 86.4692 259.734 86.0352 259.482C85.6152 259.216 85.1042 259.083 84.5022 259.083C83.9982 259.083 83.5222 259.181 83.0742 259.377C82.6262 259.573 82.2762 259.832 82.0242 260.154H79.2732L80.0502 251.67H88.9332V254.211H81.3522L82.4022 253.392L81.8982 258.684L81.1842 258.474C81.5902 258.012 82.0872 257.627 82.6752 257.319C83.2632 257.011 84.0052 256.857 84.9012 256.857C86.0352 256.857 87.0012 257.088 87.7992 257.55C88.5972 258.012 89.2062 258.628 89.6262 259.398C90.0462 260.154 90.2562 260.98 90.2562 261.876V262.149C90.2562 263.059 90.0322 263.913 89.5842 264.711C89.1362 265.509 88.4782 266.16 87.6102 266.664C86.7562 267.154 85.7062 267.399 84.4602 267.399ZM91.8463 263.829V260.595L97.8523 251.25L100.099 252.783L94.8073 261.057L95.0593 261.477H104.467V263.829H91.8463ZM99.8683 267V256.017H102.619V267H99.8683Z" fill="white"/>
<path d="M307 269C308.061 269 309.078 269.421 309.828 270.172C310.579 270.922 311 271.939 311 273H307V269ZM307 262C313.075 262 318 266.925 318 273H316C316 270.613 315.052 268.324 313.364 266.636C311.676 264.948 309.387 264 307 264V262ZM307 255C316.941 255 325 263.059 325 273H323C323 264.163 315.837 257 307 257V255Z" fill="white"/>
</g>
</g>
<defs>
<filter id="filter0_d_119_475" x="-8" y="0" width="376" height="332" filterUnits="userSpaceOnUse" color-interpolation-filters="sRGB">
<feFlood flood-opacity="0" result="BackgroundImageFix"/>
<feColorMatrix in="SourceAlpha" type="matrix" values="0 0 0 0 0 0 0 0 0 0 0 0 0 0 0 0 0 0 127 0" result="hardAlpha"/>
<feOffset dy="16"/>
<feGaussianBlur stdDeviation="12"/>
<feComposite in2="hardAlpha" operator="out"/>
<feColorMatrix type="matrix" values="0 0 0 0 0 0 0 0 0 0 0 0 0 0 0 0 0 0 0.2 0"/>
<feBlend mode="normal" in2="BackgroundImageFix" result="effect1_dropShadow_119_475"/>
<feBlend mode="normal" in="SourceGraphic" in2="effect1_dropShadow_119_475" result="shape"/>
</filter>
<clipPath id="clip0_119_475">
<rect x="16" y="8" width="328" height="164" rx="16" fill="white"/>
</clipPath>
<clipPath id="clip1_119_475">
<rect x="16" y="52" width="328" height="164" rx="16" fill="white"/>
</clipPath>
<clipPath id="clip2_119_475">
<rect x="16" y="96" width="328" height="196" rx="16" fill="white"/>
</clipPath>
</defs>
</svg>
