<svg width="328" height="196" viewBox="0 0 328 196" fill="none" xmlns="http://www.w3.org/2000/svg">
<g clip-path="url(#clip0_117_1373)">
<rect width="328" height="196" rx="16" fill="#270685"/>
<path d="M16.6789 29L19.6669 20.24H22.4509L25.5229 29H23.7709L21.1669 21.404L21.7789 21.668H20.2789L20.9029 21.404L18.3829 29H16.6789ZM18.7669 26.672L19.3069 25.232H22.8589L23.3869 26.672H18.7669ZM30.5201 29.216C29.9841 29.216 29.5121 29.104 29.1041 28.88C28.6961 28.648 28.3761 28.312 28.1441 27.872C27.9121 27.432 27.7841 26.9 27.7601 26.276H28.0121V29H26.6921V20.24H28.3601V24.62L27.9161 25.304C27.9481 24.632 28.0801 24.072 28.3121 23.624C28.5521 23.176 28.8721 22.84 29.2721 22.616C29.6721 22.392 30.1241 22.28 30.6281 22.28C31.0761 22.28 31.4841 22.364 31.8521 22.532C32.2201 22.7 32.5361 22.936 32.8001 23.24C33.0641 23.536 33.2641 23.884 33.4001 24.284C33.5441 24.684 33.6161 25.12 33.6161 25.592V25.844C33.6161 26.316 33.5441 26.756 33.4001 27.164C33.2561 27.572 33.0481 27.932 32.7761 28.244C32.5041 28.548 32.1761 28.788 31.7921 28.964C31.4161 29.132 30.9921 29.216 30.5201 29.216ZM30.1481 27.812C30.5081 27.812 30.8201 27.724 31.0841 27.548C31.3561 27.364 31.5681 27.116 31.7201 26.804C31.8721 26.492 31.9481 26.132 31.9481 25.724C31.9481 25.308 31.8721 24.948 31.7201 24.644C31.5681 24.34 31.3561 24.104 31.0841 23.936C30.8201 23.768 30.5081 23.684 30.1481 23.684C29.8201 23.684 29.5161 23.756 29.2361 23.9C28.9641 24.044 28.7401 24.256 28.5641 24.536C28.3961 24.816 28.3121 25.152 28.3121 25.544V26.024C28.3121 26.4 28.4001 26.72 28.5761 26.984C28.7521 27.248 28.9801 27.452 29.2601 27.596C29.5401 27.74 29.8361 27.812 30.1481 27.812ZM37.7828 29.216C37.3268 29.216 36.9068 29.132 36.5228 28.964C36.1388 28.796 35.8068 28.56 35.5268 28.256C35.2468 27.952 35.0308 27.6 34.8788 27.2C34.7268 26.792 34.6508 26.352 34.6508 25.88V25.628C34.6508 25.164 34.7228 24.728 34.8668 24.32C35.0188 23.912 35.2268 23.556 35.4908 23.252C35.7628 22.948 36.0868 22.712 36.4628 22.544C36.8468 22.368 37.2708 22.28 37.7348 22.28C38.2468 22.28 38.6948 22.392 39.0788 22.616C39.4708 22.832 39.7828 23.16 40.0148 23.6C40.2468 24.04 40.3748 24.592 40.3988 25.256L39.9068 24.68V20.24H41.5748V29H40.2548V26.228H40.5428C40.5188 26.892 40.3828 27.448 40.1348 27.896C39.8868 28.336 39.5588 28.668 39.1508 28.892C38.7508 29.108 38.2948 29.216 37.7828 29.216ZM38.1548 27.812C38.4828 27.812 38.7828 27.74 39.0548 27.596C39.3268 27.444 39.5428 27.228 39.7028 26.948C39.8708 26.66 39.9548 26.324 39.9548 25.94V25.46C39.9548 25.076 39.8708 24.756 39.7028 24.5C39.5348 24.236 39.3148 24.036 39.0428 23.9C38.7708 23.756 38.4748 23.684 38.1548 23.684C37.7948 23.684 37.4748 23.772 37.1948 23.948C36.9228 24.116 36.7068 24.356 36.5468 24.668C36.3948 24.98 36.3188 25.344 36.3188 25.76C36.3188 26.176 36.3988 26.54 36.5588 26.852C36.7188 27.156 36.9348 27.392 37.2068 27.56C37.4868 27.728 37.8028 27.812 38.1548 27.812ZM45.6934 29.204C44.9414 29.204 44.3574 28.956 43.9414 28.46C43.5334 27.964 43.3294 27.228 43.3294 26.252V22.472H44.9974V26.396C44.9974 26.796 45.1094 27.116 45.3334 27.356C45.5574 27.588 45.8614 27.704 46.2454 27.704C46.6294 27.704 46.9414 27.58 47.1814 27.332C47.4294 27.084 47.5534 26.748 47.5534 26.324V22.472H49.2214V29H47.9014V26.228H48.0334C48.0334 26.884 47.9494 27.432 47.7814 27.872C47.6134 28.312 47.3614 28.644 47.0254 28.868C46.6894 29.092 46.2694 29.204 45.7654 29.204H45.6934ZM51.2215 29V20.24H52.8895V29H51.2215ZM50.4055 21.488V20.24H52.8895V21.488H50.4055ZM54.8777 29V20.24H56.5457V29H54.8777ZM54.0617 21.488V20.24H56.5457V21.488H54.0617ZM62.398 29V27.068H62.122V24.92C62.122 24.544 62.03 24.264 61.846 24.08C61.662 23.896 61.378 23.804 60.994 23.804C60.794 23.804 60.554 23.808 60.274 23.816C59.994 23.824 59.71 23.836 59.422 23.852C59.142 23.86 58.89 23.872 58.666 23.888V22.472C58.85 22.456 59.058 22.44 59.29 22.424C59.522 22.408 59.758 22.4 59.998 22.4C60.246 22.392 60.478 22.388 60.694 22.388C61.366 22.388 61.922 22.476 62.362 22.652C62.81 22.828 63.146 23.104 63.37 23.48C63.602 23.856 63.718 24.348 63.718 24.956V29H62.398ZM60.298 29.168C59.826 29.168 59.41 29.084 59.05 28.916C58.698 28.748 58.422 28.508 58.222 28.196C58.03 27.884 57.934 27.508 57.934 27.068C57.934 26.588 58.05 26.196 58.282 25.892C58.522 25.588 58.854 25.36 59.278 25.208C59.71 25.056 60.214 24.98 60.79 24.98H62.302V25.976H60.766C60.382 25.976 60.086 26.072 59.878 26.264C59.678 26.448 59.578 26.688 59.578 26.984C59.578 27.28 59.678 27.52 59.878 27.704C60.086 27.888 60.382 27.98 60.766 27.98C60.998 27.98 61.21 27.94 61.402 27.86C61.602 27.772 61.766 27.628 61.894 27.428C62.03 27.22 62.106 26.94 62.122 26.588L62.53 27.056C62.49 27.512 62.378 27.896 62.194 28.208C62.018 28.52 61.77 28.76 61.45 28.928C61.138 29.088 60.754 29.168 60.298 29.168ZM65.5046 29V20.24H67.1726V25.352H66.8846C66.8846 24.696 66.9686 24.14 67.1366 23.684C67.3046 23.228 67.5526 22.88 67.8806 22.64C68.2166 22.4 68.6406 22.28 69.1526 22.28H69.2246C69.9686 22.28 70.5326 22.536 70.9166 23.048C71.3006 23.56 71.4926 24.304 71.4926 25.28V29H69.8246V25.124C69.8246 24.708 69.7046 24.38 69.4646 24.14C69.2326 23.9 68.9246 23.78 68.5406 23.78C68.1326 23.78 67.8006 23.916 67.5446 24.188C67.2966 24.452 67.1726 24.8 67.1726 25.232V29H65.5046ZM80.0877 29.228C79.3357 29.228 78.6717 29.104 78.0957 28.856C77.5277 28.6 77.0477 28.26 76.6557 27.836C76.2717 27.404 75.9797 26.92 75.7797 26.384C75.5877 25.84 75.4917 25.276 75.4917 24.692V24.428C75.4917 23.876 75.5877 23.336 75.7797 22.808C75.9717 22.28 76.2517 21.804 76.6197 21.38C76.9957 20.956 77.4557 20.62 77.9997 20.372C78.5517 20.116 79.1837 19.988 79.8957 19.988C80.6637 19.988 81.3437 20.132 81.9357 20.42C82.5277 20.7 83.0037 21.096 83.3637 21.608C83.7237 22.112 83.9357 22.7 83.9997 23.372H82.2837C82.2277 22.996 82.0877 22.676 81.8637 22.412C81.6397 22.14 81.3557 21.932 81.0117 21.788C80.6757 21.644 80.3037 21.572 79.8957 21.572C79.4877 21.572 79.1157 21.644 78.7797 21.788C78.4517 21.932 78.1717 22.136 77.9397 22.4C77.7077 22.664 77.5277 22.98 77.3997 23.348C77.2797 23.716 77.2197 24.124 77.2197 24.572C77.2197 25.06 77.2877 25.496 77.4237 25.88C77.5597 26.264 77.7517 26.592 77.9997 26.864C78.2477 27.128 78.5477 27.332 78.8997 27.476C79.2517 27.612 79.6477 27.68 80.0877 27.68C80.6717 27.68 81.1837 27.56 81.6237 27.32C82.0637 27.072 82.3837 26.752 82.5837 26.36L82.2837 27.74V25.484H83.8557V27.428C83.4797 27.996 82.9677 28.44 82.3197 28.76C81.6717 29.072 80.9277 29.228 80.0877 29.228ZM79.8117 25.82V24.548H84.5877V25.82H79.8117ZM85.8601 29V20.24H87.5281V25.352H87.2401C87.2401 24.696 87.3241 24.14 87.4921 23.684C87.6601 23.228 87.9081 22.88 88.2361 22.64C88.5721 22.4 88.9961 22.28 89.5081 22.28H89.5801C90.3241 22.28 90.8881 22.536 91.2721 23.048C91.6561 23.56 91.8481 24.304 91.8481 25.28V29H90.1801V25.124C90.1801 24.708 90.0601 24.38 89.8201 24.14C89.5881 23.9 89.2801 23.78 88.8961 23.78C88.4881 23.78 88.1561 23.916 87.9001 24.188C87.6521 24.452 87.5281 24.8 87.5281 25.232V29H85.8601ZM97.5894 29V27.068H97.3134V24.92C97.3134 24.544 97.2214 24.264 97.0374 24.08C96.8534 23.896 96.5694 23.804 96.1854 23.804C95.9854 23.804 95.7454 23.808 95.4654 23.816C95.1854 23.824 94.9014 23.836 94.6134 23.852C94.3334 23.86 94.0814 23.872 93.8574 23.888V22.472C94.0414 22.456 94.2494 22.44 94.4814 22.424C94.7134 22.408 94.9494 22.4 95.1894 22.4C95.4374 22.392 95.6694 22.388 95.8854 22.388C96.5574 22.388 97.1134 22.476 97.5534 22.652C98.0014 22.828 98.3374 23.104 98.5614 23.48C98.7934 23.856 98.9094 24.348 98.9094 24.956V29H97.5894ZM95.4894 29.168C95.0174 29.168 94.6014 29.084 94.2414 28.916C93.8894 28.748 93.6134 28.508 93.4134 28.196C93.2214 27.884 93.1254 27.508 93.1254 27.068C93.1254 26.588 93.2414 26.196 93.4734 25.892C93.7134 25.588 94.0454 25.36 94.4694 25.208C94.9014 25.056 95.4054 24.98 95.9814 24.98H97.4934V25.976H95.9574C95.5734 25.976 95.2774 26.072 95.0694 26.264C94.8694 26.448 94.7694 26.688 94.7694 26.984C94.7694 27.28 94.8694 27.52 95.0694 27.704C95.2774 27.888 95.5734 27.98 95.9574 27.98C96.1894 27.98 96.4014 27.94 96.5934 27.86C96.7934 27.772 96.9574 27.628 97.0854 27.428C97.2214 27.22 97.2974 26.94 97.3134 26.588L97.7214 27.056C97.6814 27.512 97.5694 27.896 97.3854 28.208C97.2094 28.52 96.9614 28.76 96.6414 28.928C96.3294 29.088 95.9454 29.168 95.4894 29.168ZM103.528 29.084C102.928 29.084 102.432 29.008 102.04 28.856C101.656 28.696 101.368 28.432 101.176 28.064C100.984 27.688 100.888 27.184 100.888 26.552L100.9 20.648H102.46L102.448 26.66C102.448 26.98 102.532 27.228 102.7 27.404C102.876 27.572 103.124 27.656 103.444 27.656H104.464V29.084H103.528ZM99.856 23.708V22.484H104.464V23.708H99.856ZM109.789 29V27.068H109.513V24.92C109.513 24.544 109.421 24.264 109.237 24.08C109.053 23.896 108.769 23.804 108.385 23.804C108.185 23.804 107.945 23.808 107.665 23.816C107.385 23.824 107.101 23.836 106.813 23.852C106.533 23.86 106.281 23.872 106.057 23.888V22.472C106.241 22.456 106.449 22.44 106.681 22.424C106.913 22.408 107.149 22.4 107.389 22.4C107.637 22.392 107.869 22.388 108.085 22.388C108.757 22.388 109.313 22.476 109.753 22.652C110.201 22.828 110.537 23.104 110.761 23.48C110.993 23.856 111.109 24.348 111.109 24.956V29H109.789ZM107.689 29.168C107.217 29.168 106.801 29.084 106.441 28.916C106.089 28.748 105.813 28.508 105.613 28.196C105.421 27.884 105.325 27.508 105.325 27.068C105.325 26.588 105.441 26.196 105.673 25.892C105.913 25.588 106.245 25.36 106.669 25.208C107.101 25.056 107.605 24.98 108.181 24.98H109.693V25.976H108.157C107.773 25.976 107.477 26.072 107.269 26.264C107.069 26.448 106.969 26.688 106.969 26.984C106.969 27.28 107.069 27.52 107.269 27.704C107.477 27.888 107.773 27.98 108.157 27.98C108.389 27.98 108.601 27.94 108.793 27.86C108.993 27.772 109.157 27.628 109.285 27.428C109.421 27.22 109.497 26.94 109.513 26.588L109.921 27.056C109.881 27.512 109.769 27.896 109.585 28.208C109.409 28.52 109.161 28.76 108.841 28.928C108.529 29.088 108.145 29.168 107.689 29.168ZM115.259 29.204C114.363 29.204 113.659 29.016 113.147 28.64C112.643 28.256 112.379 27.728 112.355 27.056H113.855C113.879 27.28 114.003 27.484 114.227 27.668C114.451 27.852 114.803 27.944 115.283 27.944C115.683 27.944 115.999 27.872 116.231 27.728C116.471 27.584 116.591 27.388 116.591 27.14C116.591 26.924 116.499 26.752 116.315 26.624C116.139 26.496 115.835 26.412 115.403 26.372L114.827 26.312C114.099 26.232 113.539 26.024 113.147 25.688C112.755 25.352 112.559 24.904 112.559 24.344C112.559 23.896 112.671 23.52 112.895 23.216C113.119 22.912 113.427 22.684 113.819 22.532C114.219 22.372 114.675 22.292 115.187 22.292C115.987 22.292 116.635 22.468 117.131 22.82C117.627 23.172 117.887 23.688 117.911 24.368H116.411C116.395 24.144 116.283 23.952 116.075 23.792C115.867 23.632 115.567 23.552 115.175 23.552C114.823 23.552 114.551 23.62 114.359 23.756C114.167 23.892 114.071 24.068 114.071 24.284C114.071 24.492 114.147 24.652 114.299 24.764C114.459 24.876 114.715 24.952 115.067 24.992L115.643 25.052C116.411 25.132 117.011 25.344 117.443 25.688C117.883 26.032 118.103 26.496 118.103 27.08C118.103 27.512 117.983 27.888 117.743 28.208C117.511 28.52 117.183 28.764 116.759 28.94C116.335 29.116 115.835 29.204 115.259 29.204ZM119.481 29V20.24H121.149V25.352H120.861C120.861 24.696 120.945 24.14 121.113 23.684C121.281 23.228 121.529 22.88 121.857 22.64C122.193 22.4 122.617 22.28 123.129 22.28H123.201C123.945 22.28 124.509 22.536 124.893 23.048C125.277 23.56 125.469 24.304 125.469 25.28V29H123.801V25.124C123.801 24.708 123.681 24.38 123.441 24.14C123.209 23.9 122.901 23.78 122.517 23.78C122.109 23.78 121.777 23.916 121.521 24.188C121.273 24.452 121.149 24.8 121.149 25.232V29H119.481ZM130.178 29.228C129.618 29.228 129.126 29.132 128.702 28.94C128.286 28.748 127.938 28.492 127.658 28.172C127.386 27.844 127.178 27.48 127.034 27.08C126.898 26.68 126.83 26.272 126.83 25.856V25.628C126.83 25.196 126.898 24.78 127.034 24.38C127.178 23.972 127.386 23.612 127.658 23.3C127.938 22.98 128.282 22.728 128.69 22.544C129.098 22.352 129.57 22.256 130.106 22.256C130.81 22.256 131.398 22.412 131.87 22.724C132.35 23.028 132.71 23.432 132.95 23.936C133.19 24.432 133.31 24.968 133.31 25.544V26.144H127.538V25.124H132.266L131.75 25.628C131.75 25.212 131.69 24.856 131.57 24.56C131.45 24.264 131.266 24.036 131.018 23.876C130.778 23.716 130.474 23.636 130.106 23.636C129.738 23.636 129.426 23.72 129.17 23.888C128.914 24.056 128.718 24.3 128.582 24.62C128.454 24.932 128.39 25.308 128.39 25.748C128.39 26.156 128.454 26.52 128.582 26.84C128.71 27.152 128.906 27.4 129.17 27.584C129.434 27.76 129.77 27.848 130.178 27.848C130.586 27.848 130.918 27.768 131.174 27.608C131.43 27.44 131.594 27.236 131.666 26.996H133.202C133.106 27.444 132.922 27.836 132.65 28.172C132.378 28.508 132.03 28.768 131.606 28.952C131.19 29.136 130.714 29.228 130.178 29.228ZM134.704 29V20.24H136.372V25.352H136.084C136.084 24.696 136.168 24.14 136.336 23.684C136.504 23.228 136.752 22.88 137.08 22.64C137.416 22.4 137.84 22.28 138.352 22.28H138.424C139.168 22.28 139.732 22.536 140.116 23.048C140.5 23.56 140.692 24.304 140.692 25.28V29H139.024V25.124C139.024 24.708 138.904 24.38 138.664 24.14C138.432 23.9 138.124 23.78 137.74 23.78C137.332 23.78 137 23.916 136.744 24.188C136.496 24.452 136.372 24.8 136.372 25.232V29H134.704Z" fill="white"/>
<path d="M257.137 24.596L255.313 23.276V21.98L257.137 20.66L257.797 21.824L256.297 22.448V22.808L257.797 23.432L257.137 24.596ZM255.373 19.616L255.145 21.86L254.017 22.508L251.965 21.584L252.637 20.432L253.933 21.416L254.245 21.236L254.029 19.628L255.373 19.616ZM251.965 23.672L254.017 22.748L255.145 23.396L255.373 25.64L254.041 25.616L254.245 24.02L253.933 23.84L252.637 24.812L251.965 23.672ZM263.969 24.596L262.145 23.276V21.98L263.969 20.66L264.629 21.824L263.129 22.448V22.808L264.629 23.432L263.969 24.596ZM262.205 19.616L261.977 21.86L260.849 22.508L258.797 21.584L259.469 20.432L260.765 21.416L261.077 21.236L260.861 19.628L262.205 19.616ZM258.797 23.672L260.849 22.748L261.977 23.396L262.205 25.64L260.873 25.616L261.077 24.02L260.765 23.84L259.469 24.812L258.797 23.672ZM270.801 24.596L268.977 23.276V21.98L270.801 20.66L271.461 21.824L269.961 22.448V22.808L271.461 23.432L270.801 24.596ZM269.037 19.616L268.809 21.86L267.681 22.508L265.629 21.584L266.301 20.432L267.597 21.416L267.909 21.236L267.693 19.628L269.037 19.616ZM265.629 23.672L267.681 22.748L268.809 23.396L269.037 25.64L267.705 25.616L267.909 24.02L267.597 23.84L266.301 24.812L265.629 23.672ZM277.633 24.596L275.809 23.276V21.98L277.633 20.66L278.293 21.824L276.793 22.448V22.808L278.293 23.432L277.633 24.596ZM275.869 19.616L275.641 21.86L274.513 22.508L272.461 21.584L273.133 20.432L274.429 21.416L274.741 21.236L274.525 19.628L275.869 19.616ZM272.461 23.672L274.513 22.748L275.641 23.396L275.869 25.64L274.537 25.616L274.741 24.02L274.429 23.84L273.133 24.812L272.461 23.672ZM285.051 29.228C284.379 29.228 283.799 29.1 283.311 28.844C282.831 28.588 282.463 28.248 282.207 27.824C281.951 27.392 281.823 26.912 281.823 26.384H283.467C283.467 26.808 283.607 27.152 283.887 27.416C284.175 27.672 284.563 27.8 285.051 27.8C285.379 27.8 285.659 27.74 285.891 27.62C286.131 27.492 286.315 27.32 286.443 27.104C286.571 26.88 286.635 26.624 286.635 26.336C286.635 25.904 286.495 25.552 286.215 25.28C285.935 25 285.551 24.86 285.063 24.86C284.823 24.86 284.611 24.892 284.427 24.956C284.251 25.02 284.095 25.104 283.959 25.208L283.179 23.864L286.059 21.896L285.951 21.692H282.183V20.24H287.907V21.992L284.943 23.96L284.019 23.792C284.171 23.744 284.335 23.708 284.511 23.684C284.687 23.652 284.879 23.636 285.087 23.636C285.751 23.636 286.319 23.752 286.791 23.984C287.271 24.208 287.639 24.52 287.895 24.92C288.151 25.32 288.279 25.78 288.279 26.3V26.456C288.279 26.96 288.151 27.424 287.895 27.848C287.639 28.264 287.271 28.6 286.791 28.856C286.311 29.104 285.731 29.228 285.051 29.228ZM289.671 29V27.32C289.671 26.952 289.727 26.632 289.839 26.36C289.959 26.088 290.151 25.848 290.415 25.64C290.687 25.424 291.043 25.22 291.483 25.028L292.971 24.368C293.339 24.2 293.619 23.996 293.811 23.756C294.011 23.508 294.111 23.192 294.111 22.808C294.111 22.384 293.983 22.048 293.727 21.8C293.479 21.544 293.123 21.416 292.659 21.416C292.195 21.416 291.835 21.544 291.579 21.8C291.331 22.056 291.207 22.412 291.207 22.868H289.563C289.563 22.324 289.679 21.836 289.911 21.404C290.143 20.964 290.487 20.62 290.943 20.372C291.399 20.116 291.971 19.988 292.659 19.988C293.347 19.988 293.919 20.112 294.375 20.36C294.831 20.608 295.175 20.94 295.407 21.356C295.639 21.764 295.755 22.22 295.755 22.724V22.88C295.755 23.536 295.571 24.084 295.203 24.524C294.835 24.956 294.295 25.332 293.583 25.652L292.095 26.312C291.815 26.432 291.619 26.56 291.507 26.696C291.395 26.824 291.339 27 291.339 27.224V27.992L290.931 27.548H295.791V29H289.671ZM296.87 27.188V25.34L300.302 20L301.586 20.876L298.562 25.604L298.706 25.844H304.082V27.188H296.87ZM301.454 29V22.724H303.026V29H301.454ZM308.235 29.228C307.547 29.228 306.955 29.092 306.459 28.82C305.971 28.548 305.595 28.188 305.331 27.74C305.075 27.284 304.947 26.788 304.947 26.252H306.591C306.591 26.556 306.659 26.824 306.795 27.056C306.939 27.288 307.135 27.472 307.383 27.608C307.631 27.736 307.919 27.8 308.247 27.8C308.591 27.8 308.887 27.728 309.135 27.584C309.383 27.44 309.571 27.244 309.699 26.996C309.835 26.748 309.903 26.464 309.903 26.144C309.903 25.832 309.835 25.552 309.699 25.304C309.571 25.048 309.383 24.848 309.135 24.704C308.895 24.552 308.603 24.476 308.259 24.476C307.971 24.476 307.699 24.532 307.443 24.644C307.187 24.756 306.987 24.904 306.843 25.088H305.271L305.715 20.24H310.791V21.692H306.459L307.059 21.224L306.771 24.248L306.363 24.128C306.595 23.864 306.879 23.644 307.215 23.468C307.551 23.292 307.975 23.204 308.487 23.204C309.135 23.204 309.687 23.336 310.143 23.6C310.599 23.864 310.947 24.216 311.187 24.656C311.427 25.088 311.547 25.56 311.547 26.072V26.228C311.547 26.748 311.419 27.236 311.163 27.692C310.907 28.148 310.531 28.52 310.035 28.808C309.547 29.088 308.947 29.228 308.235 29.228Z" fill="white"/>
<circle opacity="0.5" cx="232" cy="202" r="96" fill="#6F45E9"/>
<circle cx="297" cy="156" r="80.5" stroke="#FDC228"/>
<circle opacity="0.5" cx="56" cy="18" r="95.5" stroke="#6F45E9"/>
<path d="M18.208 143.048V142.016H20.656C21.128 142.016 21.492 141.884 21.748 141.62C22.012 141.348 22.144 140.988 22.144 140.54C22.144 140.084 22.016 139.728 21.76 139.472C21.504 139.208 21.136 139.076 20.656 139.076H18.208V138.308H20.488C21.048 138.308 21.54 138.376 21.964 138.512C22.396 138.648 22.732 138.876 22.972 139.196C23.22 139.508 23.344 139.936 23.344 140.48V140.648C23.344 141.16 23.24 141.596 23.032 141.956C22.824 142.308 22.508 142.58 22.084 142.772C21.66 142.956 21.128 143.048 20.488 143.048H18.208ZM17.272 143.048V134.192H18.448V143.048H17.272ZM18.208 138.86V138.092H20.332C20.828 138.092 21.192 137.96 21.424 137.696C21.664 137.424 21.784 137.08 21.784 136.664C21.784 136.24 21.664 135.896 21.424 135.632C21.192 135.36 20.828 135.224 20.332 135.224H18.208V134.192H20.128C21.088 134.192 21.804 134.396 22.276 134.804C22.748 135.204 22.984 135.784 22.984 136.544V136.712C22.984 137.248 22.864 137.676 22.624 137.996C22.384 138.308 22.048 138.532 21.616 138.668C21.192 138.796 20.696 138.86 20.128 138.86H18.208ZM29.1363 143V141.08H28.9443V138.86C28.9443 138.42 28.8283 138.088 28.5963 137.864C28.3723 137.64 28.0403 137.528 27.6003 137.528C27.3523 137.528 27.0963 137.532 26.8323 137.54C26.5683 137.548 26.3163 137.556 26.0763 137.564C25.8363 137.572 25.6283 137.584 25.4523 137.6V136.592C25.6283 136.576 25.8123 136.564 26.0043 136.556C26.2043 136.54 26.4083 136.532 26.6163 136.532C26.8243 136.524 27.0243 136.52 27.2163 136.52C27.8723 136.52 28.4083 136.6 28.8243 136.76C29.2403 136.912 29.5483 137.164 29.7483 137.516C29.9483 137.868 30.0483 138.344 30.0483 138.944V143H29.1363ZM27.0363 143.168C26.5563 143.168 26.1403 143.088 25.7883 142.928C25.4443 142.76 25.1763 142.52 24.9843 142.208C24.8003 141.896 24.7083 141.52 24.7083 141.08C24.7083 140.624 24.8083 140.244 25.0083 139.94C25.2163 139.636 25.5163 139.408 25.9083 139.256C26.3003 139.096 26.7723 139.016 27.3242 139.016H29.0643V139.88H27.2763C26.8123 139.88 26.4563 139.992 26.2083 140.216C25.9603 140.44 25.8363 140.728 25.8363 141.08C25.8363 141.432 25.9603 141.716 26.2083 141.932C26.4563 142.148 26.8123 142.256 27.2763 142.256C27.5483 142.256 27.8083 142.208 28.0563 142.112C28.3043 142.008 28.5083 141.84 28.6683 141.608C28.8363 141.368 28.9283 141.04 28.9443 140.624L29.2563 141.08C29.2163 141.536 29.1043 141.92 28.9203 142.232C28.7443 142.536 28.4963 142.768 28.1763 142.928C27.8643 143.088 27.4843 143.168 27.0363 143.168ZM32.2346 143V134.24H33.3866V143H32.2346ZM31.3466 135.152V134.24H33.3866V135.152H31.3466ZM39.4722 143V141.08H39.2802V138.86C39.2802 138.42 39.1642 138.088 38.9322 137.864C38.7082 137.64 38.3762 137.528 37.9362 137.528C37.6882 137.528 37.4322 137.532 37.1682 137.54C36.9042 137.548 36.6522 137.556 36.4122 137.564C36.1722 137.572 35.9642 137.584 35.7882 137.6V136.592C35.9642 136.576 36.1482 136.564 36.3402 136.556C36.5402 136.54 36.7442 136.532 36.9522 136.532C37.1602 136.524 37.3602 136.52 37.5522 136.52C38.2082 136.52 38.7442 136.6 39.1602 136.76C39.5762 136.912 39.8842 137.164 40.0842 137.516C40.2842 137.868 40.3842 138.344 40.3842 138.944V143H39.4722ZM37.3722 143.168C36.8922 143.168 36.4762 143.088 36.1242 142.928C35.7802 142.76 35.5122 142.52 35.3202 142.208C35.1362 141.896 35.0442 141.52 35.0442 141.08C35.0442 140.624 35.1442 140.244 35.3442 139.94C35.5522 139.636 35.8522 139.408 36.2442 139.256C36.6362 139.096 37.1082 139.016 37.6602 139.016H39.4002V139.88H37.6122C37.1482 139.88 36.7922 139.992 36.5442 140.216C36.2962 140.44 36.1722 140.728 36.1722 141.08C36.1722 141.432 36.2962 141.716 36.5442 141.932C36.7922 142.148 37.1482 142.256 37.6122 142.256C37.8842 142.256 38.1442 142.208 38.3922 142.112C38.6402 142.008 38.8442 141.84 39.0042 141.608C39.1722 141.368 39.2642 141.04 39.2802 140.624L39.5922 141.08C39.5522 141.536 39.4402 141.92 39.2562 142.232C39.0802 142.536 38.8322 142.768 38.5122 142.928C38.2002 143.088 37.8202 143.168 37.3722 143.168ZM42.4985 143V136.592H43.4105V139.34H43.2665C43.2665 138.708 43.3505 138.176 43.5185 137.744C43.6945 137.304 43.9585 136.972 44.3105 136.748C44.6625 136.516 45.1065 136.4 45.6425 136.4H45.6905C46.4985 136.4 47.0945 136.652 47.4785 137.156C47.8705 137.66 48.0665 138.388 48.0665 139.34V143H46.9145V139.1C46.9145 138.604 46.7745 138.208 46.4945 137.912C46.2145 137.608 45.8305 137.456 45.3425 137.456C44.8385 137.456 44.4305 137.612 44.1185 137.924C43.8065 138.236 43.6505 138.652 43.6505 139.172V143H42.4985ZM52.9223 143.216C52.3703 143.216 51.8903 143.12 51.4823 142.928C51.0823 142.736 50.7503 142.48 50.4863 142.16C50.2223 141.832 50.0223 141.472 49.8863 141.08C49.7583 140.688 49.6943 140.296 49.6943 139.904V139.688C49.6943 139.28 49.7583 138.88 49.8863 138.488C50.0223 138.096 50.2223 137.744 50.4863 137.432C50.7583 137.112 51.0943 136.856 51.4943 136.664C51.8943 136.472 52.3623 136.376 52.8983 136.376C53.4343 136.376 53.9143 136.476 54.3383 136.676C54.7703 136.876 55.1143 137.16 55.3703 137.528C55.6343 137.888 55.7823 138.316 55.8143 138.812H54.7103C54.6543 138.412 54.4703 138.08 54.1583 137.816C53.8463 137.544 53.4263 137.408 52.8983 137.408C52.4423 137.408 52.0623 137.512 51.7583 137.72C51.4543 137.928 51.2263 138.212 51.0743 138.572C50.9223 138.932 50.8463 139.34 50.8463 139.796C50.8463 140.236 50.9223 140.64 51.0743 141.008C51.2263 141.368 51.4543 141.656 51.7583 141.872C52.0703 142.08 52.4583 142.184 52.9223 142.184C53.2823 142.184 53.5943 142.12 53.8583 141.992C54.1223 141.864 54.3343 141.692 54.4943 141.476C54.6543 141.26 54.7503 141.016 54.7823 140.744H55.8863C55.8623 141.248 55.7143 141.684 55.4423 142.052C55.1783 142.42 54.8263 142.708 54.3863 142.916C53.9543 143.116 53.4663 143.216 52.9223 143.216ZM60.1757 143.216C59.6157 143.216 59.1317 143.12 58.7237 142.928C58.3157 142.736 57.9837 142.484 57.7277 142.172C57.4717 141.852 57.2797 141.496 57.1517 141.104C57.0317 140.712 56.9717 140.312 56.9717 139.904V139.688C56.9717 139.272 57.0317 138.868 57.1517 138.476C57.2797 138.084 57.4717 137.732 57.7277 137.42C57.9837 137.1 58.3077 136.848 58.6997 136.664C59.0997 136.472 59.5677 136.376 60.1037 136.376C60.7997 136.376 61.3717 136.528 61.8197 136.832C62.2757 137.128 62.6117 137.512 62.8277 137.984C63.0517 138.456 63.1637 138.96 63.1637 139.496V140.012H57.4757V139.148H62.3237L62.0597 139.616C62.0597 139.16 61.9877 138.768 61.8437 138.44C61.6997 138.104 61.4837 137.844 61.1957 137.66C60.9077 137.476 60.5437 137.384 60.1037 137.384C59.6477 137.384 59.2677 137.488 58.9637 137.696C58.6677 137.904 58.4437 138.188 58.2917 138.548C58.1477 138.908 58.0757 139.324 58.0757 139.796C58.0757 140.252 58.1477 140.664 58.2917 141.032C58.4437 141.392 58.6757 141.68 58.9877 141.896C59.2997 142.104 59.6957 142.208 60.1757 142.208C60.6797 142.208 61.0877 142.096 61.3997 141.872C61.7197 141.648 61.9117 141.388 61.9757 141.092H63.0557C62.9677 141.532 62.7917 141.912 62.5277 142.232C62.2637 142.552 61.9317 142.796 61.5317 142.964C61.1317 143.132 60.6797 143.216 60.1757 143.216Z" fill="#E6DDFF"/>
<path d="M22.9144 171.063C21.5984 171.063 20.4924 170.867 19.5964 170.475C18.7144 170.069 18.0424 169.502 17.5804 168.774C17.1324 168.032 16.9084 167.157 16.9084 166.149H19.5964C19.5964 166.583 19.7084 166.996 19.9324 167.388C20.1564 167.78 20.5064 168.102 20.9824 168.354C21.4724 168.592 22.1164 168.711 22.9144 168.711C23.9644 168.711 24.7624 168.508 25.3084 168.102C25.8544 167.696 26.1274 167.192 26.1274 166.59C26.1274 166.044 25.8894 165.589 25.4134 165.225C24.9514 164.861 24.2304 164.637 23.2504 164.553L22.0744 164.448C20.6324 164.308 19.4844 163.874 18.6304 163.146C17.7764 162.404 17.3494 161.354 17.3494 159.996C17.3494 159.058 17.5594 158.267 17.9794 157.623C18.4134 156.979 19.0294 156.496 19.8274 156.174C20.6394 155.838 21.5984 155.67 22.7044 155.67C23.8524 155.67 24.8254 155.859 25.6234 156.237C26.4354 156.615 27.0514 157.161 27.4714 157.875C27.9054 158.575 28.1224 159.429 28.1224 160.437H25.4344C25.4344 160.003 25.3294 159.604 25.1194 159.24C24.9234 158.876 24.6224 158.582 24.2164 158.358C23.8244 158.134 23.3204 158.022 22.7044 158.022C22.1444 158.022 21.6684 158.106 21.2764 158.274C20.8844 158.442 20.5834 158.673 20.3734 158.967C20.1634 159.261 20.0584 159.604 20.0584 159.996C20.0584 160.486 20.2334 160.92 20.5834 161.298C20.9474 161.676 21.5284 161.9 22.3264 161.97L23.5024 162.075C25.1124 162.215 26.4004 162.663 27.3664 163.419C28.3464 164.175 28.8364 165.232 28.8364 166.59C28.8364 167.528 28.5984 168.333 28.1224 169.005C27.6604 169.663 26.9884 170.174 26.1064 170.538C25.2244 170.888 24.1604 171.063 22.9144 171.063ZM21.6334 173.709V170.643H24.0694V173.709H21.6334ZM21.5494 156.699V153.633H23.9854V156.699H21.5494ZM31.0911 171V168.06C31.0911 167.416 31.1891 166.856 31.3851 166.38C31.5951 165.904 31.9311 165.484 32.3931 165.12C32.8691 164.742 33.4921 164.385 34.2621 164.049L36.8661 162.894C37.5101 162.6 38.0001 162.243 38.3361 161.823C38.6861 161.389 38.8611 160.836 38.8611 160.164C38.8611 159.422 38.6371 158.834 38.1891 158.4C37.7551 157.952 37.1321 157.728 36.3201 157.728C35.5081 157.728 34.8781 157.952 34.4301 158.4C33.9961 158.848 33.7791 159.471 33.7791 160.269H30.9021C30.9021 159.317 31.1051 158.463 31.5111 157.707C31.9171 156.937 32.5191 156.335 33.3171 155.901C34.1151 155.453 35.1161 155.229 36.3201 155.229C37.5241 155.229 38.5251 155.446 39.3231 155.88C40.1211 156.314 40.7231 156.895 41.1291 157.623C41.5351 158.337 41.7381 159.135 41.7381 160.017V160.29C41.7381 161.438 41.4161 162.397 40.7721 163.167C40.1281 163.923 39.1831 164.581 37.9371 165.141L35.3331 166.296C34.8431 166.506 34.5001 166.73 34.3041 166.968C34.1081 167.192 34.0101 167.5 34.0101 167.892V169.236L33.2961 168.459H41.8011V171H31.0911ZM45.4331 174.486L43.1651 173.625L45.3071 167.535L47.7431 168.438L45.4331 174.486ZM54.9577 171.399C53.7817 171.399 52.7667 171.175 51.9127 170.727C51.0727 170.279 50.4287 169.684 49.9807 168.942C49.5327 168.186 49.3087 167.346 49.3087 166.422H52.1857C52.1857 167.164 52.4307 167.766 52.9207 168.228C53.4247 168.676 54.1037 168.9 54.9577 168.9C55.5317 168.9 56.0217 168.795 56.4277 168.585C56.8477 168.361 57.1697 168.06 57.3937 167.682C57.6177 167.29 57.7297 166.842 57.7297 166.338C57.7297 165.582 57.4847 164.966 56.9947 164.49C56.5047 164 55.8327 163.755 54.9787 163.755C54.5587 163.755 54.1877 163.811 53.8657 163.923C53.5577 164.035 53.2847 164.182 53.0467 164.364L51.6817 162.012L56.7217 158.568L56.5327 158.211H49.9387V155.67H59.9557V158.736L54.7687 162.18L53.1517 161.886C53.4177 161.802 53.7047 161.739 54.0127 161.697C54.3207 161.641 54.6567 161.613 55.0207 161.613C56.1827 161.613 57.1767 161.816 58.0027 162.222C58.8427 162.614 59.4867 163.16 59.9347 163.86C60.3827 164.56 60.6067 165.365 60.6067 166.275V166.548C60.6067 167.43 60.3827 168.242 59.9347 168.984C59.4867 169.712 58.8427 170.3 58.0027 170.748C57.1627 171.182 56.1477 171.399 54.9577 171.399ZM68.4602 171.399C67.2562 171.399 66.2202 171.161 65.3522 170.685C64.4982 170.209 63.8402 169.579 63.3782 168.795C62.9302 167.997 62.7062 167.129 62.7062 166.191H65.5832C65.5832 166.723 65.7022 167.192 65.9402 167.598C66.1922 168.004 66.5352 168.326 66.9692 168.564C67.4032 168.788 67.9072 168.9 68.4812 168.9C69.0832 168.9 69.6012 168.774 70.0352 168.522C70.4692 168.27 70.7982 167.927 71.0222 167.493C71.2602 167.059 71.3792 166.562 71.3792 166.002C71.3792 165.456 71.2602 164.966 71.0222 164.532C70.7982 164.084 70.4692 163.734 70.0352 163.482C69.6152 163.216 69.1042 163.083 68.5022 163.083C67.9982 163.083 67.5222 163.181 67.0742 163.377C66.6262 163.573 66.2762 163.832 66.0242 164.154H63.2732L64.0502 155.67H72.9332V158.211H65.3522L66.4022 157.392L65.8982 162.684L65.1842 162.474C65.5902 162.012 66.0872 161.627 66.6752 161.319C67.2632 161.011 68.0052 160.857 68.9012 160.857C70.0352 160.857 71.0012 161.088 71.7992 161.55C72.5972 162.012 73.2062 162.628 73.6262 163.398C74.0462 164.154 74.2562 164.98 74.2562 165.876V166.149C74.2562 167.059 74.0322 167.913 73.5842 168.711C73.1362 169.509 72.4782 170.16 71.6102 170.664C70.7562 171.154 69.7062 171.399 68.4602 171.399ZM75.8463 167.829V164.595L81.8523 155.25L84.0993 156.783L78.8073 165.057L79.0593 165.477H88.4673V167.829H75.8463ZM83.8683 171V160.017H86.6193V171H83.8683Z" fill="white"/>
<path d="M291 173C292.061 173 293.078 173.421 293.828 174.172C294.579 174.922 295 175.939 295 177H291V173ZM291 166C297.075 166 302 170.925 302 177H300C300 174.613 299.052 172.324 297.364 170.636C295.676 168.948 293.387 168 291 168V166ZM291 159C300.941 159 309 167.059 309 177H307C307 168.163 299.837 161 291 161V159Z" fill="white"/>
</g>
<defs>
<clipPath id="clip0_117_1373">
<rect width="328" height="196" rx="16" fill="white"/>
</clipPath>
</defs>
</svg>
