<svg width="15" height="15" viewBox="0 0 15 15" fill="none" xmlns="http://www.w3.org/2000/svg">
<path d="M10.8333 11.6667V10.8333H8.33333V8.33333H10.8333V10H12.5V11.6667H11.6667V13.3333H10V15H8.33333V12.5H10V11.6667H10.8333ZM15 15H11.6667V13.3333H13.3333V11.6667H15V15ZM0 0H6.66667V6.66667H0V0ZM1.66667 1.66667V5H5V1.66667H1.66667ZM8.33333 0H15V6.66667H8.33333V0ZM10 1.66667V5H13.3333V1.66667H10ZM0 8.33333H6.66667V15H0V8.33333ZM1.66667 10V13.3333H5V10H1.66667ZM12.5 8.33333H15V10H12.5V8.33333ZM2.5 2.5H4.16667V4.16667H2.5V2.5ZM2.5 10.8333H4.16667V12.5H2.5V10.8333ZM10.8333 2.5H12.5V4.16667H10.8333V2.5Z" fill="white"/>
</svg>
