<svg width="17" height="17" viewBox="0 0 17 17" fill="none" xmlns="http://www.w3.org/2000/svg">
<path d="M0.2025 4.73876L7.90833 0.118758C8.03785 0.0410489 8.18605 0 8.33708 0C8.48812 0 8.63632 0.0410489 8.76583 0.118758L16.4642 4.73959C16.5259 4.7766 16.5771 4.82899 16.6125 4.89165C16.648 4.9543 16.6667 5.02508 16.6667 5.09709V15.6938C16.6667 15.9148 16.5789 16.1267 16.4226 16.283C16.2663 16.4393 16.0543 16.5271 15.8333 16.5271H0.833333C0.61232 16.5271 0.400358 16.4393 0.244078 16.283C0.0877973 16.1267 9.17272e-09 15.9148 9.17272e-09 15.6938V5.09626C-1.50983e-05 5.02425 0.0186315 4.95347 0.0541212 4.89081C0.089611 4.82816 0.140732 4.77577 0.2025 4.73876ZM1.66667 5.80459V14.8604H15V5.80376L8.33667 1.80376L1.66667 5.80376V5.80459ZM8.38333 10.4421L12.7967 6.72293L13.87 7.99793L8.395 12.6121L2.80333 8.00376L3.86333 6.71709L8.38333 10.4421V10.4421Z" fill="#289B4F"/>
</svg>
