<svg width="15" height="18" viewBox="0 0 15 18" fill="none" xmlns="http://www.w3.org/2000/svg">
<path d="M2.5 5.83333V5C2.5 3.67392 3.02678 2.40215 3.96447 1.46447C4.90215 0.526784 6.17392 0 7.5 0C8.82608 0 10.0979 0.526784 11.0355 1.46447C11.9732 2.40215 12.5 3.67392 12.5 5V5.83333H14.1667C14.3877 5.83333 14.5996 5.92113 14.7559 6.07741C14.9122 6.23369 15 6.44565 15 6.66667V16.6667C15 16.8877 14.9122 17.0996 14.7559 17.2559C14.5996 17.4122 14.3877 17.5 14.1667 17.5H0.833333C0.61232 17.5 0.400358 17.4122 0.244078 17.2559C0.0877973 17.0996 0 16.8877 0 16.6667V6.66667C0 6.44565 0.0877973 6.23369 0.244078 6.07741C0.400358 5.92113 0.61232 5.83333 0.833333 5.83333H2.5ZM13.3333 7.5H1.66667V15.8333H13.3333V7.5ZM6.66667 12.2767C6.34893 12.0932 6.1006 11.8101 5.9602 11.4711C5.8198 11.1321 5.79517 10.7563 5.89012 10.4019C5.98508 10.0475 6.19432 9.73438 6.4854 9.51104C6.77647 9.28769 7.13311 9.16662 7.5 9.16662C7.86689 9.16662 8.22353 9.28769 8.5146 9.51104C8.80568 9.73438 9.01492 10.0475 9.10988 10.4019C9.20483 10.7563 9.1802 11.1321 9.0398 11.4711C8.8994 11.8101 8.65107 12.0932 8.33333 12.2767V14.1667H6.66667V12.2767ZM4.16667 5.83333H10.8333V5C10.8333 4.11594 10.4821 3.2681 9.85702 2.64298C9.2319 2.01786 8.38405 1.66667 7.5 1.66667C6.61594 1.66667 5.7681 2.01786 5.14298 2.64298C4.51786 3.2681 4.16667 4.11594 4.16667 5V5.83333Z" fill="#B83232"/>
</svg>
