<svg width="12" height="17" viewBox="0 0 12 17" fill="none" xmlns="http://www.w3.org/2000/svg">
<path d="M1.66667 1.66667V15H10V1.66667H1.66667ZM0.833333 0H10.8333C11.0543 0 11.2663 0.0877973 11.4226 0.244078C11.5789 0.400358 11.6667 0.61232 11.6667 0.833333V15.8333C11.6667 16.0543 11.5789 16.2663 11.4226 16.4226C11.2663 16.5789 11.0543 16.6667 10.8333 16.6667H0.833333C0.61232 16.6667 0.400358 16.5789 0.244078 16.4226C0.0877975 16.2663 0 16.0543 0 15.8333V0.833333C0 0.61232 0.0877975 0.400358 0.244078 0.244078C0.400358 0.0877973 0.61232 0 0.833333 0ZM5.83333 12.5C6.05435 12.5 6.26631 12.5878 6.42259 12.7441C6.57887 12.9004 6.66667 13.1123 6.66667 13.3333C6.66667 13.5543 6.57887 13.7663 6.42259 13.9226C6.26631 14.0789 6.05435 14.1667 5.83333 14.1667C5.61232 14.1667 5.40036 14.0789 5.24408 13.9226C5.0878 13.7663 5 13.5543 5 13.3333C5 13.1123 5.0878 12.9004 5.24408 12.7441C5.40036 12.5878 5.61232 12.5 5.83333 12.5V12.5Z" fill="#2A917E"/>
</svg>
