<svg width="15" height="17" viewBox="0 0 15 17" fill="none" xmlns="http://www.w3.org/2000/svg">
<path d="M7.17167 12.5C10.2233 12.5 12.8925 13.8125 14.3442 15.7708L12.8092 16.4967C11.6275 15.0967 9.54417 14.1667 7.17167 14.1667C4.79917 14.1667 2.71583 15.0967 1.53417 16.4967L0 15.77C1.45167 13.8117 4.12 12.5 7.17167 12.5ZM7.17167 0C8.27674 0 9.33654 0.438987 10.1179 1.22039C10.8993 2.00179 11.3383 3.0616 11.3383 4.16667V6.66667C11.3383 7.74039 10.9237 8.77263 10.1811 9.54815C9.43852 10.3237 8.42521 10.7826 7.3525 10.8292L7.17167 10.8333C6.0666 10.8333 5.00679 10.3943 4.22539 9.61294C3.44399 8.83154 3.005 7.77174 3.005 6.66667V4.16667C3.00506 3.09295 3.41962 2.0607 4.16222 1.28519C4.90481 0.509672 5.91813 0.0507662 6.99083 0.00416676L7.17167 0ZM7.17167 1.66667C6.53399 1.66663 5.9204 1.91027 5.45645 2.34774C4.99249 2.7852 4.71324 3.38342 4.67583 4.02L4.67167 4.16667V6.66667C4.67104 7.31742 4.92418 7.94277 5.37731 8.40985C5.83044 8.87692 6.44783 9.1489 7.0983 9.168C7.74878 9.1871 8.38106 8.9518 8.86081 8.51212C9.34056 8.07243 9.62995 7.463 9.6675 6.81333L9.67167 6.66667V4.16667C9.67167 3.50363 9.40827 2.86774 8.93943 2.3989C8.47059 1.93006 7.83471 1.66667 7.17167 1.66667V1.66667Z" fill="#5732BF"/>
</svg>
