<svg width="18" height="18" viewBox="0 0 18 18" fill="none" xmlns="http://www.w3.org/2000/svg">
<path d="M7.5 0.0358333C7.775 0.0116667 8.0525 0 8.33333 0C13.6258 0 17.9167 4.29083 17.9167 9.58333C17.9167 9.86417 17.905 10.1417 17.8808 10.4167H16.6258C16.2075 14.6275 12.6542 17.9167 8.33333 17.9167C3.73083 17.9167 0 14.1858 0 9.58333C0 5.2625 3.28917 1.70917 7.5 1.29167V0.035V0.0358333ZM7.5 10.4167V2.96833C5.81893 3.18224 4.28238 4.02822 3.20266 5.33435C2.12294 6.64047 1.58107 8.30872 1.68718 10C1.7933 11.6913 2.53944 13.2788 3.77395 14.4397C5.00847 15.6006 6.63871 16.2479 8.33333 16.25C9.95718 16.25 11.5252 15.6573 12.7431 14.5833C13.9611 13.5093 14.7452 12.0277 14.9483 10.4167H7.5ZM16.2067 8.75C16.0156 6.94825 15.2125 5.26649 13.9313 3.98532C12.6502 2.70415 10.9684 1.90105 9.16667 1.71V8.75H16.2067Z" fill="#963898"/>
</svg>
