<svg width="19" height="19" viewBox="0 0 19 19" fill="none" xmlns="http://www.w3.org/2000/svg">
<path d="M15.7817 5.83244H16.6667C17.1087 5.83244 17.5326 6.00803 17.8452 6.32059C18.1577 6.63315 18.3333 7.05708 18.3333 7.4991V10.8324C18.3333 11.2745 18.1577 11.6984 17.8452 12.0109C17.5326 12.3235 17.1087 12.4991 16.6667 12.4991H15.7817C15.5785 14.1102 14.7944 15.5918 13.5765 16.6658C12.3585 17.7398 10.7905 18.3324 9.16667 18.3324V16.6658C10.4927 16.6658 11.7645 16.139 12.7022 15.2013C13.6399 14.2636 14.1667 12.9919 14.1667 11.6658V6.66577C14.1667 5.33969 13.6399 4.06792 12.7022 3.13024C11.7645 2.19255 10.4927 1.66577 9.16667 1.66577C7.84058 1.66577 6.56882 2.19255 5.63113 3.13024C4.69345 4.06792 4.16667 5.33969 4.16667 6.66577V12.4991H1.66667C1.22464 12.4991 0.800716 12.3235 0.488155 12.0109C0.175595 11.6984 0 11.2745 0 10.8324V7.4991C0 7.05708 0.175595 6.63315 0.488155 6.32059C0.800716 6.00803 1.22464 5.83244 1.66667 5.83244H2.55167C2.75503 4.22152 3.53923 2.74016 4.75714 1.66633C5.97506 0.592502 7.54296 0 9.16667 0C10.7904 0 12.3583 0.592502 13.5762 1.66633C14.7941 2.74016 15.5783 4.22152 15.7817 5.83244V5.83244ZM1.66667 7.4991V10.8324H2.5V7.4991H1.66667ZM15.8333 7.4991V10.8324H16.6667V7.4991H15.8333ZM5.63333 12.3199L6.51667 10.9066C7.3109 11.4041 8.22947 11.6673 9.16667 11.6658C10.1039 11.6673 11.0224 11.4041 11.8167 10.9066L12.7 12.3199C11.6411 12.9834 10.4163 13.3344 9.16667 13.3324C7.91705 13.3344 6.69228 12.9834 5.63333 12.3199Z" fill="#2A917E"/>
</svg>
