<svg width="18" height="17" viewBox="0 0 18 17" fill="none" xmlns="http://www.w3.org/2000/svg">
<path d="M14.8625 10.9204C15.4032 9.63563 15.5277 8.21372 15.2184 6.85457C14.9091 5.49541 14.1817 4.26737 13.1383 3.34309C12.0949 2.4188 10.7881 1.84476 9.40153 1.70168C8.015 1.55859 6.61848 1.85365 5.40833 2.54538L4.58167 1.09788C5.84636 0.375055 7.27849 -0.00348518 8.73517 2.41804e-05C10.1918 0.00353354 11.6221 0.38897 12.8833 1.11788C16.625 3.27788 18.0583 7.90288 16.3142 11.7595L17.4325 12.4045L13.9617 14.2495L13.8242 10.3212L14.8625 10.9204ZM2.57083 5.74871C2.03012 7.03346 1.90565 8.45536 2.21493 9.81452C2.52421 11.1737 3.25168 12.4017 4.29506 13.326C5.33844 14.2503 6.64527 14.8243 8.0318 14.9674C9.41834 15.1105 10.8148 14.8154 12.025 14.1237L12.8517 15.5712C11.587 16.294 10.1548 16.6726 8.69816 16.6691C7.24149 16.6656 5.8112 16.2801 4.55 15.5512C0.808334 13.3912 -0.625 8.76621 1.11917 4.90954L0 4.26538L3.47083 2.42038L3.60833 6.34871L2.57 5.74954L2.57083 5.74871ZM9.89583 10.6912L7.53667 8.33454L5.18 10.6912L4.00167 9.51287L7.5375 5.97788L9.895 8.33454L12.2525 5.97788L13.4308 7.15621L9.895 10.6912H9.89583Z" fill="#1D62CA"/>
</svg>
