<svg width="17" height="17" viewBox="0 0 17 17" fill="none" xmlns="http://www.w3.org/2000/svg">
<path d="M3.43 15.0725C2.36669 14.2999 1.50152 13.2864 0.905327 12.115C0.309138 10.9436 -0.00110624 9.6477 2.96381e-06 8.33333C2.96381e-06 3.73083 3.73084 0 8.33334 0C12.9358 0 16.6667 3.73083 16.6667 8.33333C16.6678 9.6477 16.3575 10.9436 15.7613 12.115C15.1652 13.2864 14.3 14.2999 13.2367 15.0725L12.3908 13.6233C13.4962 12.7755 14.3081 11.6027 14.7127 10.2697C15.1172 8.93665 15.0941 7.51039 14.6464 6.19123C14.1987 4.87206 13.3491 3.72627 12.2168 2.9148C11.0844 2.10333 9.72639 1.66695 8.33334 1.66695C6.94028 1.66695 5.58222 2.10333 4.44992 2.9148C3.31761 3.72627 2.46795 4.87206 2.02028 6.19123C1.57262 7.51039 1.54943 8.93665 1.95398 10.2697C2.35854 11.6027 3.17051 12.7755 4.27584 13.6233L3.43 15.0725V15.0725ZM5.125 12.1683C4.33752 11.5095 3.77195 10.6243 3.50513 9.63281C3.23831 8.64136 3.28317 7.59181 3.63362 6.62675C3.98408 5.66169 4.62313 4.82791 5.46396 4.2387C6.30478 3.64949 7.30661 3.33342 8.33334 3.33342C9.36006 3.33342 10.3619 3.64949 11.2027 4.2387C12.0435 4.82791 12.6826 5.66169 13.033 6.62675C13.3835 7.59181 13.4284 8.64136 13.1615 9.63281C12.8947 10.6243 12.3291 11.5095 11.5417 12.1683L10.6833 10.6967C11.1515 10.2313 11.4709 9.63738 11.6012 8.99024C11.7314 8.34309 11.6665 7.67186 11.4148 7.06161C11.1631 6.45137 10.7359 5.9296 10.1873 5.56245C9.63871 5.19531 8.99345 4.99931 8.33334 4.99931C7.67322 4.99931 7.02797 5.19531 6.47937 5.56245C5.93078 5.9296 5.50355 6.45137 5.25184 7.06161C5.00014 7.67186 4.93528 8.34309 5.06551 8.99024C5.19574 9.63738 5.51518 10.2313 5.98334 10.6967L5.125 12.1683V12.1683ZM7.5 9.16667H9.16667V16.6667H7.5V9.16667Z" fill="#289B4F"/>
</svg>
