<svg width="16" height="17" viewBox="0 0 16 17" fill="none" xmlns="http://www.w3.org/2000/svg">
<path d="M6.66667 0L12.7483 1.9C12.918 1.95295 13.0662 2.05874 13.1714 2.20191C13.2767 2.34508 13.3334 2.51814 13.3333 2.69583V4.16667H15C15.221 4.16667 15.433 4.25446 15.5893 4.41074C15.7455 4.56702 15.8333 4.77899 15.8333 5V11.6667C15.8333 11.8877 15.7455 12.0996 15.5893 12.2559C15.433 12.4122 15.221 12.5 15 12.5L12.3167 12.5008C11.9942 12.9258 11.6025 13.3008 11.15 13.6092L6.66667 16.6667L2.18333 13.61C1.51044 13.1512 0.959793 12.535 0.579283 11.8149C0.198773 11.0949 -8.43523e-05 10.2928 2.68415e-08 9.47833V2.69583C0.000100505 2.51828 0.0569055 2.34541 0.162135 2.2024C0.267365 2.0594 0.415518 1.95374 0.585 1.90083L6.66667 0ZM6.66667 1.745L1.66667 3.30833V9.47833C1.66655 9.98852 1.78354 10.4919 2.00864 10.9498C2.23373 11.4076 2.56092 11.8077 2.965 12.1192L3.1225 12.2325L6.66667 14.65L9.81833 12.5H5.83333C5.61232 12.5 5.40036 12.4122 5.24408 12.2559C5.0878 12.0996 5 11.8877 5 11.6667V5C5 4.77899 5.0878 4.56702 5.24408 4.41074C5.40036 4.25446 5.61232 4.16667 5.83333 4.16667H11.6667V3.30833L6.66667 1.745ZM6.66667 8.33333V10.8333H14.1667V8.33333H6.66667ZM6.66667 6.66667H14.1667V5.83333H6.66667V6.66667Z" fill="#270685"/>
</svg>
