<svg width="15" height="19" viewBox="0 0 15 19" fill="none" xmlns="http://www.w3.org/2000/svg">
<path d="M7.5 2.35667L3.375 6.48167C2.55926 7.2975 2.00374 8.3369 1.77871 9.46844C1.55368 10.6 1.66923 11.7728 2.11076 12.8387C2.55229 13.9046 3.29997 14.8156 4.25924 15.4565C5.21851 16.0975 6.3463 16.4396 7.5 16.4396C8.6537 16.4396 9.78149 16.0975 10.7408 15.4565C11.7 14.8156 12.4477 13.9046 12.8892 12.8387C13.3308 11.7728 13.4463 10.6 13.2213 9.46844C12.9963 8.3369 12.4408 7.2975 11.625 6.48167L7.5 2.35667ZM7.5 0L12.8033 5.30333C13.8522 6.35223 14.5665 7.6886 14.8559 9.14346C15.1453 10.5983 14.9968 12.1063 14.4291 13.4767C13.8614 14.8472 12.9001 16.0185 11.6668 16.8426C10.4334 17.6667 8.98336 18.1066 7.5 18.1066C6.01665 18.1066 4.5666 17.6667 3.33324 16.8426C2.09987 16.0185 1.13858 14.8472 0.570916 13.4767C0.00325571 12.1063 -0.145275 10.5983 0.144107 9.14346C0.433489 7.6886 1.14779 6.35223 2.19667 5.30333L7.5 0V0Z" fill="#1D62CA"/>
</svg>
