<svg width="22" height="28" viewBox="0 0 22 28" fill="none" xmlns="http://www.w3.org/2000/svg">
<path d="M7.96427 21.332H13.3696C13.5456 19.7293 14.3629 18.4067 15.6896 16.9627C15.8403 16.8 16.7989 15.8067 16.9123 15.6653C17.854 14.4888 18.4443 13.0703 18.6151 11.573C18.7859 10.0758 18.5304 8.56071 17.8779 7.20232C17.2255 5.84392 16.2026 4.69744 14.9271 3.8949C13.6516 3.09236 12.1753 2.6664 10.6684 2.66608C9.16141 2.66576 7.68499 3.09109 6.40915 3.89308C5.13331 4.69508 4.10994 5.84112 3.45689 7.19924C2.80383 8.55735 2.54766 10.0723 2.71786 11.5696C2.88807 13.067 3.47773 14.4858 4.41894 15.6627C4.53361 15.8053 5.49494 16.8 5.64294 16.9613C6.97094 18.4067 7.78827 19.7293 7.96427 21.332V21.332ZM13.3336 23.9987H8.00027V25.332H13.3336V23.9987ZM2.33894 17.332C1.08319 15.7631 0.296203 13.8713 0.0686245 11.8746C-0.158954 9.87795 0.182139 7.85761 1.05261 6.04632C1.92308 4.23504 3.28752 2.70649 4.98875 1.63678C6.68997 0.567056 8.65878 -0.000321656 10.6684 1.36804e-07C12.678 0.00032193 14.6466 0.56833 16.3475 1.63859C18.0484 2.70886 19.4123 4.23784 20.2822 6.0494C21.1521 7.86097 21.4925 9.88142 21.2643 11.878C21.0361 13.8746 20.2485 15.7661 18.9923 17.3347C18.1656 18.364 16.0003 19.9987 16.0003 21.9987V25.332C16.0003 26.0392 15.7193 26.7175 15.2192 27.2176C14.7191 27.7177 14.0408 27.9987 13.3336 27.9987H8.00027C7.29303 27.9987 6.61475 27.7177 6.11465 27.2176C5.61456 26.7175 5.33361 26.0392 5.33361 25.332V21.9987C5.33361 19.9987 3.16694 18.364 2.33894 17.332ZM12.0003 10.6707H15.3336L9.3336 18.6707V13.3373H6.00027L12.0003 5.332V10.672V10.6707Z" fill="#5732BF"/>
</svg>
